<svg class="animated" id="freepik_stories-curious" xmlns="http://www.w3.org/2000/svg" viewBox="0 0 500 500" version="1.1" xmlns:xlink="http://www.w3.org/1999/xlink" xmlns:svgjs="http://svgjs.com/svgjs"><style>svg#freepik_stories-curious:not(.animated) .animable {opacity: 0;}svg#freepik_stories-curious.animated #freepik--background-complete--inject-67 {animation: 1s 1 forwards cubic-bezier(.36,-0.01,.5,1.38) zoomOut;animation-delay: 0.5s;opacity: 0}svg#freepik_stories-curious.animated #freepik--character-2--inject-67 {animation: 1s 1 forwards cubic-bezier(.36,-0.01,.5,1.38) zoomIn;animation-delay: 0s;}svg#freepik_stories-curious.animated #freepik--character-1--inject-67 {animation: 1s 1 forwards cubic-bezier(.36,-0.01,.5,1.38) zoomIn;animation-delay: 0.3s;opacity: 0}svg#freepik_stories-curious.animated #freepik--Plant--inject-67 {animation: 1s 1 forwards cubic-bezier(.36,-0.01,.5,1.38) slideLeft;animation-delay: 0.3s;opacity: 0}svg#freepik_stories-curious.animated #freepik--speech-bubble--inject-67 {animation: 1s 1 forwards cubic-bezier(.36,-0.01,.5,1.38) lightSpeedLeft;animation-delay: 0.4s;opacity: 0}            @keyframes zoomOut {                0% {                    opacity: 0;                    transform: scale(1.5);                }                100% {                    opacity: 1;                    transform: scale(1);                }            }                    @keyframes zoomIn {                0% {                    opacity: 0;                    transform: scale(0.5);                }                100% {                    opacity: 1;                    transform: scale(1);                }            }                    @keyframes slideLeft {                0% {                    opacity: 0;                    transform: translateX(-30px);                }                100% {                    opacity: 1;                    transform: translateX(0);                }            }                    @keyframes lightSpeedLeft {              from {                transform: translate3d(-50%, 0, 0) skewX(20deg);                opacity: 0;              }              60% {                transform: skewX(-10deg);                opacity: 1;              }              80% {                transform: skewX(2deg);              }              to {                opacity: 1;                transform: translate3d(0, 0, 0);              }            }        .animator-hidden { display: none; }</style><g id="freepik--background-complete--inject-67" class="animable" style="transform-origin: 240.025px 110.219px;"><rect x="318.99" y="66.1" width="111.62" height="116.35" style="fill: rgb(224, 224, 224); transform-origin: 374.8px 124.275px;" id="eln030f8dsfy" class="animable"></rect><rect x="311.43" y="66.1" width="111.62" height="116.35" style="fill: rgb(250, 250, 250); transform-origin: 367.24px 124.275px;" id="elu7sfry360jg" class="animable"></rect><path d="M423.08,182.49H311.4V66.07H423.08Zm-111.62-.07H423V66.14H311.46Z" style="fill: rgb(224, 224, 224); transform-origin: 367.24px 124.28px;" id="eljdjxtxr0f4o" class="animable"></path><rect x="326.43" y="81.74" width="81.61" height="85.07" style="fill: rgb(250, 250, 250); transform-origin: 367.235px 124.275px;" id="ely9hoypx6h6" class="animable"></rect><path d="M326.43,167.38a12.72,12.72,0,0,1-2,2.34c-1.3,1.38-3.13,3.24-5.19,5.26s-3.94,3.82-5.33,5.1a13.12,13.12,0,0,1-2.36,2,12.77,12.77,0,0,1,2-2.33c1.3-1.38,3.14-3.24,5.19-5.27s3.95-3.84,5.35-5.11A13,13,0,0,1,326.43,167.38Z" style="fill: rgb(224, 224, 224); transform-origin: 318.99px 174.73px;" id="el5g36i0k88h3" class="animable"></path><path d="M408,167.17a13.24,13.24,0,0,1,2.34,2c1.38,1.31,3.24,3.14,5.26,5.19s3.83,3.94,5.11,5.33a13.14,13.14,0,0,1,2,2.36,12.92,12.92,0,0,1-2.33-2c-1.38-1.3-3.24-3.14-5.27-5.2s-3.83-4-5.11-5.34A12.92,12.92,0,0,1,408,167.17Z" style="fill: rgb(224, 224, 224); transform-origin: 415.355px 174.61px;" id="elh8u7u39ddjv" class="animable"></path><path d="M407.82,82a13.54,13.54,0,0,1,2-2.34c1.31-1.38,3.14-3.24,5.19-5.26s3.94-3.82,5.33-5.1a13.12,13.12,0,0,1,2.36-2,13.15,13.15,0,0,1-2,2.34c-1.31,1.37-3.14,3.24-5.2,5.26s-3.95,3.84-5.34,5.12A12.41,12.41,0,0,1,407.82,82Z" style="fill: rgb(224, 224, 224); transform-origin: 415.26px 74.65px;" id="el4ezt25ca3gh" class="animable"></path><path d="M326.21,82.18a12.72,12.72,0,0,1-2.34-2c-1.38-1.31-3.24-3.14-5.26-5.19s-3.82-3.94-5.1-5.33a13.12,13.12,0,0,1-2-2.36,12.92,12.92,0,0,1,2.33,2c1.38,1.31,3.25,3.14,5.27,5.2s3.84,4,5.12,5.34A12.41,12.41,0,0,1,326.21,82.18Z" style="fill: rgb(224, 224, 224); transform-origin: 318.86px 74.74px;" id="elc5sfyxwi8nq" class="animable"></path><path d="M407.82,166.81a3.24,3.24,0,0,1,0-.41c0-.29,0-.68,0-1.19,0-1.06,0-2.6,0-4.59,0-4-.05-9.89-.09-17.34,0-14.9-.09-36.12-.16-61.54l.32.32-81.38,0h0l.37-.37c0,31.23,0,60.44-.06,85.07l-.31-.31,58.93.16,16.55.08,4.38,0,1.13,0h.4a1.34,1.34,0,0,1-.36,0l-1.1,0-4.32,0-16.48.08-59.13.15h-.31v-.32c0-24.63,0-53.84-.05-85.07v-.36h.37l81.38.05h.31v.31c-.06,25.5-.12,46.8-.16,61.75,0,7.41-.06,13.25-.08,17.26,0,2,0,3.48,0,4.53,0,.5,0,.87,0,1.16A2.37,2.37,0,0,1,407.82,166.81Z" style="fill: rgb(224, 224, 224); transform-origin: 367.18px 124.045px;" id="elrqro8kqprvk" class="animable"></path><rect x="353.62" y="110.66" width="27.23" height="27.23" style="fill: rgb(235, 235, 235); transform-origin: 367.235px 124.275px;" id="el84nxxhtzbxc" class="animable"></rect><g id="elu9v94il0kq9"><rect x="193.99" y="60.24" width="12" height="59.7" style="fill: rgb(224, 224, 224); transform-origin: 199.99px 90.09px; transform: rotate(-0.31deg);" class="animable"></rect></g><g id="el7wibfxbava"><rect x="89.97" y="60.45" width="31.07" height="32.96" style="fill: rgb(235, 235, 235); transform-origin: 105.505px 76.93px; transform: rotate(-0.31deg);" class="animable"></rect></g><g id="el3w5hnmephgo"><rect x="120.9" y="60.28" width="31.07" height="32.96" style="fill: rgb(245, 245, 245); transform-origin: 136.435px 76.76px; transform: rotate(-0.31deg);" class="animable"></rect></g><path d="M89.93,69.64q31,.26,62-.29a.33.33,0,0,0,0-.66c-20.64-.11-41.34,0-62,.38a.29.29,0,0,0,0,.57Z" style="fill: rgb(224, 224, 224); transform-origin: 120.977px 69.1865px;" id="el4ms7707kro" class="animable"></path><g id="el6ndpbpg10ii"><rect x="70.59" y="92.93" width="56.45" height="26.86" style="fill: rgb(235, 235, 235); transform-origin: 98.815px 106.36px; transform: rotate(-0.31deg);" class="animable"></rect></g><g id="elkicrlik8aff"><rect x="126.77" y="92.63" width="56.45" height="26.86" style="fill: rgb(245, 245, 245); transform-origin: 154.995px 106.06px; transform: rotate(-0.572939deg);" class="animable"></rect></g><path d="M70.55,100.55c37.51.42,75.14,0,112.64-.56a.33.33,0,0,0,0-.66c-37.5-.2-75.13-.17-112.63.65a.29.29,0,0,0,0,.57Z" style="fill: rgb(224, 224, 224); transform-origin: 126.922px 99.9738px;" id="eleyr6ohej4uu" class="animable"></path><rect x="49.44" y="119.94" width="218.7" height="9.62" style="fill: rgb(224, 224, 224); transform-origin: 158.79px 124.75px;" id="elh55wfehsukm" class="animable"></rect><rect x="85.25" y="124.56" width="8.88" height="32.83" style="fill: rgb(224, 224, 224); transform-origin: 89.69px 140.975px;" id="elsv28ef1k059" class="animable"></rect><rect x="217.78" y="124.56" width="8.88" height="32.83" style="fill: rgb(224, 224, 224); transform-origin: 222.22px 140.975px;" id="eld15oyol7zvt" class="animable"></rect><g id="el12b3l5qe4wbo"><rect x="205.76" y="37.98" width="12" height="82.11" style="fill: rgb(235, 235, 235); transform-origin: 211.76px 79.035px; transform: rotate(-0.31deg);" class="animable"></rect></g><g id="elanaag7sqebf"><rect x="217.82" y="53.28" width="18.64" height="66.54" style="fill: rgb(245, 245, 245); transform-origin: 227.14px 86.55px; transform: rotate(-0.31deg);" class="animable"></rect></g><path d="M236.16,66.05c0,.18-4.18.33-9.33.33s-9.32-.15-9.32-.33,4.18-.32,9.32-.32S236.16,65.87,236.16,66.05Z" style="fill: rgb(224, 224, 224); transform-origin: 226.835px 66.055px;" id="ellg17o3xocom" class="animable"></path><path d="M236.16,63.26c0,.18-4.18.32-9.33.32s-9.32-.14-9.32-.32,4.18-.33,9.32-.33S236.16,63.08,236.16,63.26Z" style="fill: rgb(224, 224, 224); transform-origin: 226.835px 63.255px;" id="elypsda383luj" class="animable"></path><path d="M236.16,109.76c0,.18-4.18.33-9.33.33s-9.32-.15-9.32-.33,4.18-.32,9.32-.32S236.16,109.58,236.16,109.76Z" style="fill: rgb(224, 224, 224); transform-origin: 226.835px 109.765px;" id="elj9gr1degv5b" class="animable"></path><path d="M236.16,107c0,.18-4.18.32-9.33.32s-9.32-.14-9.32-.32,4.18-.33,9.32-.33S236.16,106.79,236.16,107Z" style="fill: rgb(224, 224, 224); transform-origin: 226.835px 106.995px;" id="elwnqa45cbczg" class="animable"></path><path d="M227.13,100.87c-.17,0-.32-6.72-.32-15s.15-15,.32-15,.33,6.71.33,15S227.31,100.87,227.13,100.87Z" style="fill: rgb(224, 224, 224); transform-origin: 227.135px 85.87px;" id="eldts70xihjy" class="animable"></path><rect x="236.36" y="69.57" width="20.29" height="50.23" style="fill: rgb(235, 235, 235); transform-origin: 246.505px 94.685px;" id="elbi8eo2ih9lo" class="animable"></rect><path d="M214.81,52a3.45,3.45,0,1,1-3.45-3.45A3.46,3.46,0,0,1,214.81,52Z" style="fill: rgb(224, 224, 224); transform-origin: 211.36px 52px;" id="elx4xyxf8k51j" class="animable"></path><rect x="210.29" y="61.45" width="2.13" height="48.85" style="fill: rgb(224, 224, 224); transform-origin: 211.355px 85.875px;" id="elo6gj6sjvii" class="animable"></rect></g><g id="freepik--character-2--inject-67" class="animable" style="transform-origin: 357.141px 293.812px;"><path d="M323.43,156.25a17.23,17.23,0,0,1-1.89-14,29.22,29.22,0,0,1,3.91-7.59,29.21,29.21,0,0,1,6.57-7.47c.41-.31-1.12,1,0,0,.47-.45,1.09-3,1.38-3.62,1.52-3,2.61-3.9,3.66-4.23a22.09,22.09,0,0,1,4.51-1.14c2.08-.31,5.61,1.16,7.36,2.32a8.17,8.17,0,0,1,5.75-5.53,10,10,0,0,1,8,1.44,1,1,0,0,0,1.6-.29,7.12,7.12,0,0,1,6.84-2.63,5.36,5.36,0,0,1,4.16,5.66,6.14,6.14,0,0,1,9.84,5.88c1.82-.39,3.91-.72,5.39.42a7.56,7.56,0,0,1,2.34,6.57,12,12,0,0,1-2.86,5.64c-1.69,1.5-3.14.55-5.35,1-3.29.73-6.77,1.43-10,.4" style="fill: rgb(38, 50, 56); transform-origin: 356.875px 134.827px;" id="elcmy68cwzeat" class="animable"></path><path d="M395.7,158.47a37.11,37.11,0,0,0-36.91-34.19h-1.92c-20.72,1.17-31.3,19.41-29.56,40.09L331,259.88h47.48l-.42-31.08s19.92-3.06,20.2-23C398.43,196.22,397.11,176.4,395.7,158.47Z" style="fill: rgb(183, 136, 118); transform-origin: 362.7px 192.08px;" id="elh0chzryes5a" class="animable"></path><path d="M378.25,228.77a48.28,48.28,0,0,1-26.07-7.69s6.11,14.34,26,12.59Z" style="fill: rgb(153, 80, 55); transform-origin: 365.215px 227.449px;" id="elf0691nwqw99" class="animable"></path><path d="M388,174.2a2.84,2.84,0,0,1-2.75,2.86,2.72,2.72,0,0,1-2.93-2.57,2.84,2.84,0,0,1,2.75-2.86A2.73,2.73,0,0,1,388,174.2Z" style="fill: rgb(38, 50, 56); transform-origin: 385.16px 174.345px;" id="ells9kw2iqcib" class="animable"></path><path d="M391.4,168.2c-.36.37-2.51-1.23-5.57-1.22s-5.3,1.52-5.63,1.15c-.16-.17.2-.84,1.18-1.55a7.84,7.84,0,0,1,4.51-1.38,7.55,7.55,0,0,1,4.43,1.44C391.25,167.37,391.57,168,391.4,168.2Z" style="fill: rgb(38, 50, 56); transform-origin: 385.804px 166.728px;" id="elxkjis8xzwr9" class="animable"></path><path d="M358.53,175.56a2.84,2.84,0,0,1-2.75,2.87,2.73,2.73,0,0,1-2.93-2.57A2.86,2.86,0,0,1,355.6,173,2.72,2.72,0,0,1,358.53,175.56Z" style="fill: rgb(38, 50, 56); transform-origin: 355.69px 175.715px;" id="el3zyr4b1f5gs" class="animable"></path><path d="M361.29,169.73c-.36.37-2.51-1.23-5.57-1.23s-5.3,1.53-5.63,1.16c-.16-.17.19-.84,1.17-1.55a7.9,7.9,0,0,1,4.52-1.38,7.52,7.52,0,0,1,4.42,1.44C361.14,168.89,361.46,169.57,361.29,169.73Z" style="fill: rgb(38, 50, 56); transform-origin: 355.693px 168.258px;" id="elpg3b4rnputh" class="animable"></path><path d="M372.38,191.42c0-.17,1.89-.5,5-.88.78-.08,1.52-.24,1.66-.77a4,4,0,0,0-.52-2.32q-1.1-2.83-2.3-5.95c-3.19-8.48-5.5-15.44-5.16-15.57s3.21,6.64,6.4,15.12l2.2,6a4.49,4.49,0,0,1,.4,3.07,1.93,1.93,0,0,1-1.28,1.13,5.44,5.44,0,0,1-1.33.19C374.32,191.59,372.39,191.6,372.38,191.42Z" style="fill: rgb(38, 50, 56); transform-origin: 375.599px 178.741px;" id="el5hzawmc8fme" class="animable"></path><path d="M363.37,193.52c.5,0,.5,3.29,3.34,5.66s6.37,2,6.4,2.47c0,.2-.79.64-2.29.68a8.31,8.31,0,0,1-5.34-1.88,7.2,7.2,0,0,1-2.58-4.74C362.77,194.32,363.15,193.5,363.37,193.52Z" style="fill: rgb(38, 50, 56); transform-origin: 367.992px 197.925px;" id="elfexpyrbb7ne" class="animable"></path><path d="M362.86,162.8c-.29.83-3.35.47-6.94.94s-6.47,1.48-7,.74c-.21-.35.28-1.14,1.44-2A12.19,12.19,0,0,1,361,161.24C362.32,161.76,363,162.4,362.86,162.8Z" style="fill: rgb(38, 50, 56); transform-origin: 355.875px 162.645px;" id="el1l3px5j6a57h" class="animable"></path><path d="M392.14,159.36c-.58.76-3.22.3-6.31.58s-5.66,1-6.33.38c-.3-.32,0-1.06,1.12-1.83a10.25,10.25,0,0,1,5-1.65,10,10,0,0,1,5.17.88C392,158.32,392.4,159,392.14,159.36Z" style="fill: rgb(38, 50, 56); transform-origin: 385.803px 158.679px;" id="elmqbe41gmo6" class="animable"></path><path d="M330.29,179.11C330,179,316.62,175,317,188.65s14,10.39,14,10S330.29,179.11,330.29,179.11Z" style="fill: rgb(183, 136, 118); transform-origin: 323.996px 188.874px;" id="elzpfrtuxx19" class="animable"></path><path d="M327.91,193.62c-.06,0-.23.17-.62.37a2.4,2.4,0,0,1-1.77.09c-1.46-.49-2.74-2.73-2.88-5.18a7.87,7.87,0,0,1,.57-3.42,2.71,2.71,0,0,1,1.72-1.87,1.2,1.2,0,0,1,1.42.61c.2.37.12.65.19.67s.29-.24.16-.8a1.5,1.5,0,0,0-.56-.84,1.82,1.82,0,0,0-1.32-.3,3.32,3.32,0,0,0-2.42,2.18,8,8,0,0,0-.7,3.82c.16,2.74,1.65,5.26,3.63,5.77a2.54,2.54,0,0,0,2.16-.42C327.9,194,328,193.64,327.91,193.62Z" style="fill: rgb(153, 80, 55); transform-origin: 324.812px 188.865px;" id="elvc4ewsivzn" class="animable"></path><path d="M339.21,138.65l6.73-5.81,21.4,3.28,15-3.87,9,1.37c-1.68,2.27-.3-.77-3.73-3.36a44.26,44.26,0,0,0-25.7-9.25c-9.25-.16-28.1,11.11-34.8,17.49-5.37,5.11-5.33,9.53-5.33,9.53-.86,7.36,3.26,15.72,4.9,22.95.84,3.73,2.48,15,2.48,15h0c3.12,0,4.29-2.5,3.81-5.59l-.58-12.13S343,160.7,338,146.87C337.19,145.76,335.47,140.71,339.21,138.65Z" style="fill: rgb(38, 50, 56); transform-origin: 356.502px 153.494px;" id="elkb0zax72ail" class="animable"></path><path d="M336.44,141.89c1.2-3.88,5.44-6.3,9.5-6.25s7.87,2.17,10.83,5a12.62,12.62,0,0,0,2.44,2,3.21,3.21,0,0,0,3,.18c.28-.15.58-.38.89-.29a1,1,0,0,1,.5.45,8.44,8.44,0,0,0,3.15,3,3.48,3.48,0,0,0,4-.62,5.2,5.2,0,0,0,8.73-3.85c1.78.61,3.71-.48,5-1.88A10.08,10.08,0,0,0,382,124.14a18,18,0,0,0-6.57-1.9,81.24,81.24,0,0,0-10.79-.81,13.22,13.22,0,0,0-4.69.55c-2.07.75-3.79,2.44-6,2.71a10.55,10.55,0,0,1-4.14-.66,16.41,16.41,0,0,0-6-.88c-4,.36-7.27,3.22-9.91,6.23a16.49,16.49,0,0,0-4.18,7.23c-.58,2.75.27,6,2.66,7.46a3.51,3.51,0,0,0,3.16.42,2.1,2.1,0,0,0,1.14-2.73" style="fill: rgb(38, 50, 56); transform-origin: 358.306px 134.073px;" id="elojwgss8bl1r" class="animable"></path><path d="M330.3,241,275,268.49,297.81,398.8l-13.19,75.14,142.25.28-9.24-144.84,19.8-58.18-59.19-30.9C361.41,260.22,345.29,256.19,330.3,241Z" style="fill: rgb(3, 169, 241); transform-origin: 356.215px 357.26px;" id="elps9byxnn9xd" class="animable"></path><path d="M387.21,352.51s0-.32-.06-.94,0-1.56-.09-2.75c-.07-2.43-.16-6-.28-10.45-.22-9-.52-21.91-.89-37.38l.42.09a162.35,162.35,0,0,1-14.26,24.76l-.27.39-.17-.44c-3-7.78-6.56-16-10.66-24.18l-2.21-4.36h.45A101.33,101.33,0,0,0,348.06,327l-.09.44-.32-.32-17.56-17.35.36-.18a214.27,214.27,0,0,0,5.61,32.23c1,3.8,1.82,6.75,2.41,8.75.3,1,.52,1.75.68,2.28s.22.79.22.79-.11-.26-.28-.77-.42-1.28-.74-2.26c-.63-2-1.52-4.94-2.52-8.73a206.33,206.33,0,0,1-5.8-32.24L330,309l.42.41L348,326.75l-.41.12A101.57,101.57,0,0,1,358.74,297l.24-.42.22.43c.73,1.45,1.47,2.9,2.22,4.37,4.1,8.23,7.66,16.43,10.66,24.23l-.44-.06a163.79,163.79,0,0,0,14.27-24.66l.41-.87,0,1c.29,15.47.53,28.35.7,37.38.06,4.49.12,8,.16,10.46,0,1.18,0,2.1,0,2.75S387.21,352.51,387.21,352.51Z" style="fill: rgb(38, 50, 56); transform-origin: 358.605px 325.11px;" id="elfsp6ytfb528" class="animable"></path><path d="M326,299.66s.16-.13.5-.17a2.51,2.51,0,0,1,1.42.34,2.78,2.78,0,0,1,1.32,1.75,2.51,2.51,0,0,1-1,2.48,2.66,2.66,0,0,1-2.64.45,2.12,2.12,0,0,1-1.35-1.72,1.55,1.55,0,0,1,.59-1.35c.3-.21.51-.21.51-.18s-.16.1-.37.33a1.45,1.45,0,0,0-.37,1.16,1.79,1.79,0,0,0,1.17,1.32,2.27,2.27,0,0,0,2.14-.42,2.07,2.07,0,0,0,.83-2,2.51,2.51,0,0,0-1-1.53A3.3,3.3,0,0,0,326,299.66Z" style="fill: rgb(38, 50, 56); transform-origin: 326.762px 302.082px;" id="elnl9c9fx24d" class="animable"></path><path d="M359.1,288.52s.18-.11.54-.09A2.48,2.48,0,0,1,361,289a2.7,2.7,0,0,1,1,2,2.72,2.72,0,0,1-4.22,2.14,2.71,2.71,0,0,1-1-2,2.47,2.47,0,0,1,.35-1.46c.2-.3.37-.4.39-.38a3.28,3.28,0,0,0-.37,1.81,2.44,2.44,0,0,0,.93,1.65,2.29,2.29,0,0,0,3.46-1.76,2.44,2.44,0,0,0-.77-1.73A3.17,3.17,0,0,0,359.1,288.52Z" style="fill: rgb(38, 50, 56); transform-origin: 359.387px 291.01px;" id="elfee9x7mn3rf" class="animable"></path><path d="M388.5,291.56a2.8,2.8,0,0,0-1.63.81,2.17,2.17,0,0,0-.57,1.77,1.86,1.86,0,0,0,1.58,1.44,1.88,1.88,0,0,0,2-.79,2.16,2.16,0,0,0,.09-1.85,2.73,2.73,0,0,0-1.24-1.33s.21,0,.53.1a2.27,2.27,0,0,1,1.05,1.08,2.54,2.54,0,0,1,0,2.24,2.48,2.48,0,0,1-4.48-.82,2.52,2.52,0,0,1,.79-2.1,2.2,2.2,0,0,1,1.35-.63C388.32,291.45,388.51,291.54,388.5,291.56Z" style="fill: rgb(38, 50, 56); transform-origin: 388.194px 293.804px;" id="elub7f2iyts7b" class="animable"></path><path d="M393.66,355.3a3.1,3.1,0,0,1-.66,0h-8.85c-5.88,0-14,.13-22.94.56s-17,1.08-22.9,1.64l-6.92.68-1.89.17a2.75,2.75,0,0,1-.66,0,3.17,3.17,0,0,1,.65-.13l1.87-.27c1.63-.23,4-.53,6.92-.85,5.84-.65,13.93-1.36,22.9-1.79s17.09-.49,23-.41c2.94,0,5.32.11,7,.18l1.89.09A3.18,3.18,0,0,1,393.66,355.3Z" style="fill: rgb(38, 50, 56); transform-origin: 361.25px 356.62px;" id="el88napukl26p" class="animable"></path><path d="M415.67,342.62l44.05-1.93s-10.21-67-24.52-70.75-23.38,38.11-23.38,38.11Z" style="fill: rgb(3, 169, 241); transform-origin: 435.77px 306.161px;" id="el6jsbt4noiri" class="animable"></path><path d="M251.09,357.48c.21-2.4,7.67-81.52,24-89s26,82.78,26,82.78Z" style="fill: rgb(3, 169, 241); transform-origin: 276.09px 312.76px;" id="el0mmoowu84yzr" class="animable"></path><path d="M421.21,385.58s0-.07,0-.22l-.07-.67c-.05-.63-.12-1.49-.2-2.56-.16-2.28-.37-5.5-.64-9.45-.5-8-1.11-19-1.63-31.19s-.85-23.24-.95-31.23c0-4-.06-7.23,0-9.47,0-1.08,0-1.94,0-2.57a4.83,4.83,0,0,1,.05-.9s0,.08,0,.23,0,.4,0,.67c0,.63,0,1.49.06,2.57,0,2.28.1,5.5.18,9.46.2,8,.56,19,1.1,31.22s1.08,23.21,1.48,31.19c.2,3.95.36,7.17.47,9.45,0,1.09.08,1.94.11,2.58A5,5,0,0,1,421.21,385.58Z" style="fill: rgb(38, 50, 56); transform-origin: 419.454px 341.45px;" id="elmi71zthqww" class="animable"></path><path d="M294.13,381.52a7,7,0,0,1,0-.85c0-.61,0-1.42,0-2.45,0-2.18,0-5.25,0-9,0-7.61-.22-18.12-.43-29.73s-.33-22.13-.28-29.74c0-3.81.06-6.89.13-9,0-1,.05-1.84.07-2.44a5.36,5.36,0,0,1,.07-.86,7.25,7.25,0,0,1,0,.86c0,.6,0,1.42,0,2.45,0,2.18,0,5.24,0,9,0,7.61.22,18.12.43,29.73s.33,22.12.28,29.74c0,3.8-.06,6.88-.13,9,0,1,0,1.84-.07,2.45A5.12,5.12,0,0,1,294.13,381.52Z" style="fill: rgb(38, 50, 56); transform-origin: 293.91px 339.485px;" id="elo0dqi3es6ts" class="animable"></path><path d="M293.71,291.78c-.09,0-.41-1.64-1.22-4.22a34.16,34.16,0,0,0-4.59-9.44,24,24,0,0,0-7.73-7,40.06,40.06,0,0,0-4-1.79,4.4,4.4,0,0,1,1.16.25,16.83,16.83,0,0,1,3,1.22,22.85,22.85,0,0,1,8,7,31.31,31.31,0,0,1,4.52,9.65,31.78,31.78,0,0,1,.73,3.14A5.1,5.1,0,0,1,293.71,291.78Z" style="fill: rgb(38, 50, 56); transform-origin: 284.94px 280.555px;" id="el7tga963011o" class="animable"></path><path d="M320.42,376.58l9.2,23.63s-43.51,23-53.55,23.8-13.15-1.47-17.33-9.19c-3.32-6.13-2.72-21.18-1.87-30.95C258,370.56,259,356.44,259,356.44l34.36-4.22.62,29.2,26.4-4.84" style="fill: rgb(183, 136, 118); transform-origin: 292.912px 388.191px;" id="el4ztz7rbt4xn" class="animable"></path><path d="M293.7,381.79a22.36,22.36,0,0,0-2.85.76,18.33,18.33,0,0,0-5.81,4,54,54,0,0,0-4.86,5.23c-1.13,1.44-1.64,2.46-1.71,2.42a1.94,1.94,0,0,1,.28-.76,15.34,15.34,0,0,1,1.13-1.88,40.59,40.59,0,0,1,4.8-5.39,16.61,16.61,0,0,1,6.05-4,8.82,8.82,0,0,1,2.16-.45A2.15,2.15,0,0,1,293.7,381.79Z" style="fill: rgb(153, 80, 55); transform-origin: 286.085px 387.955px;" id="el9l73g3e5ss" class="animable"></path><path d="M457.25,340.8l-36.54,1.6,5.67,42.3L415.9,386l-18.31-5.07-9.83,26.56s39.87,17.69,51.85,18.94,20.21-6,23-14.72S457.25,340.8,457.25,340.8Z" style="fill: rgb(183, 136, 118); transform-origin: 425.476px 383.685px;" id="el3d9sjypnd8k" class="animable"></path><rect x="344.41" y="331.21" width="36.08" height="72.09" rx="6.63" style="fill: rgb(69, 90, 100); transform-origin: 362.45px 367.255px;" id="elq6pek8w3zcr" class="animable"></rect><circle cx="362.19" cy="341.52" r="2.05" style="fill: rgb(255, 255, 255); transform-origin: 362.19px 341.52px;" id="eluobuq14pska" class="animable"></circle><path d="M450.2,400.08c-.1,0-.53-1.65-1.86-4.07a21.78,21.78,0,0,0-17.27-11.24c-2.75-.24-4.46.05-4.47,0a4.37,4.37,0,0,1,1.19-.23,19.18,19.18,0,0,1,3.31-.09,21.07,21.07,0,0,1,17.56,11.44,18.42,18.42,0,0,1,1.26,3.05A4.62,4.62,0,0,1,450.2,400.08Z" style="fill: rgb(153, 80, 55); transform-origin: 438.4px 392.248px;" id="ellez7jyp5wxs" class="animable"></path><path d="M344.88,348.1a60.71,60.71,0,0,0-6.2,0l-8.78,9.62s-1,9-2.51,10.87-8.16,8.37-8.16,8.37l9.2,23.63,6.7-1.25s4,2.51,8.15,1.25,10.25-7.11,10.25-7.11l12.48-.63,6.11-5.76-8.17-11-16.69-.63,8.36-3.56,19.87-1.88s4.6-.42,2.72-4.6-14-3.56-14-3.56l-9.42.63s7.54-2.79,8.74-5.27c.92-1.89,1.17-3.71-1-5.19-1-.71-16.75.37-16.75.37Z" style="fill: rgb(183, 136, 118); transform-origin: 348.946px 374.482px;" id="elub6uxvx24b" class="animable"></path><path d="M335.19,390.71s-.13,0-.37-.07a3.72,3.72,0,0,1-1-.47,5.52,5.52,0,0,1-2.11-3.25,12,12,0,0,1,.35-5.75c.13-.52.26-1.05.39-1.6a1.7,1.7,0,0,0-.12-1.47,9.94,9.94,0,0,0-1.21-1.24,5,5,0,0,1-1-1.63,5.13,5.13,0,0,1,0-3.72,4.77,4.77,0,0,0,.54-3.12,22.76,22.76,0,0,0-1.26-2.74,8.29,8.29,0,0,1,0-6.47,6.89,6.89,0,0,1,.51-.93c.14-.2.22-.3.24-.29s-.24.45-.56,1.29a8.59,8.59,0,0,0-.49,3.73,7.75,7.75,0,0,0,.66,2.49,21.46,21.46,0,0,1,1.32,2.79,3.38,3.38,0,0,1,0,1.76,17,17,0,0,1-.55,1.66,4.59,4.59,0,0,0,0,3.36,4.42,4.42,0,0,0,.92,1.46,10.07,10.07,0,0,1,1.26,1.33,1.84,1.84,0,0,1,.3.95,3.28,3.28,0,0,1-.12.91c-.14.54-.28,1.08-.41,1.6a11.91,11.91,0,0,0-.46,5.55A5.5,5.5,0,0,0,334,390,8.67,8.67,0,0,0,335.19,390.71Z" style="fill: rgb(153, 80, 55); transform-origin: 331.966px 374.335px;" id="ellibdt3bay8k" class="animable"></path><path d="M370.92,385a3,3,0,0,1-.91.27,14.79,14.79,0,0,1-2.56.24,75.61,75.61,0,0,1-8.41-.69,37.77,37.77,0,0,0-8.36.25c-2.14.25-3.46.46-3.47.39a2.66,2.66,0,0,1,.9-.27c.59-.14,1.45-.31,2.52-.48a31.75,31.75,0,0,1,8.45-.41c3.29.34,6.23.82,8.37.84S370.9,384.94,370.92,385Z" style="fill: rgb(153, 80, 55); transform-origin: 359.065px 384.847px;" id="el9h32zfc1cz" class="animable"></path><path d="M355.79,362.17c0,.17-3.43.81-7.5,2.19s-7.19,3-7.27,2.87a9.15,9.15,0,0,1,2-1.18,40.09,40.09,0,0,1,5.12-2.19,41.1,41.1,0,0,1,5.38-1.41A8.83,8.83,0,0,1,355.79,362.17Z" style="fill: rgb(153, 80, 55); transform-origin: 348.405px 364.704px;" id="elxoigekt8efr" class="animable"></path><path d="M346.9,351.65a8.08,8.08,0,0,1-2.52,1.5,8.37,8.37,0,0,1-2.76,1,16.64,16.64,0,0,1,5.28-2.53Z" style="fill: rgb(153, 80, 55); transform-origin: 344.26px 352.885px;" id="el2a8qrijrdh7" class="animable"></path><path d="M381.39,350.88s15.86,8.35,16.31,10.62a45.72,45.72,0,0,1,.52,6.89l-.63,12.54-9.83,26.56s-8.16.84-11.71-1S370.4,400,370.4,400L366,392.85l5.39-6.11-8.95-10.62s7.74-3.76,13-1.46a35,35,0,0,1,9.41,6.52l-1.67-7.57-10.06-6.38-4.6-3.3a7.07,7.07,0,0,1-2.82-7.49,3.76,3.76,0,0,1,1.38-2.28C369.36,352.7,388,364,388,364h0s-7.34-6.7-7.94-9.08S380.25,350.16,381.39,350.88Z" style="fill: rgb(183, 136, 118); transform-origin: 380.33px 379.215px;" id="eltwijt1e1snn" class="animable"></path><path d="M398,399.17a12.34,12.34,0,0,1-.45-2.69c-.19-1.67-.36-4-.39-6.56s.08-4.89.23-6.57a12.65,12.65,0,0,1,.38-2.7,15.77,15.77,0,0,1,0,2.72c-.06,1.68-.11,4-.08,6.54s.14,4.87.24,6.54A17.57,17.57,0,0,1,398,399.17Z" style="fill: rgb(153, 80, 55); transform-origin: 397.589px 389.91px;" id="eljkugr7s8v7a" class="animable"></path><path d="M370.45,385.07a4.37,4.37,0,0,1,.3,1.67,6.88,6.88,0,0,1-.12,1.86,4.62,4.62,0,0,1-1.08,2.06,6.65,6.65,0,0,1-3.62,1.95,3.82,3.82,0,0,1-1.69.13,8.36,8.36,0,0,1,1.6-.49,7.12,7.12,0,0,0,3.32-1.94,5.18,5.18,0,0,0,1.22-3.57A7.35,7.35,0,0,1,370.45,385.07Z" style="fill: rgb(153, 80, 55); transform-origin: 367.504px 388.926px;" id="ele1pzvitye6c" class="animable"></path><path d="M394.58,376.74a21,21,0,0,1-.3-2.57,34.29,34.29,0,0,0-1.22-6.05,4.63,4.63,0,0,0-2.05-2.45,19.64,19.64,0,0,0-2.47-1.24,8.43,8.43,0,0,1-1.68-.94.6.6,0,0,1-.21-.53c.05-.14.15-.14.15-.13s-.05.06,0,.15a.5.5,0,0,0,.24.36,12.47,12.47,0,0,0,1.69.75,16.31,16.31,0,0,1,2.58,1.17,5,5,0,0,1,2.28,2.69,26.94,26.94,0,0,1,1.1,6.19A8.82,8.82,0,0,1,394.58,376.74Z" style="fill: rgb(153, 80, 55); transform-origin: 390.693px 369.783px;" id="el4ah9ll8yyvu" class="animable"></path><path d="M365.68,356.44c.06,0-.05.47-.06,1.31a6.81,6.81,0,0,0,.83,3.39,10.18,10.18,0,0,0,3.7,3.65l5.49,3.58,7.64,5.06.08.06v.09a33.09,33.09,0,0,0,1.14,5.43,10.34,10.34,0,0,1,.49,2.05,17,17,0,0,1-.73-2,27.41,27.41,0,0,1-1.33-5.44l.1.16-7.69-5-5.47-3.62a10.24,10.24,0,0,1-3.76-3.87,6.68,6.68,0,0,1-.7-3.57,6.05,6.05,0,0,1,.15-1C365.63,356.55,365.66,356.43,365.68,356.44Z" style="fill: rgb(153, 80, 55); transform-origin: 375.189px 368.75px;" id="elp2i0de9rbt" class="animable"></path><path d="M389.25,389.09a5.13,5.13,0,0,0,.44-.71,2.59,2.59,0,0,0-.17-2.14,10.55,10.55,0,0,0-2.25-2.54c-1-.89-2-1.84-3.19-2.8-2.32-1.93-4.55-3.51-6.19-4.62a29.14,29.14,0,0,1-2.64-1.81,14.73,14.73,0,0,1,2.84,1.5,53.27,53.27,0,0,1,6.32,4.53c1.17,1,2.24,1.94,3.19,2.86a10.27,10.27,0,0,1,2.26,2.72,2.7,2.7,0,0,1,0,2.39C389.58,389,389.25,389.11,389.25,389.09Z" style="fill: rgb(153, 80, 55); transform-origin: 382.694px 381.781px;" id="el97mb4fsii1w" class="animable"></path><path d="M368.65,385.5a3,3,0,0,1,.79-.27,8.47,8.47,0,0,0,2.05-.82,2.94,2.94,0,0,0,1.52-2.57,10,10,0,0,0-.19-1.91,4.75,4.75,0,0,0-.59-1.91,2.62,2.62,0,0,0-1.58-1,19.27,19.27,0,0,0-1.91-.35c-1.24-.19-2.37-.31-3.31-.38a30.64,30.64,0,0,1-3.08-.25,13,13,0,0,1,3.1-.12c1,0,2.09.11,3.35.27a17.13,17.13,0,0,1,2,.34,3.15,3.15,0,0,1,1.89,1.24,5.43,5.43,0,0,1,.66,2.12,10.61,10.61,0,0,1,.16,2,3.32,3.32,0,0,1-.58,1.8,3.44,3.44,0,0,1-1.24,1.07,7.39,7.39,0,0,1-2.18.7A2.44,2.44,0,0,1,368.65,385.5Z" style="fill: rgb(153, 80, 55); transform-origin: 367.931px 380.699px;" id="elnj2cn8kq27" class="animable"></path><path d="M378.66,394.42a22,22,0,0,1-4.68-4,22.36,22.36,0,0,1-2.74-3.4,4.75,4.75,0,0,1-.79-1.63c.08,0,.43.55,1.09,1.42a39.39,39.39,0,0,0,2.82,3.26C376.69,392.5,378.76,394.3,378.66,394.42Z" style="fill: rgb(153, 80, 55); transform-origin: 374.557px 389.905px;" id="elxyp0v6umn6" class="animable"></path></g><g id="freepik--character-1--inject-67" class="animable" style="transform-origin: 175.452px 329.131px;"><path d="M188.1,191.17c-8.51-7.67-19.36-1.08-25.16,3.34s-8.44,10.76-9.88,17-1.9,12.66-4.27,18.72c-2.87,7.34-8.5,14-9.79,21.65-1.37,8.07,2.25,16.59-.7,24.37-1.71,4.51-5.47,8.32-8.6,12.32S124,297.2,125,301.88c1.45,6.87,10,11.57,18.45,14.19,6.89,2.15,14.33,3.49,21.63,2.89s14.45-3.3,18.48-8c3.46-4,4.38-9,4.53-13.87.49-15.7-6-31.11-8.85-46.72-3.44-19.05,1.37-41.11,8.89-59.23" style="fill: rgb(38, 50, 56); transform-origin: 156.455px 253.374px;" id="el7g8irklse3l" class="animable"></path><path d="M137.78,314.52a1.84,1.84,0,0,1-.18-.3c-.11-.2-.3-.49-.49-.9a11.93,11.93,0,0,1-1-3.79,19.17,19.17,0,0,1,.55-6.18,52.38,52.38,0,0,1,2.65-7.78,236.62,236.62,0,0,0,13.54-45.38,235.64,235.64,0,0,0,3.48-25.87c.31-4,.58-7.83,1.17-11.37a37.19,37.19,0,0,1,2.78-9.56,24.58,24.58,0,0,1,4.69-6.75,18.63,18.63,0,0,1,5-3.63,15.28,15.28,0,0,1,3.73-1.21c.44-.07.78-.1,1-.13a1.84,1.84,0,0,1,.35,0l-.34.08-1,.17a16.09,16.09,0,0,0-3.66,1.29,19.12,19.12,0,0,0-4.92,3.65,24.3,24.3,0,0,0-4.56,6.7,37.25,37.25,0,0,0-2.69,9.48c-.57,3.52-.82,7.33-1.12,11.34a226.9,226.9,0,0,1-3.45,25.93,228.71,228.71,0,0,1-13.71,45.42,55.44,55.44,0,0,0-2.71,7.71,19.51,19.51,0,0,0-.63,6.09A13.08,13.08,0,0,0,137.78,314.52Z" style="fill: rgb(69, 90, 100); transform-origin: 155.554px 253.091px;" id="eloh9xo4dvzhs" class="animable"></path><polygon points="138.03 292.63 173.93 291.11 222.37 307.44 253.48 320.2 215.18 455.43 221.02 474.33 111.27 474.33 116.21 371.76 138.03 292.63" style="fill: rgb(3, 169, 241); transform-origin: 182.375px 382.72px;" id="el8umgo47867m" class="animable"></polygon><g id="el3ncvpsmmidn"><g style="opacity: 0.3; transform-origin: 162.303px 416.243px;" class="animable"><path d="M212.38,456.58q-5.07-34.26-10.13-68.52c-.62-4.2-1.39-8.71-4.43-11.67-2.88-2.82-7.15-3.57-11.16-4.07-9-1.1-18.6-1.42-26.54,2.93-6.72,3.68-11.32,10.23-15.52,16.65-12.7,19.43-20.64,27.94-30.86,48.78l-1.65,16.47c10.35-3.18,20.23-13.32,26-22.45S148,415.43,153.37,406c3.69-6.46,8.37-12.86,15.22-15.75,3.87-1.64,8.93-1.76,11.68,1.4a12.52,12.52,0,0,1,2.28,4.93c3.08,10.92,4,22.34,6.65,33.37s7.43,22.12,16.37,29.11a7.75,7.75,0,0,0,3.33,1.74,3.15,3.15,0,0,0,3.29-1.35A4.79,4.79,0,0,0,212.38,456.58Z" id="elsf6cla7a4m" class="animable" style="transform-origin: 162.303px 416.243px;"></path></g></g><path d="M93.29,344.05c0-1,15.83-51.42,44.74-51.42L129.16,353Z" style="fill: rgb(3, 169, 241); transform-origin: 115.66px 322.815px;" id="elzq0muearm4e" class="animable"></path><path d="M253.48,320.2s9,7.7,10.37,14.15,2.95,38.08,2.95,38.08L231.67,370Z" style="fill: rgb(3, 169, 241); transform-origin: 249.235px 346.315px;" id="el4rztmkusnir" class="animable"></path><path d="M132.32,319a3.07,3.07,0,0,1,0,.67l-.24,1.89c-.21,1.64-.57,4-1.05,6.94-1,5.85-2.51,13.89-4.33,22.74s-3.42,16.88-4.47,22.7c-.5,2.87-.92,5.21-1.21,6.91l-.34,1.88a3.2,3.2,0,0,1-.15.65,3,3,0,0,1,0-.67c.06-.49.14-1.11.24-1.89.21-1.65.57-4,1-6.94,1-5.85,2.51-13.89,4.32-22.75s3.43-16.87,4.47-22.7c.51-2.86.92-5.21,1.22-6.9.14-.77.25-1.4.34-1.88A3,3,0,0,1,132.32,319Z" style="fill: rgb(38, 50, 56); transform-origin: 126.425px 351.19px;" id="elgtvvkknm2u8" class="animable"></path><path d="M240.41,342.35a7.44,7.44,0,0,1-.12,1.45c-.11.94-.3,2.28-.55,3.94-.51,3.32-1.34,7.89-2.31,12.92s-1.84,9.49-2.5,12.88c-.3,1.58-.54,2.89-.74,3.91a7.35,7.35,0,0,1-.33,1.42,8.25,8.25,0,0,1,.13-1.46c.12-.93.32-2.27.58-3.93.53-3.32,1.37-7.89,2.35-12.92s1.81-9.49,2.45-12.88c.29-1.58.54-2.89.72-3.91A9.32,9.32,0,0,1,240.41,342.35Z" style="fill: rgb(38, 50, 56); transform-origin: 237.135px 360.61px;" id="elrb87q83vm7" class="animable"></path><path d="M254.33,321.64s-.09.1-.28.26l-.88.71a20.63,20.63,0,0,1-3.77,2.17,21.35,21.35,0,0,1-6.66,1.67,20.79,20.79,0,0,1-9-1.22c-3.21-1.19-6.16-3.52-9.5-5.59a19,19,0,0,0-5.53-2.43,16.77,16.77,0,0,0-6.37-.18c-4.38.64-8.68,2.57-13.33,4a30.77,30.77,0,0,1-28.54-5.34,60.84,60.84,0,0,1-5.13-5,20.41,20.41,0,0,0-5.29-4.15,15,15,0,0,0-6.18-1.48,27.94,27.94,0,0,0-6.05.51c-3.87.75-7.38,1.93-10.7,2.6a23.21,23.21,0,0,1-9.08.36,14.3,14.3,0,0,1-6.24-2.82,9.57,9.57,0,0,1-2.71-3.39,7.17,7.17,0,0,1-.41-1.05c-.07-.24-.1-.37-.1-.37a2.76,2.76,0,0,1,.16.35,6.87,6.87,0,0,0,.44,1,9.84,9.84,0,0,0,2.74,3.27,14.2,14.2,0,0,0,6.18,2.69,22.89,22.89,0,0,0,8.95-.43c3.28-.69,6.78-1.89,10.69-2.66a27.45,27.45,0,0,1,6.15-.55,15.53,15.53,0,0,1,6.38,1.51,20.62,20.62,0,0,1,5.43,4.24,61,61,0,0,0,5.09,4.94,30.3,30.3,0,0,0,28.07,5.25c4.61-1.39,8.94-3.33,13.41-4a17.12,17.12,0,0,1,6.55.2,19.66,19.66,0,0,1,5.65,2.51c3.36,2.11,6.26,4.43,9.4,5.62a20.73,20.73,0,0,0,8.85,1.27,21.63,21.63,0,0,0,6.61-1.56,22.57,22.57,0,0,0,3.79-2.07l.9-.67Z" style="fill: rgb(250, 250, 250); transform-origin: 186.455px 313.713px;" id="elnpxin21db7" class="animable"></path><path d="M126.87,340.6s-.11.06-.33.11a4.82,4.82,0,0,1-1,.16,8.37,8.37,0,0,1-3.56-.55,14.06,14.06,0,0,1-4.53-2.82c-1.51-1.34-2.95-3-4.54-4.64a18.28,18.28,0,0,0-5.06-3.84,8.18,8.18,0,0,0-5-.74,6.35,6.35,0,0,0-3.12,1.45c-.62.55-.86,1-.91.93a1.05,1.05,0,0,1,.15-.31,4,4,0,0,1,.62-.77,6.16,6.16,0,0,1,3.19-1.66,8.43,8.43,0,0,1,5.29.66,18.11,18.11,0,0,1,5.23,3.92c1.61,1.65,3,3.32,4.49,4.64a14.26,14.26,0,0,0,4.34,2.84A9.71,9.71,0,0,0,126.87,340.6Z" style="fill: rgb(250, 250, 250); transform-origin: 112.845px 334.321px;" id="eldgn7h182iid" class="animable"></path><path d="M230.81,368.14a17.79,17.79,0,0,1-4.07,1.87,23.37,23.37,0,0,1-12.12.65,22.36,22.36,0,0,1-7.81-3.21,42.72,42.72,0,0,1-7.22-6.47,54.94,54.94,0,0,0-7.76-7.24,18,18,0,0,0-10.63-3.27,43.09,43.09,0,0,0-11.2,2c-3.56,1-7,2.1-10.33,2.78A55.06,55.06,0,0,1,129.75,353c-1.35-.53-2.39-.94-3.07-1.28l-.78-.36c-.18-.09-.27-.13-.26-.14a1,1,0,0,1,.28.09l.8.32c.7.3,1.74.68,3.1,1.18a57,57,0,0,0,11.83,2.72,55,55,0,0,0,17.92-.75c3.32-.69,6.72-1.79,10.29-2.8a43.16,43.16,0,0,1,11.34-2,19.18,19.18,0,0,1,5.81.84,18.2,18.2,0,0,1,5.11,2.53,53.38,53.38,0,0,1,7.81,7.33,43.07,43.07,0,0,0,7.12,6.44,22.18,22.18,0,0,0,7.65,3.21,23.64,23.64,0,0,0,12-.48,24.31,24.31,0,0,0,3.08-1.19l.77-.38A1.09,1.09,0,0,1,230.81,368.14Z" style="fill: rgb(250, 250, 250); transform-origin: 178.225px 360.574px;" id="elmvm7dcs6hs" class="animable"></path><path d="M265.89,349.13s0,.11-.13.29a6.73,6.73,0,0,1-.5.76,9.83,9.83,0,0,1-2.47,2.26,10.38,10.38,0,0,1-4.71,1.62,15.19,15.19,0,0,1-6-1,19.86,19.86,0,0,0-5.79-1.25,11.89,11.89,0,0,0-4.72.9,15.89,15.89,0,0,0-3.8,2.36s0-.1.19-.26a6.61,6.61,0,0,1,.65-.64,10.92,10.92,0,0,1,2.82-1.8,11.76,11.76,0,0,1,4.86-1,19.6,19.6,0,0,1,6,1.24,15.27,15.27,0,0,0,5.81,1,10.23,10.23,0,0,0,4.54-1.45A13.17,13.17,0,0,0,265.89,349.13Z" style="fill: rgb(250, 250, 250); transform-origin: 251.83px 352.1px;" id="elne39z9ree1i" class="animable"></path><path d="M227.6,398.16a1,1,0,0,1-.31,0l-.92-.06a22.15,22.15,0,0,0-3.53.13,29.85,29.85,0,0,0-5.44,1.24c-2.09.65-4.39,1.59-6.93,2.65a65.25,65.25,0,0,1-8.48,3.11,21.83,21.83,0,0,1-10.33.6,16.72,16.72,0,0,1-5.22-2.17c-1.65-1-3.19-2.2-4.8-3.34a24.27,24.27,0,0,0-5.17-3,14.29,14.29,0,0,0-6-.91c-4.17.22-8,1.73-11.65,3.32a59.52,59.52,0,0,1-10.72,4,21.56,21.56,0,0,1-10.35-.24,30.57,30.57,0,0,1-8.27-3.64,45.72,45.72,0,0,1-6-4.47c-1.66-1.44-3-2.76-4.1-3.85s-1.92-1.95-2.48-2.53l-.63-.68c-.14-.15-.21-.23-.2-.24l.24.2.66.64,2.55,2.47a61.81,61.81,0,0,0,10.11,8.15,30.78,30.78,0,0,0,8.19,3.54,21.19,21.19,0,0,0,10.13.18,60.55,60.55,0,0,0,10.63-4c3.61-1.6,7.54-3.15,11.82-3.37a15,15,0,0,1,6.22.94,24.25,24.25,0,0,1,5.27,3c1.62,1.15,3.16,2.34,4.77,3.32a16.07,16.07,0,0,0,5.06,2.13,21.42,21.42,0,0,0,10.12-.55,66.22,66.22,0,0,0,8.45-3c2.55-1,4.87-2,7-2.59a28.88,28.88,0,0,1,5.51-1.16A15.48,15.48,0,0,1,227.6,398.16Z" style="fill: rgb(250, 250, 250); transform-origin: 171.835px 397.134px;" id="el9yk5d9q9mxj" class="animable"></path><path d="M216.07,447.37a15.46,15.46,0,0,0-3.26-3.2A14.56,14.56,0,0,0,208,442a14.83,14.83,0,0,0-7-.09,14.49,14.49,0,0,0-7.23,4.38c-1.1,1.09-2.19,2.29-3.41,3.44a14.62,14.62,0,0,1-4.26,3,9.5,9.5,0,0,1-5.42.58,14.94,14.94,0,0,1-5.27-2.13c-3.34-2-5.94-5.11-8.86-7.86a24.48,24.48,0,0,0-4.7-3.62,14.3,14.3,0,0,0-5.4-1.79,23.9,23.9,0,0,0-10.7,1.52c-3.28,1.17-6.26,2.69-9.11,4a44.73,44.73,0,0,1-8.18,3A18,18,0,0,1,116,445.24a11.21,11.21,0,0,1-2.78-2,8.54,8.54,0,0,1-.6-.66,2.71,2.71,0,0,1-.19-.24,13.36,13.36,0,0,0,3.66,2.73,18,18,0,0,0,12.19.9,44.11,44.11,0,0,0,8.09-3c2.83-1.29,5.81-2.83,9.13-4a24.31,24.31,0,0,1,10.93-1.57,14.8,14.8,0,0,1,5.59,1.84,25.36,25.36,0,0,1,4.8,3.69c3,2.79,5.52,5.84,8.77,7.81a14.63,14.63,0,0,0,5.09,2.07,8.93,8.93,0,0,0,5.15-.54,14.2,14.2,0,0,0,4.13-2.84c1.21-1.13,2.3-2.32,3.42-3.42a14.83,14.83,0,0,1,7.45-4.43,15,15,0,0,1,7.17.17,14.38,14.38,0,0,1,4.89,2.33,5.73,5.73,0,0,1,.83.66c.24.22.49.42.69.62.38.44.73.78,1,1.09l.51.74A1.48,1.48,0,0,1,216.07,447.37Z" style="fill: rgb(250, 250, 250); transform-origin: 164.25px 445.39px;" id="elcq2hio6n32a" class="animable"></path><g id="el7zamrxnq6es"><g style="opacity: 0.3; transform-origin: 212.525px 317.708px;" class="animable"><path d="M242.4,313.64a10.12,10.12,0,0,0-3.87-3c-13.13-7.09-29-15.66-43.72-17.83-3.89,11.15-6.28,24-11.88,34.33-.75,1.39-1.56,2.92-1.24,4.47.37,1.78,2.1,2.9,3.74,3.69a34.51,34.51,0,0,0,25.83,1.51l.12,4.79a25,25,0,0,0,32-23A8.4,8.4,0,0,0,242.4,313.64Z" id="elrb3w5v1wl2j" class="animable" style="transform-origin: 212.525px 317.708px;"></path></g></g><path d="M222.21,202.75a7.34,7.34,0,0,1,6.17,7.75h0l-9.18,98.6c-.75,11.67-18.13,17.39-30.61,16.49h0c-12.6-.9-12.71-7.11-12.32-18.22.63-18.56,1-25.53,1-25.42s-15.8-3.46-18.05-24.43c-1.12-10.43.27-27.36,1.85-41.18C162.47,203.9,171.51,189,183.88,191Z" style="fill: rgb(255, 190, 157); transform-origin: 193.606px 258.25px;" id="el25p6rn5u4rk" class="animable"></path><path d="M169.44,232a2.68,2.68,0,0,0,2.44,2.82,2.56,2.56,0,0,0,2.87-2.27,2.67,2.67,0,0,0-2.43-2.82A2.56,2.56,0,0,0,169.44,232Z" style="fill: rgb(38, 50, 56); transform-origin: 172.095px 232.274px;" id="eli5fwm41o9" class="animable"></path><path d="M164.24,226.09c.31.37,2.41-1,5.28-.87s4.9,1.69,5.23,1.36c.16-.15-.14-.8-1-1.51a7.29,7.29,0,0,0-4.16-1.52,7.06,7.06,0,0,0-4.23,1.13C164.42,225.31,164.09,225.93,164.24,226.09Z" style="fill: rgb(38, 50, 56); transform-origin: 169.498px 225.083px;" id="el29qklp3vsn6" class="animable"></path><path d="M196.71,234.52a2.68,2.68,0,0,0,2.44,2.82,2.56,2.56,0,0,0,2.87-2.27,2.67,2.67,0,0,0-2.43-2.82A2.56,2.56,0,0,0,196.71,234.52Z" style="fill: rgb(38, 50, 56); transform-origin: 199.365px 234.794px;" id="elqz40qknd8ed" class="animable"></path><path d="M192.68,228.21c.31.36,2.41-1,5.28-.88s4.9,1.7,5.23,1.36c.16-.15-.14-.79-1-1.5a7.29,7.29,0,0,0-4.16-1.53,7.06,7.06,0,0,0-4.23,1.14C192.86,227.43,192.53,228,192.68,228.21Z" style="fill: rgb(38, 50, 56); transform-origin: 197.938px 227.194px;" id="el3wn7xblasjk" class="animable"></path><path d="M181,248.08c0-.16-1.74-.56-4.62-1.08-.72-.11-1.41-.29-1.51-.8a3.78,3.78,0,0,1,.6-2.15q1.17-2.61,2.45-5.47c3.42-7.79,5.93-14.22,5.61-14.35s-3.33,6.07-6.75,13.87l-2.36,5.51a4.21,4.21,0,0,0-.53,2.85A1.86,1.86,0,0,0,175,247.6a5.4,5.4,0,0,0,1.24.23C179.14,248.14,181,248.24,181,248.08Z" style="fill: rgb(38, 50, 56); transform-origin: 178.694px 236.192px;" id="elav4ehvy18xk" class="animable"></path><path d="M177.25,282a53,53,0,0,0,28.24-6s-7.78,14.33-28.5,11.32Z" style="fill: rgb(235, 153, 110); transform-origin: 191.24px 281.868px;" id="el34m99n5fvgx" class="animable"></path><path d="M181.83,255.06a5.19,5.19,0,0,1,4.73-1.69,4.74,4.74,0,0,1,3.17,1.92,3,3,0,0,1,.06,3.43,3.48,3.48,0,0,1-3.82.76,10.89,10.89,0,0,1-3.55-2.37,3.29,3.29,0,0,1-.78-.89,1,1,0,0,1,.06-1.07" style="fill: rgb(235, 153, 110); transform-origin: 185.906px 256.527px;" id="el08m42967c57f" class="animable"></path><path d="M189.31,250.5c-.46-.06-.63,3.06-3.41,5.14s-6.08,1.56-6.12,2c-.06.2.71.65,2.11.76a7.81,7.81,0,0,0,5.1-1.5,6.72,6.72,0,0,0,2.66-4.32C189.83,251.28,189.53,250.49,189.31,250.5Z" style="fill: rgb(38, 50, 56); transform-origin: 184.741px 254.457px;" id="ellpnh9v985dq" class="animable"></path><path d="M191.49,216.81c.33.76,3.17.23,6.56.44s6.17,1,6.57.24c.18-.34-.33-1.05-1.47-1.74a11.4,11.4,0,0,0-10-.52C191.93,215.8,191.35,216.45,191.49,216.81Z" style="fill: rgb(38, 50, 56); transform-origin: 198.062px 216.066px;" id="eljzjpllvt1sp" class="animable"></path><path d="M164.61,222.43c.43.72,2.56.33,5,.65s4.47,1.07,5,.46c.26-.29,0-1-.8-1.73a7.26,7.26,0,0,0-3.93-1.63,7.17,7.17,0,0,0-4.18.73C164.8,221.45,164.42,222.08,164.61,222.43Z" style="fill: rgb(38, 50, 56); transform-origin: 169.635px 221.947px;" id="elr3ohy2f827" class="animable"></path><path d="M219.54,242.05c.43-4.42,5.4-7.14,9.13-4.73,2,1.32,3.54,3.84,3.11,8.53-1.12,12.51-13.44,8.8-13.43,8.44S219,247.22,219.54,242.05Z" style="fill: rgb(255, 190, 157); transform-origin: 225.101px 245.75px;" id="ela4bfc97wfxt" class="animable"></path><path d="M222.59,249.9c.06,0,.21.17.56.37a2.13,2.13,0,0,0,1.62.18c1.37-.37,2.67-2.36,2.93-4.61a7.21,7.21,0,0,0-.32-3.18,2.56,2.56,0,0,0-1.49-1.82,1.11,1.11,0,0,0-1.34.49c-.2.33-.14.59-.21.6s-.25-.23-.1-.74a1.38,1.38,0,0,1,.56-.74,1.68,1.68,0,0,1,1.23-.21,3.07,3.07,0,0,1,2.1,2.15,7.25,7.25,0,0,1,.44,3.55c-.3,2.51-1.81,4.75-3.66,5.11a2.33,2.33,0,0,1-2-.51C222.59,250.2,222.55,249.91,222.59,249.9Z" style="fill: rgb(235, 153, 110); transform-origin: 225.602px 245.652px;" id="eleoeacxx244m" class="animable"></path><path d="M245.77,294.87c-1-8.6,2.45-14.13,2.38-22.79-.08-10.61-2.48-22.46-4.54-32.88-2-10.25-5.17-19.18-8.84-29s-13.2-19.59-22.9-24c-8.56-3.88-19.74-2.81-26.33,3.44a11.68,11.68,0,0,1-1.45,0c-14.67-1.25-16.7,9.53-16.7,9.53,9.11-8.51,15.33-1,15.33-1,5.54-5.74,14.76-.78,17.94,4.66,4.48,7.67,4.9,12.24,6.07,16.25,2.94,10.05,12,12.05,11.42,22.51-.67,13.4-8.3,23.73-9.34,37.11a73.67,73.67,0,0,1-1.63,11.67c-1.17,4.1-19.49,35-7.81,37.6a7,7,0,0,0,1.29-.07l13-.71,10.48-6.72-.33,6.87L241,328.5c4.18-3.54,5.37-9.48,4.94-14.88S246.42,300.25,245.77,294.87Z" style="fill: rgb(38, 50, 56); transform-origin: 207.771px 256.216px;" id="el9bl7fbzd6fn" class="animable"></path><path d="M182.18,197.1a2.13,2.13,0,0,1,.18-.44c.14-.28.34-.69.63-1.2a16,16,0,0,1,3-4,7.69,7.69,0,0,1,3-1.75,6.72,6.72,0,0,1,4,.09c2.76.91,5.07,3.19,7,5.73a75.22,75.22,0,0,1,8.39,14.14c.9,1.91,1.59,3.46,2.06,4.54.2.5.38.91.52,1.25s.17.44.15.45a1.66,1.66,0,0,1-.24-.41l-.62-1.2-2.2-4.46a83.23,83.23,0,0,0-8.47-14c-1.93-2.51-4.17-4.72-6.76-5.59a6.27,6.27,0,0,0-3.75-.13,7.43,7.43,0,0,0-2.9,1.61,16.78,16.78,0,0,0-3.11,3.8A17.28,17.28,0,0,1,182.18,197.1Z" style="fill: rgb(69, 90, 100); transform-origin: 196.648px 202.679px;" id="elv1swim34c6h" class="animable"></path><path d="M201.34,204c-.08,0-.68-1.34-1.91-3.41a36.07,36.07,0,0,0-2.39-3.47,18,18,0,0,0-3.64-3.59,5.86,5.86,0,0,0-2.32-1.09,3.81,3.81,0,0,0-2.28.4,12.88,12.88,0,0,0-3.26,2.57,21,21,0,0,1-2.82,2.72,4.83,4.83,0,0,1,.67-.82c.44-.51,1.07-1.26,1.89-2.16a12.54,12.54,0,0,1,3.31-2.74,4.21,4.21,0,0,1,2.58-.47,6.34,6.34,0,0,1,2.53,1.16,17.94,17.94,0,0,1,3.72,3.72,31.43,31.43,0,0,1,2.33,3.59A27.9,27.9,0,0,1,201,203,3.82,3.82,0,0,1,201.34,204Z" style="fill: rgb(69, 90, 100); transform-origin: 192.03px 197.95px;" id="elgqz0kbxtrcu" class="animable"></path><path d="M221.07,320.29a1.24,1.24,0,0,1,.16-.35c.12-.25.29-.58.5-1s.52-1,.84-1.61.66-1.4,1.06-2.23a79.88,79.88,0,0,0,5.1-14.86,101.06,101.06,0,0,0,2.65-23.13,143.43,143.43,0,0,0-3-28.38c-2-10-4.64-19.26-7.18-27.69s-4.71-16.08-7.92-21.91a29.66,29.66,0,0,0-10.4-11.51,21.41,21.41,0,0,0-3.84-1.85c-.45-.18-.82-.27-1-.35a1.76,1.76,0,0,1-.36-.14l.37.08c.24.07.61.15,1.07.31a20.06,20.06,0,0,1,3.92,1.78A29.5,29.5,0,0,1,213.57,199c3.28,5.87,5.45,13.57,8.06,21.95s5.23,17.75,7.23,27.73a141.23,141.23,0,0,1,3,28.48,99.46,99.46,0,0,1-2.77,23.21,77.07,77.07,0,0,1-5.28,14.86l-1.1,2.22-.88,1.59c-.24.4-.42.72-.56,1A2.06,2.06,0,0,1,221.07,320.29Z" style="fill: rgb(69, 90, 100); transform-origin: 214.77px 252.785px;" id="elkb52z5jjcze" class="animable"></path><path d="M224.68,325.7l.24-.31q.26-.33.72-.87l1.18-1.41,1.48-2a53.34,53.34,0,0,0,7.1-14.23A73.59,73.59,0,0,0,239,283.57,121.57,121.57,0,0,0,235,254.91c-2.43-10-5.39-19.38-7.81-28s-4.38-16.41-6.95-22.66a59.84,59.84,0,0,0-4-8.16,41.07,41.07,0,0,0-4-5.57,32.37,32.37,0,0,0-3-3.12l-.83-.77a1.69,1.69,0,0,1-.27-.27,1.85,1.85,0,0,1,.3.23l.87.73a29.32,29.32,0,0,1,3.1,3.06,40.87,40.87,0,0,1,4.08,5.56,59.17,59.17,0,0,1,4.07,8.17c2.62,6.26,4.65,14.08,7.07,22.67s5.42,18,7.86,28,4,19.81,3.91,28.78A72.93,72.93,0,0,1,235.74,307a52,52,0,0,1-7.28,14.23c-.57.75-1.08,1.41-1.52,2l-1.23,1.38-.76.84Z" style="fill: rgb(69, 90, 100); transform-origin: 223.772px 256.03px;" id="elyaebkjbl72" class="animable"></path><path d="M215.61,293.86a10.79,10.79,0,0,1-1.38-3.28,19.7,19.7,0,0,1,.15-9.66,35.25,35.25,0,0,1,2.29-6.32c1-2.2,2.22-4.47,3.47-6.87a57.23,57.23,0,0,0,3.44-7.71,23,23,0,0,0,1.36-8.85,31.15,31.15,0,0,0-2-8.8c-1-2.75-2.19-5.33-3.32-7.79-2.27-4.9-4.32-9.32-6-13.05l-4-8.81-1.07-2.41-.27-.63c-.06-.14-.08-.22-.07-.22a.77.77,0,0,1,.12.2c.09.16.19.36.31.61l1.17,2.36c1,2.11,2.43,5.09,4.18,8.75s3.84,8.11,6.15,13c1.14,2.45,2.34,5,3.36,7.82a31.41,31.41,0,0,1,2,8.94,23.3,23.3,0,0,1-1.4,9.05,56.39,56.39,0,0,1-3.5,7.76c-1.26,2.4-2.49,4.65-3.5,6.83a36.19,36.19,0,0,0-2.33,6.23,19.87,19.87,0,0,0-.3,9.52,16.92,16.92,0,0,0,.81,2.49A6.08,6.08,0,0,1,215.61,293.86Z" style="fill: rgb(69, 90, 100); transform-origin: 216.865px 251.66px;" id="el83awh50l9dd" class="animable"></path><path d="M98.31,345.31s-9.42,39.19-10.72,49.22c-1.72,13.25-5.55,34.26-2.08,42.58s14.86,13.32,21.8,11.59,48.91-61.65,48.91-63.08h0l-13.53-15.26-22.55,15.26,5.92-33.38Z" style="fill: rgb(255, 190, 157); transform-origin: 120.162px 397.176px;" id="el89v76rqgy7i" class="animable"></path><rect x="161.07" y="307.2" width="35.26" height="67.19" rx="3.54" style="fill: rgb(69, 90, 100); transform-origin: 178.7px 340.795px;" id="elq8cpj6jl64c" class="animable"></rect><path d="M184,346c-2.6-.44-7.69.44-7.69.44L158.29,349l5.41-6.69s14.76-2.64,17.85-3.52a1.82,1.82,0,0,0,1.43-2.15,3.14,3.14,0,0,0-3.22-2.69l-20.24.43-13.88,12.12v17.84l-4,6.77L155.5,386s9.53-5.15,10.41-7.13a7.75,7.75,0,0,0,.66-3.74l11.8-4a3.08,3.08,0,0,0,2.1-3.18l0-.33-15-1.11,16.33-2.82a2.11,2.11,0,0,0-.16-4.18l-19-1.81,15.8-5.3a63.55,63.55,0,0,0,7.76-2.85C187.62,348.81,186.93,346.53,184,346Z" style="fill: rgb(255, 190, 157); transform-origin: 164.276px 359.974px;" id="elfalrmalyowv" class="animable"></path><path d="M123,383.67a6.8,6.8,0,0,1-1,.85c-.68.52-1.69,1.25-2.94,2.15-2.49,1.79-6,4.19-9.62,7.12-1.82,1.48-3.47,3-4.9,4.39a42.2,42.2,0,0,0-3.52,4c-1.85,2.44-2.71,4.14-2.8,4.09a5.77,5.77,0,0,1,.56-1.21,13.48,13.48,0,0,1,.79-1.36,20.65,20.65,0,0,1,1.15-1.74,37,37,0,0,1,3.48-4.15,59.41,59.41,0,0,1,4.91-4.46c3.66-2.95,7.2-5.31,9.74-7l3-2A6.19,6.19,0,0,1,123,383.67Z" style="fill: rgb(235, 153, 110); transform-origin: 110.61px 394.971px;" id="el9n9pj16fccb" class="animable"></path><path d="M180.55,315.25a1.62,1.62,0,1,1-1.62-1.62A1.62,1.62,0,0,1,180.55,315.25Z" style="fill: rgb(224, 224, 224); transform-origin: 178.93px 315.25px;" id="elkul3hzu1f6" class="animable"></path><path d="M213.33,349.16l-8.94-13.73s-20.26-6.7-22.82-6.22c-1.94.36-2.22,3.16-2.24,4.47,0,.41,0,.67,0,.67l2.61,1.76,11.91,2.19,7,4.79-4.78-2.24-14-2.17a4.9,4.9,0,0,0-5,2.2c-.22.37,0,.52-.07.9-.17,1.79,5.66,3.53,5.66,3.53l10.51,3.11,3.68,6.8-12.92-4s-7.94,2.63-8.46,3.66,5.41,3.63,5.89,3.65S191.47,363,191.47,363l-9.48.39-10.2,1.9,4.19,2,8,1,6.86,3.35-.32,6.22s3,6.39,5.82,8,14.29-14,14.29-14l.8-7.5,1.91-7-1-4.28Z" style="fill: rgb(255, 190, 157); transform-origin: 192.565px 357.581px;" id="el1rt38pslm7c" class="animable"></path><path d="M196.33,385.86,211,454.58s4.46,14.47,20.57,14.47c14.79,0,20.21-27.91,20.21-27.91l12.87-68.86-28.83-2.53-7.91,40.76-17.28-38.69Z" style="fill: rgb(255, 190, 157); transform-origin: 230.49px 419.4px;" id="el3qi0wl8e8kd" class="animable"></path><path d="M237.85,449.12a9.23,9.23,0,0,1,.11-1.69c.06-.54.12-1.2.15-2s.12-1.65.1-2.62a56,56,0,0,0-.29-6.79,59.84,59.84,0,0,0-1.51-8.19,59.23,59.23,0,0,0-2.72-7.87,57.19,57.19,0,0,0-3.09-6.06c-.47-.85-1-1.57-1.38-2.22s-.78-1.2-1.1-1.64a9.18,9.18,0,0,1-.93-1.42,9.87,9.87,0,0,1,1.09,1.3,18.14,18.14,0,0,1,1.18,1.6c.44.64,1,1.35,1.46,2.19a51.86,51.86,0,0,1,3.21,6.06,57.68,57.68,0,0,1,2.79,7.93,55.16,55.16,0,0,1,1.47,8.27,49.88,49.88,0,0,1,.19,6.85c0,1-.12,1.86-.18,2.63s-.15,1.43-.24,2A12.46,12.46,0,0,1,237.85,449.12Z" style="fill: rgb(235, 153, 110); transform-origin: 232.906px 428.87px;" id="elk9v4yvyett9" class="animable"></path><path d="M266.8,372.43a3,3,0,0,1-.1-.64q-.07-.72-.18-1.86c-.14-1.68-.33-4-.57-6.84-.48-5.77-1.08-13.76-1.88-22.56-.26-2.62-.46-5.19-.87-7.58a14.45,14.45,0,0,0-3.38-5.88,53.13,53.13,0,0,0-8.08-7.42l0,0-4.3-1.84-1.14-.51a2.5,2.5,0,0,1-.38-.2s.15,0,.42.12l1.16.43,4.36,1.71h0a50.13,50.13,0,0,1,8.25,7.37,14.68,14.68,0,0,1,3.52,6.09c.43,2.44.63,5,.89,7.62.8,8.81,1.35,16.8,1.73,22.58.17,2.85.31,5.17.41,6.86l.08,1.86A3.55,3.55,0,0,1,266.8,372.43Z" style="fill: rgb(38, 50, 56); transform-origin: 256.36px 344.765px;" id="eld0m35ic93nq" class="animable"></path></g><g id="freepik--Plant--inject-67" class="animable" style="transform-origin: 64.4349px 406.872px;"><polygon points="35.85 430.03 42.58 474.26 81.68 474.26 90.76 430.67 35.85 430.03" style="fill: rgb(3, 169, 241); transform-origin: 63.305px 452.145px;" id="el0g1yfgb3spnl" class="animable"></polygon><path d="M85.29,458.38c0,.13-10,.23-22.38.23s-22.38-.1-22.38-.23,10-.23,22.38-.23S85.29,458.25,85.29,458.38Z" style="fill: rgb(250, 250, 250); transform-origin: 62.91px 458.38px;" id="elvrv6rqnhygj" class="animable"></path><path d="M85.44,456.2c0,.13-10.09.23-22.53.23s-22.53-.1-22.53-.23S50.47,456,62.91,456,85.44,456.08,85.44,456.2Z" style="fill: rgb(250, 250, 250); transform-origin: 62.91px 456.215px;" id="elk9i8twane68" class="animable"></path><path d="M85.36,453.75c0,.12-10.08.23-22.53.23s-22.53-.11-22.53-.23,10.09-.23,22.53-.23S85.36,453.62,85.36,453.75Z" style="fill: rgb(250, 250, 250); transform-origin: 62.83px 453.75px;" id="el6je75ny2khm" class="animable"></path><path d="M47.07,471.74a35.1,35.1,0,0,1-1.2-5.57,36.13,36.13,0,0,1-.75-5.65,35.1,35.1,0,0,1,1.2,5.57A36.13,36.13,0,0,1,47.07,471.74Z" style="fill: rgb(250, 250, 250); transform-origin: 46.095px 466.13px;" id="elh22lk8ti5tp" class="animable"></path><path d="M49.73,471.27a43.36,43.36,0,0,1-.49-5.43,42.83,42.83,0,0,1-.25-5.45,43.73,43.73,0,0,1,.74,10.88Z" style="fill: rgb(250, 250, 250); transform-origin: 49.3922px 465.83px;" id="el6cpxf799kd9" class="animable"></path><path d="M54.58,471.27A44.23,44.23,0,0,1,53.26,460a49.41,49.41,0,0,1,.76,5.6A48.49,48.49,0,0,1,54.58,471.27Z" style="fill: rgb(250, 250, 250); transform-origin: 53.9184px 465.635px;" id="elxxuc4q3if6g" class="animable"></path><path d="M58,471.5a28.08,28.08,0,0,1-.54-5.66,28.46,28.46,0,0,1,.17-5.68,49.61,49.61,0,0,1,.29,5.67A47.88,47.88,0,0,1,58,471.5Z" style="fill: rgb(250, 250, 250); transform-origin: 57.7195px 465.83px;" id="elaodnkr91jln" class="animable"></path><path d="M64,471.27a30.78,30.78,0,0,1-.42-5.37,31.21,31.21,0,0,1,0-5.39,31.28,31.28,0,0,1,.41,5.37A33.25,33.25,0,0,1,64,471.27Z" style="fill: rgb(250, 250, 250); transform-origin: 63.7839px 465.89px;" id="elymu472rbz5o" class="animable"></path><path d="M68.41,471.5a65.77,65.77,0,0,1,.09-11.11,68.68,68.68,0,0,1-.09,11.11Z" style="fill: rgb(250, 250, 250); transform-origin: 68.4501px 465.945px;" id="el6c2yb1v0r5b" class="animable"></path><path d="M72.53,470.91a38.59,38.59,0,0,1,.34-5.81,36.54,36.54,0,0,1,.79-5.76,38.59,38.59,0,0,1-.34,5.81A36.54,36.54,0,0,1,72.53,470.91Z" style="fill: rgb(250, 250, 250); transform-origin: 73.095px 465.125px;" id="el3h3pmbb6xlg" class="animable"></path><path d="M77.85,470.33a30.61,30.61,0,0,1,2.11-9.7,41.73,41.73,0,0,1-1,4.86A44.68,44.68,0,0,1,77.85,470.33Z" style="fill: rgb(250, 250, 250); transform-origin: 78.905px 465.48px;" id="elfplbm1z9c5" class="animable"></path><path d="M74.09,342.76a1.79,1.79,0,0,1,0,.21l-.18.63L73.11,346c-.33,1-.73,2.29-1.15,3.78s-.94,3.16-1.41,5-1,3.93-1.52,6.16-1,4.61-1.51,7.12c-.93,5.05-1.79,10.62-2.39,16.51s-.84,11.53-.92,16.66c0,2.56,0,5,.07,7.28s.16,4.4.28,6.34.27,3.68.39,5.22.25,2.86.37,3.94.2,1.88.26,2.48c0,.27,0,.48.06.65s0,.22,0,.22,0-.07,0-.21-.06-.38-.1-.64c-.08-.61-.2-1.44-.34-2.48s-.32-2.4-.46-3.94-.35-3.28-.45-5.22-.28-4.06-.34-6.35-.1-4.73-.11-7.3c.05-5.14.31-10.79.88-16.7s1.48-11.49,2.44-16.54c.52-2.51,1-4.91,1.55-7.13s1.06-4.28,1.58-6.15,1-3.56,1.48-5,.86-2.75,1.22-3.77l.83-2.36L74,343C74.05,342.82,74.08,342.75,74.09,342.76Z" style="fill: rgb(69, 90, 100); transform-origin: 68.9665px 385.06px;" id="elens0w5mj2v6" class="animable"></path><path d="M67,370.14a14.5,14.5,0,0,1,6.08-7.68,3.51,3.51,0,0,1,3.21-.59c1.37.66,1.48,2.58,1.07,4a10.68,10.68,0,0,1-4.42,6,9,9,0,0,1-6.65,1.68" style="fill: rgb(69, 90, 100); transform-origin: 71.9298px 367.677px;" id="elemiyxd85md" class="animable"></path><path d="M64.65,388.64c1-3.82,4.06-9.25,7.22-11.61a4.83,4.83,0,0,1,1.64-.88,1.94,1.94,0,0,1,1.76.38,2.72,2.72,0,0,1,.39,2.54,15.38,15.38,0,0,1-11.41,11.48" style="fill: rgb(69, 90, 100); transform-origin: 70.0327px 383.315px;" id="el9gzhoirmdaj" class="animable"></path><path d="M64,404.92a22.28,22.28,0,0,1,7.28-9.16,3.49,3.49,0,0,1,2.54-.91c1.38.25,2,1.94,1.89,3.34-.25,2.88-2.45,5.19-4.72,7a29.63,29.63,0,0,1-6.74,3.46" style="fill: rgb(69, 90, 100); transform-origin: 69.8612px 401.748px;" id="elqzmtkx3n9f" class="animable"></path><path d="M64.37,416.62a21.45,21.45,0,0,1,6.19-7.06,4.52,4.52,0,0,1,1.86-.83,1.9,1.9,0,0,1,1.82.69c.63.92,0,2.15-.63,3a17.74,17.74,0,0,1-8.84,6.49" style="fill: rgb(69, 90, 100); transform-origin: 69.4355px 413.805px;" id="elvle0kqte7em" class="animable"></path><path d="M64.06,411.86a69.28,69.28,0,0,0-8.86-9,2,2,0,0,0-1.77-.67,1.34,1.34,0,0,0-.81,1.19,3.34,3.34,0,0,0,.34,1.48,17.19,17.19,0,0,0,11.41,9.6" style="fill: rgb(69, 90, 100); transform-origin: 58.495px 408.316px;" id="elib3v0bffmd" class="animable"></path><path d="M64.34,396.64l-7-8.49A8.22,8.22,0,0,0,55.12,386a2.52,2.52,0,0,0-3.92,2.76,7.41,7.41,0,0,0,1.36,2.79A20.83,20.83,0,0,0,57.63,397c2,1.41,3.9,2.32,6.36,2" style="fill: rgb(69, 90, 100); transform-origin: 57.7138px 392.28px;" id="el51zjv88rl84" class="animable"></path><path d="M65.31,379.49a24.28,24.28,0,0,0-7-10.51,4.16,4.16,0,0,0-1.83-1.07,3.07,3.07,0,0,0-3.19,2.24,5.77,5.77,0,0,0,.63,4.61,12.14,12.14,0,0,0,3.28,3.46,27.89,27.89,0,0,0,7.74,4.18" style="fill: rgb(69, 90, 100); transform-origin: 59.1883px 375.151px;" id="ele0bxjph6ow" class="animable"></path><path d="M68.09,364.2c-.67-4.92-3.23-9-6.2-13-.63-.84-1.5-1.73-2.53-1.57a2,2,0,0,0-1.46,1.25,4.64,4.64,0,0,0-.27,2,15.2,15.2,0,0,0,9.86,13.58" style="fill: rgb(69, 90, 100); transform-origin: 62.8516px 358.036px;" id="elemaqc37oftn" class="animable"></path><path d="M70,356.4a41.23,41.23,0,0,1-.26-7.61,13.64,13.64,0,0,1,2.53-7.08,5.86,5.86,0,0,1,2.53-2,3.21,3.21,0,0,1,3.1.41A3.39,3.39,0,0,1,79,342.83a8.63,8.63,0,0,1-.79,2.92c-1.85,4.46-4.94,9.4-8.17,10.65" style="fill: rgb(69, 90, 100); transform-origin: 74.338px 347.942px;" id="el7ukzp7ejab9" class="animable"></path><path d="M39.72,362.26a3.69,3.69,0,0,1,0,.62c0,.46,0,1.05,0,1.79s0,1.72,0,2.82,0,2.35.14,3.74c.12,2.76.38,6,.8,9.69s1.07,7.61,1.93,11.74,1.91,8,3,11.54,2.15,6.61,3.15,9.2c.47,1.3,1,2.45,1.38,3.47s.78,1.89,1.09,2.6l.7,1.65a3.52,3.52,0,0,1,.22.58,2.45,2.45,0,0,1-.3-.54l-.78-1.61c-.34-.7-.74-1.56-1.17-2.58s-.95-2.16-1.44-3.46c-1-2.57-2.16-5.69-3.26-9.19s-2.12-7.41-3-11.56-1.47-8.15-1.9-11.79-.63-7-.71-9.73c-.07-1.39-.05-2.64-.07-3.75s0-2.05,0-2.82,0-1.34.06-1.79A2.5,2.5,0,0,1,39.72,362.26Z" style="fill: rgb(38, 50, 56); transform-origin: 45.8106px 391.98px;" id="elx8d7idvrfqf" class="animable"></path><path d="M40.81,382.42a10.38,10.38,0,0,1,2.48-6.53,2.52,2.52,0,0,1,2.07-1.1c1.07.16,1.56,1.44,1.59,2.52a7.61,7.61,0,0,1-1.71,5.06,6.45,6.45,0,0,1-4.16,2.57" style="fill: rgb(38, 50, 56); transform-origin: 43.882px 379.865px;" id="elenosvmbrrfs" class="animable"></path><path d="M43.17,395.53c-.13-2.82.77-7.17,2.42-9.46a3.37,3.37,0,0,1,.93-.95,1.37,1.37,0,0,1,1.27-.12,1.92,1.92,0,0,1,.82,1.64,11,11,0,0,1-5.3,10.28" style="fill: rgb(38, 50, 56); transform-origin: 45.9003px 390.909px;" id="elekc87xj2yng" class="animable"></path><path d="M46.23,406.75a15.91,15.91,0,0,1,3-7.8,2.48,2.48,0,0,1,1.53-1.16c1-.13,1.79.88,2,1.86.45,2-.55,4.06-1.71,5.77a20.71,20.71,0,0,1-3.84,3.8" style="fill: rgb(38, 50, 56); transform-origin: 49.5501px 403.499px;" id="eldb81yhvrur8" class="animable"></path><path d="M49,414.64a15.37,15.37,0,0,1,2.7-6.14,3.14,3.14,0,0,1,1.09-1,1.34,1.34,0,0,1,1.39.08c.62.48.48,1.45.21,2.19a12.61,12.61,0,0,1-4.62,6.32" style="fill: rgb(38, 50, 56); transform-origin: 51.8096px 411.717px;" id="elakzrljmhr7j" class="animable"></path><path d="M47.77,411.47a50,50,0,0,0-8-4.24,1.4,1.4,0,0,0-1.34-.07.92.92,0,0,0-.3,1,2.36,2.36,0,0,0,.55.94,12.27,12.27,0,0,0,9.83,4.08" style="fill: rgb(38, 50, 56); transform-origin: 43.2978px 410.11px;" id="elpwam3ighuub" class="animable"></path><path d="M44.68,401l-6.56-4.28a6,6,0,0,0-2-1A1.81,1.81,0,0,0,34,398.52a5.3,5.3,0,0,0,1.53,1.6,14.88,14.88,0,0,0,4.61,2.58,6,6,0,0,0,4.75,0" style="fill: rgb(38, 50, 56); transform-origin: 39.2449px 399.382px;" id="elcockib3rdne" class="animable"></path><path d="M41.65,389.16a17.32,17.32,0,0,0-7-5.65,2.85,2.85,0,0,0-1.47-.33,2.17,2.17,0,0,0-1.69,2.21,4.1,4.1,0,0,0,1.42,3,8.75,8.75,0,0,0,3,1.65A20.32,20.32,0,0,0,42,391.22" style="fill: rgb(38, 50, 56); transform-origin: 36.744px 387.198px;" id="eloja19jj6q8" class="animable"></path><path d="M40.25,378.15c-1.51-3.2-4.14-5.44-7-7.51a2.11,2.11,0,0,0-2.06-.52,1.42,1.42,0,0,0-.72,1.16,3.24,3.24,0,0,0,.24,1.4,10.83,10.83,0,0,0,9.63,7.11" style="fill: rgb(38, 50, 56); transform-origin: 35.4029px 374.914px;" id="ellhcvq27r0c" class="animable"></path><path d="M39.9,372.42a28.43,28.43,0,0,1-1.81-5.13,9.67,9.67,0,0,1,.19-5.36A4.18,4.18,0,0,1,39.57,360a2.32,2.32,0,0,1,2.2-.39,2.43,2.43,0,0,1,1.31,1.63,6,6,0,0,1,.09,2.16c-.3,3.43-1.34,7.46-3.27,9" style="fill: rgb(38, 50, 56); transform-origin: 40.5141px 365.954px;" id="elv14pxaz32i" class="animable"></path><path d="M89.16,361.83a4.25,4.25,0,0,1,0,.62c0,.46,0,1.05.07,1.79s0,1.72,0,2.82,0,2.36-.07,3.75c-.08,2.78-.31,6.08-.71,9.73s-1,7.64-1.9,11.79-1.92,8.05-3,11.56-2.21,6.62-3.25,9.2c-.5,1.29-1,2.44-1.45,3.45s-.83,1.88-1.16,2.58-.58,1.2-.78,1.61a3.11,3.11,0,0,1-.3.54,3.11,3.11,0,0,1,.21-.58l.7-1.65c.32-.7.69-1.57,1.1-2.6s.9-2.17,1.37-3.47c1-2.58,2.08-5.7,3.16-9.2s2.08-7.4,3-11.54,1.48-8.11,1.93-11.74.69-6.93.81-9.69c.09-1.39.1-2.64.13-3.74s0-2.05,0-2.82,0-1.33,0-1.79A2.69,2.69,0,0,1,89.16,361.83Z" style="fill: rgb(69, 90, 100); transform-origin: 82.9356px 391.55px;" id="elkfs8vtiotam" class="animable"></path><path d="M88.07,382a10.4,10.4,0,0,0-2.49-6.54,2.5,2.5,0,0,0-2.06-1.1c-1.07.16-1.56,1.44-1.6,2.52a7.62,7.62,0,0,0,1.72,5.06,6.4,6.4,0,0,0,4.16,2.57" style="fill: rgb(69, 90, 100); transform-origin: 84.9932px 379.435px;" id="elfrn1s8cwgi" class="animable"></path><path d="M85.7,395.1c.14-2.82-.77-7.17-2.41-9.46a3.37,3.37,0,0,0-.93-.95,1.39,1.39,0,0,0-1.28-.12,2,2,0,0,0-.81,1.64,11,11,0,0,0,5.29,10.28" style="fill: rgb(69, 90, 100); transform-origin: 82.9753px 390.479px;" id="elnuq2vn090te" class="animable"></path><path d="M82.64,406.32a15.9,15.9,0,0,0-3-7.8,2.47,2.47,0,0,0-1.54-1.16c-1-.13-1.78.88-2,1.86-.45,2,.55,4.06,1.71,5.77a20.91,20.91,0,0,0,3.84,3.81" style="fill: rgb(69, 90, 100); transform-origin: 79.3149px 403.074px;" id="elzg7z49tf4y" class="animable"></path><path d="M79.88,414.21a15.51,15.51,0,0,0-2.7-6.14,3.33,3.33,0,0,0-1.09-1,1.33,1.33,0,0,0-1.39.08c-.62.48-.48,1.45-.22,2.19a12.61,12.61,0,0,0,4.62,6.32" style="fill: rgb(69, 90, 100); transform-origin: 77.0697px 411.286px;" id="el5u9e8ornymd" class="animable"></path><path d="M81.11,411a49.87,49.87,0,0,1,8-4.24,1.42,1.42,0,0,1,1.35-.07.94.94,0,0,1,.29,1,2.34,2.34,0,0,1-.54.94,12.29,12.29,0,0,1-9.84,4.08" style="fill: rgb(69, 90, 100); transform-origin: 85.5816px 409.64px;" id="el8p073z6yf4f" class="animable"></path><path d="M84.19,400.61l6.57-4.28a5.89,5.89,0,0,1,2-1,2.05,2.05,0,0,1,2,.61,2,2,0,0,1,0,2.12,5.27,5.27,0,0,1-1.52,1.6,14.93,14.93,0,0,1-4.62,2.58,6,6,0,0,1-4.74,0" style="fill: rgb(69, 90, 100); transform-origin: 89.472px 399px;" id="eleu88zv5kzb" class="animable"></path><path d="M87.22,388.73a17.35,17.35,0,0,1,7-5.65,2.81,2.81,0,0,1,1.47-.33A2.18,2.18,0,0,1,97.42,385,4.11,4.11,0,0,1,96,388a8.66,8.66,0,0,1-3,1.65,20,20,0,0,1-6.17,1.18" style="fill: rgb(69, 90, 100); transform-origin: 92.1266px 386.788px;" id="elh9zof27i1r4" class="animable"></path><path d="M88.62,377.72c1.52-3.2,4.14-5.44,7-7.51a2.12,2.12,0,0,1,2.06-.52,1.4,1.4,0,0,1,.72,1.16,3.38,3.38,0,0,1-.23,1.4,10.87,10.87,0,0,1-9.64,7.12" style="fill: rgb(69, 90, 100); transform-origin: 93.467px 374.489px;" id="elwc63hpt1w7j" class="animable"></path><path d="M89,372a29.22,29.22,0,0,0,1.81-5.13,9.76,9.76,0,0,0-.2-5.36,4.23,4.23,0,0,0-1.29-1.92,2.26,2.26,0,0,0-2.19-.38,2.43,2.43,0,0,0-1.32,1.63A6.2,6.2,0,0,0,85.7,363c.3,3.43,1.35,7.46,3.28,9" style="fill: rgb(69, 90, 100); transform-origin: 88.3721px 365.539px;" id="elekyjcbji8cs" class="animable"></path><path d="M31.36,421.27v8.28a3.26,3.26,0,0,0,3.26,3.26H91.24a3.26,3.26,0,0,0,3.26-3.26v-8.28Z" style="fill: rgb(3, 169, 241); transform-origin: 62.93px 427.04px;" id="el5nrrzp2jpsq" class="animable"></path><g id="el8gw1ygtdl6e"><g style="opacity: 0.4; transform-origin: 63.29px 435.99px;" class="animable"><polygon points="36.27 432.81 36.74 435.44 88.99 439.17 90.31 432.81 36.27 432.81" id="ellccu14rdgj" class="animable" style="transform-origin: 63.29px 435.99px;"></polygon></g></g></g><g id="freepik--speech-bubble--inject-67" class="animable" style="transform-origin: 98.7532px 146.664px;"><ellipse cx="94.4" cy="146.48" rx="45.6" ry="45.44" style="fill: rgb(250, 250, 250); transform-origin: 94.4px 146.48px;" id="eln0iqvmxnsv" class="animable"></ellipse><path d="M142.31,179.37a12.67,12.67,0,0,0-1.29.4,5.93,5.93,0,0,0-2.73,2.34,5.74,5.74,0,0,0-.85,2.34,5,5,0,0,0,.5,2.76,5.4,5.4,0,0,0,10.12-.6,4.91,4.91,0,0,0,.16-2.8,5.66,5.66,0,0,0-1.11-2.22,5.93,5.93,0,0,0-3-2,11,11,0,0,0-1.33-.25s.12,0,.36,0a2.25,2.25,0,0,1,.43,0,3.53,3.53,0,0,1,.58.1,5.92,5.92,0,0,1,3.18,2,5.84,5.84,0,0,1,1.22,2.32,5.31,5.31,0,0,1-.13,3,6.21,6.21,0,0,1-1.89,2.74,5.43,5.43,0,0,1-6.75.4,6.11,6.11,0,0,1-2.2-2.5,5.27,5.27,0,0,1-.49-3A5.81,5.81,0,0,1,138,182a5.92,5.92,0,0,1,2.93-2.33,4,4,0,0,1,.57-.17,2.61,2.61,0,0,1,.42-.07C142.19,179.36,142.31,179.35,142.31,179.37Z" style="fill: rgb(38, 50, 56); transform-origin: 142.876px 185.109px;" id="el1js3sad2etxj" class="animable"></path><path d="M139.93,150.21s0-.25,0-.74,0-1.22,0-2.16c0-.48,0-1,0-1.6s-.09-1.22-.13-1.91-.12-1.44-.18-2.24a7.42,7.42,0,0,0-.16-1.22c-.08-.42-.15-.85-.23-1.3a43.47,43.47,0,0,0-4.08-12.43,45.22,45.22,0,0,0-10.48-13.72l-1.84-1.6c-.65-.51-1.34-1-2-1.47l-1-.74a7.64,7.64,0,0,0-1.07-.71l-2.26-1.31c-.38-.22-.76-.45-1.15-.66l-1.21-.55-2.47-1.13c-.84-.35-1.73-.6-2.61-.92l-1.32-.45c-.22-.07-.44-.16-.67-.22l-.69-.16a43.25,43.25,0,0,0-5.66-1.11c-1-.11-1.94-.28-2.93-.34l-3-.08c-.5,0-1,0-1.52,0l-1.52.11c-1,.09-2,.13-3.07.26a47.87,47.87,0,0,0-6.16,1.29l-1.54.44c-.26.07-.52.13-.77.22l-.75.29-3,1.18c-1,.44-2,1-2.94,1.46-.48.26-1,.47-1.46.77l-1.41.89a52.83,52.83,0,0,0-5.46,4l-2.49,2.35-.62.59c-.2.21-.38.43-.58.64l-1.14,1.31-1.14,1.3-1,1.42-1,1.42-.51.71c-.16.25-.3.51-.45.76-.59,1-1.19,2-1.78,3.07s-1,2.16-1.49,3.24a44.78,44.78,0,0,0-2.22,28.47l1,3.44q.64,1.67,1.29,3.3l.32.82.4.79.79,1.56.79,1.56.93,1.47.92,1.46.47.73.53.68,2.09,2.71A54.91,54.91,0,0,0,65,180.83l1.25,1.09c.42.37.89.66,1.33,1,.9.64,1.77,1.31,2.68,1.9l2.81,1.64.69.4.73.34,1.46.67a46.62,46.62,0,0,0,5.88,2.23c1,.29,2,.49,3,.73l1.48.35c.5.11,1,.14,1.5.22l3,.38c1,.09,2,.07,3,.12a42.24,42.24,0,0,0,5.76-.22l.71,0,.69-.12,1.38-.24c.91-.17,1.83-.28,2.72-.5l2.61-.73,1.29-.36,1.24-.47,2.43-.95a8.22,8.22,0,0,0,1.17-.53l1.13-.57c.75-.38,1.5-.74,2.22-1.14l2.07-1.3a45,45,0,0,0,12.48-11.93c.38-.52.75-1,1.1-1.53l.92-1.57.88-1.51c.14-.25.3-.49.42-.74s.24-.5.35-.75l1.32-2.86c.39-.92.65-1.84,1-2.69.15-.42.29-.84.43-1.24a6.85,6.85,0,0,0,.35-1.18c.19-.78.36-1.51.52-2.18s.33-1.3.43-1.88l.22-1.57c.13-.94.23-1.65.3-2.14s.11-.73.11-.73,0,.24-.07.73-.15,1.21-.26,2.15c-.06.47-.12,1-.19,1.58s-.27,1.2-.41,1.88-.33,1.41-.51,2.2a6.89,6.89,0,0,1-.34,1.19c-.14.4-.28.82-.42,1.25-.31.85-.56,1.77-.95,2.7s-.85,1.87-1.31,2.88c-.11.25-.23.5-.34.76s-.28.49-.42.74l-.88,1.52-.92,1.58c-.34.52-.72,1-1.09,1.55a45.37,45.37,0,0,1-12.52,12l-2.07,1.32c-.73.4-1.49.76-2.24,1.15l-1.14.58a9,9,0,0,1-1.18.54l-2.44.95c-.42.16-.83.33-1.25.48l-1.29.37-2.63.74c-.9.22-1.82.34-2.74.51l-1.39.25c-.23,0-.46.09-.7.11l-.71.06a42.9,42.9,0,0,1-5.81.23c-1,0-2,0-3-.11l-3-.39c-.5-.07-1-.11-1.51-.21l-1.5-.35c-1-.25-2-.44-3-.73a47.42,47.42,0,0,1-5.93-2.25l-1.47-.67-.74-.34-.7-.41L70,185.15c-.92-.6-1.8-1.28-2.71-1.92-.44-.33-.92-.62-1.34-1l-1.26-1.11a52,52,0,0,1-4.83-4.79l-2.12-2.73-.53-.68-.47-.74-.93-1.47-.94-1.48-.8-1.57-.8-1.58-.4-.8-.33-.82c-.43-1.11-.86-2.22-1.3-3.34s-.64-2.3-1-3.47a45.13,45.13,0,0,1,2.25-28.73l1.5-3.28c.6-1,1.2-2.06,1.79-3.09.16-.25.3-.51.46-.76l.51-.72,1-1.44,1-1.43L60,116.9l1.15-1.32c.2-.21.38-.44.58-.65l.63-.59L64.92,112a49.9,49.9,0,0,1,5.51-4l1.42-.9c.47-.3,1-.51,1.47-.77,1-.49,2-1,3-1.47l3.06-1.19.75-.29c.26-.09.52-.15.78-.23l1.56-.43a48.29,48.29,0,0,1,6.21-1.3c1-.13,2.07-.17,3.1-.25l1.53-.11c.51,0,1,0,1.53,0l3,.08c1,.07,2,.24,3,.36a40.75,40.75,0,0,1,5.7,1.12l.69.17c.23.06.45.15.68.22l1.33.46c.88.31,1.78.57,2.63.93l2.48,1.14,1.22.56c.4.21.78.45,1.16.67L119,108.1a9.92,9.92,0,0,1,1.07.71l1,.75c.69.5,1.38,1,2,1.49s1.24,1.09,1.85,1.62a45.37,45.37,0,0,1,10.5,13.84,43.24,43.24,0,0,1,4,12.51c.07.44.15.87.22,1.3a8.63,8.63,0,0,1,.16,1.23c0,.8.1,1.54.15,2.24s.11,1.33.12,1.92l-.06,1.6c0,.94-.06,1.66-.08,2.16S139.93,150.21,139.93,150.21Z" style="fill: rgb(38, 50, 56); transform-origin: 94.4712px 146.674px;" id="el6foprm3ngdk" class="animable"></path><path d="M80.28,135.56h8s0-6.68,6.94-6.8a6.44,6.44,0,0,1,6.24,4.11,7.13,7.13,0,0,1-.57,6.44c-1.35,2.23-4.3,4.25-9.67,3.31v17.94h7.87V150.05s11-2.85,11-15c0-11.63-10.44-14.33-14.9-14.33C91.77,120.7,80.13,121.52,80.28,135.56Z" style="fill: rgb(38, 50, 56); transform-origin: 95.1843px 140.64px;" id="elvit04sgo9tp" class="animable"></path><rect x="91.16" y="164.26" width="7.99" height="7.46" style="fill: rgb(38, 50, 56); transform-origin: 95.155px 167.99px;" id="el72lxkhr8x4e" class="animable"></rect></g><g id="freepik--Table--inject-67" class="animable animator-hidden" style="transform-origin: 244.115px 474.26px;"><path d="M470,474.26c0,.15-101.14.26-225.88.26s-225.89-.11-225.89-.26S119.35,474,244.12,474,470,474.12,470,474.26Z" style="fill: rgb(38, 50, 56); transform-origin: 244.115px 474.26px;" id="el9l7t4pjh9s7" class="animable"></path></g><defs>     <filter id="active" height="200%">         <feMorphology in="SourceAlpha" result="DILATED" operator="dilate" radius="2"></feMorphology>                <feFlood flood-color="#32DFEC" flood-opacity="1" result="PINK"></feFlood>        <feComposite in="PINK" in2="DILATED" operator="in" result="OUTLINE"></feComposite>        <feMerge>            <feMergeNode in="OUTLINE"></feMergeNode>            <feMergeNode in="SourceGraphic"></feMergeNode>        </feMerge>    </filter>    <filter id="hover" height="200%">        <feMorphology in="SourceAlpha" result="DILATED" operator="dilate" radius="2"></feMorphology>                <feFlood flood-color="#ff0000" flood-opacity="0.5" result="PINK"></feFlood>        <feComposite in="PINK" in2="DILATED" operator="in" result="OUTLINE"></feComposite>        <feMerge>            <feMergeNode in="OUTLINE"></feMergeNode>            <feMergeNode in="SourceGraphic"></feMergeNode>        </feMerge>            <feColorMatrix type="matrix" values="0   0   0   0   0                0   1   0   0   0                0   0   0   0   0                0   0   0   1   0 "></feColorMatrix>    </filter></defs></svg>