<svg class="animated" id="freepik_stories-warning" xmlns="http://www.w3.org/2000/svg" viewBox="0 0 500 500" version="1.1" xmlns:xlink="http://www.w3.org/1999/xlink" xmlns:svgjs="http://svgjs.com/svgjs"><style>svg#freepik_stories-warning:not(.animated) .animable {opacity: 0;}svg#freepik_stories-warning.animated #freepik--background-simple--inject-31 {animation: 1s 1 forwards cubic-bezier(.36,-0.01,.5,1.38) zoomIn;animation-delay: 0s;}svg#freepik_stories-warning.animated #freepik--Computer--inject-31 {animation: 1s 1 forwards cubic-bezier(.36,-0.01,.5,1.38) zoomOut;animation-delay: 0.3s;opacity: 0}svg#freepik_stories-warning.animated #freepik--Hands--inject-31 {animation: 1s 1 forwards cubic-bezier(.36,-0.01,.5,1.38) slideUp;animation-delay: 0.5s;opacity: 0}            @keyframes zoomIn {                0% {                    opacity: 0;                    transform: scale(0.5);                }                100% {                    opacity: 1;                    transform: scale(1);                }            }                    @keyframes zoomOut {                0% {                    opacity: 0;                    transform: scale(1.5);                }                100% {                    opacity: 1;                    transform: scale(1);                }            }                    @keyframes slideUp {                0% {                    opacity: 0;                    transform: translateY(30px);                }                100% {                    opacity: 1;                    transform: inherit;                }            }        </style><g id="freepik--background-simple--inject-31" class="animable" style="transform-origin: 250.008px 214.328px;"><path d="M455.69,245.67c-.05.27-.09.55-.16.83a127.34,127.34,0,0,1-29,61,152.39,152.39,0,0,1-24,22.36A199.17,199.17,0,0,1,375.25,347a261.75,261.75,0,0,1-27.44,12.37c-1.55.61-3.12,1.2-4.68,1.77a245,245,0,0,1-23.43,7.32,262.28,262.28,0,0,1-27.81,5.61,279.3,279.3,0,0,1-28.75,2.72c-9.58.41-19.2.37-28.79-.11q-15.3-.8-30.48-3-15.88-2.3-31.46-6.07-4.66-1.11-9.3-2.36c-8.34-2.24-16.92-4.58-25.47-7.27-12.56-4-25.06-8.64-36.54-14.82a115.63,115.63,0,0,1-21.77-14.89,110.3,110.3,0,0,1-9.72-9.74c-.36-.39-.71-.79-1-1.2a110.38,110.38,0,0,1-20.84-36.59,103.26,103.26,0,0,1-5.23-26,100.8,100.8,0,0,1,.11-15.05,110.35,110.35,0,0,1,29.78-66.51A90.38,90.38,0,0,1,80.06,166c11.08-9.29,23.73-15.71,36.58-21.88,10.14-4.87,20.41-9.56,30.16-15.39q4.53-2.69,8.89-5.76A140,140,0,0,0,169,112.15c6.56-6,12.77-12.4,19.18-18.57,4.24-4.08,8.57-8.07,13.14-11.76q4.27-3.45,8.82-6.48a131.92,131.92,0,0,1,25.7-13.46,143.89,143.89,0,0,1,29.27-8.13,155,155,0,0,1,77.24,6.62q3.66,1.31,7.24,2.8a157.58,157.58,0,0,1,21.78,11.16,176.36,176.36,0,0,1,26.79,20.26,190.81,190.81,0,0,1,40.18,52.23,175.76,175.76,0,0,1,12.88,31.67,156.92,156.92,0,0,1,6.15,33.32A137.81,137.81,0,0,1,455.69,245.67Z" style="fill: #03A9F1; transform-origin: 250.028px 214.329px;" id="elz1a1yjjnxz" class="animable"></path><g id="el50wqpd70ewy"><path d="M455.69,245.67c-.05.27-.09.55-.16.83a127.34,127.34,0,0,1-29,61,152.39,152.39,0,0,1-24,22.36A199.17,199.17,0,0,1,375.25,347a261.75,261.75,0,0,1-27.44,12.37c-1.55.61-3.12,1.2-4.68,1.77a245,245,0,0,1-23.43,7.32,262.28,262.28,0,0,1-27.81,5.61,279.3,279.3,0,0,1-28.75,2.72c-9.58.41-19.2.37-28.79-.11q-15.3-.8-30.48-3-15.88-2.3-31.46-6.07-4.66-1.11-9.3-2.36c-8.34-2.24-16.92-4.58-25.47-7.27-12.56-4-25.06-8.64-36.54-14.82a115.63,115.63,0,0,1-21.77-14.89,110.3,110.3,0,0,1-9.72-9.74c-.36-.39-.71-.79-1-1.2a110.38,110.38,0,0,1-20.84-36.59,103.26,103.26,0,0,1-5.23-26,100.8,100.8,0,0,1,.11-15.05,110.35,110.35,0,0,1,29.78-66.51A90.38,90.38,0,0,1,80.06,166c11.08-9.29,23.73-15.71,36.58-21.88,10.14-4.87,20.41-9.56,30.16-15.39q4.53-2.69,8.89-5.76A140,140,0,0,0,169,112.15c6.56-6,12.77-12.4,19.18-18.57,4.24-4.08,8.57-8.07,13.14-11.76q4.27-3.45,8.82-6.48a131.92,131.92,0,0,1,25.7-13.46,143.89,143.89,0,0,1,29.27-8.13,155,155,0,0,1,77.24,6.62q3.66,1.31,7.24,2.8a157.58,157.58,0,0,1,21.78,11.16,176.36,176.36,0,0,1,26.79,20.26,190.81,190.81,0,0,1,40.18,52.23,175.76,175.76,0,0,1,12.88,31.67,156.92,156.92,0,0,1,6.15,33.32A137.81,137.81,0,0,1,455.69,245.67Z" style="fill: rgb(255, 255, 255); opacity: 0.5; transform-origin: 250.028px 214.329px;" class="animable" id="eldiubfwns6ju"></path></g><g id="elps5rsy4wloe"><g style="opacity: 0.6; transform-origin: 250.003px 214.187px;" class="animable" id="ellzt95p5be2k"><path d="M420.56,119,266.83,218,398.15,94.59A189,189,0,0,1,420.56,119Z" style="fill: rgb(255, 255, 255); transform-origin: 343.695px 156.295px;" id="elx28ahrgbfja" class="animable"></path><path d="M451.21,178.49,266.83,218l171.5-71.13A175.76,175.76,0,0,1,451.21,178.49Z" style="fill: rgb(255, 255, 255); transform-origin: 359.02px 182.435px;" id="el0c2tq8uxoq2" class="animable"></path><path d="M455.69,245.67c-.05.27-.09.55-.16.83L266.83,218l190.53-6.14A137.81,137.81,0,0,1,455.69,245.67Z" style="fill: rgb(255, 255, 255); transform-origin: 362.282px 229.18px;" id="elslt8qdb39u9" class="animable"></path><path d="M445.23,278.81a128.12,128.12,0,0,1-18.69,28.71L266.83,218Z" style="fill: rgb(255, 255, 255); transform-origin: 356.03px 262.76px;" id="el3zarmpr8o3f" class="animable"></path><path d="M402.51,329.88A199.17,199.17,0,0,1,375.25,347L266.83,218Z" style="fill: rgb(255, 255, 255); transform-origin: 334.67px 282.5px;" id="elhht658gyd3i" class="animable"></path><path d="M347.81,359.37c-1.55.61-3.12,1.2-4.68,1.77a245,245,0,0,1-23.43,7.32L266.83,218Z" style="fill: rgb(255, 255, 255); transform-origin: 307.32px 293.23px;" id="eljs68l6zle2g" class="animable"></path><path d="M291.89,374.07a279.3,279.3,0,0,1-28.75,2.72L266.83,218Z" style="fill: rgb(255, 255, 255); transform-origin: 277.515px 297.395px;" id="elwn59kb3m7vl" class="animable"></path><path d="M266.83,218,234.35,376.68q-15.3-.8-30.48-3Z" style="fill: rgb(255, 255, 255); transform-origin: 235.35px 297.34px;" id="el538fhlyogzi" class="animable"></path><path d="M266.83,218,172.41,367.61q-4.66-1.11-9.3-2.36c-8.34-2.24-16.92-4.58-25.47-7.27Z" style="fill: rgb(255, 255, 255); transform-origin: 202.235px 292.805px;" id="el23eos0pymr" class="animable"></path><path d="M266.83,218,101.1,343.16a115.63,115.63,0,0,1-21.77-14.89,110.3,110.3,0,0,1-9.72-9.74c-.36-.39-.71-.79-1-1.2Z" style="fill: rgb(255, 255, 255); transform-origin: 167.72px 280.58px;" id="el8we658dmlc" class="animable"></path><path d="M266.83,218,47.73,280.74a103.26,103.26,0,0,1-5.23-26,100.8,100.8,0,0,1,.11-15.05Z" style="fill: rgb(255, 255, 255); transform-origin: 154.551px 249.37px;" id="elz4dpjd5gs09" class="animable"></path><path d="M266.83,218,54.2,199a109.36,109.36,0,0,1,18.19-25.81A90.38,90.38,0,0,1,80.06,166Z" style="fill: rgb(255, 255, 255); transform-origin: 160.515px 192px;" id="elkduukex1qr" class="animable"></path><path d="M266.83,218,116.64,144.16c10.14-4.87,20.41-9.56,30.16-15.39Z" style="fill: rgb(255, 255, 255); transform-origin: 191.735px 173.385px;" id="el27ikb69qtfw" class="animable"></path><path d="M266.83,218,169,112.15c6.56-6,12.77-12.4,19.18-18.57Z" style="fill: rgb(255, 255, 255); transform-origin: 217.915px 155.79px;" id="elp7mxr4es0a" class="animable"></path><path d="M266.83,218,210.13,75.34a131.92,131.92,0,0,1,25.7-13.46Z" style="fill: rgb(255, 255, 255); transform-origin: 238.48px 139.94px;" id="elpmo73rdzkf" class="animable"></path><path d="M295.69,51.66,266.83,218,265.1,53.75A154.23,154.23,0,0,1,295.69,51.66Z" style="fill: rgb(255, 255, 255); transform-origin: 280.395px 134.792px;" id="elr19f753gtxr" class="animable"></path><path d="M371.36,74.33,266.83,218,342.34,60.37q3.66,1.31,7.24,2.8A157.58,157.58,0,0,1,371.36,74.33Z" style="fill: rgb(255, 255, 255); transform-origin: 319.095px 139.185px;" id="el8mmmb9la2yj" class="animable"></path></g></g></g><g id="freepik--Computer--inject-31" class="animable animator-active" style="transform-origin: 254.495px 239.965px;"><path d="M374.51,284.13V128a9.43,9.43,0,0,0-9.43-9.43H142.88a9.44,9.44,0,0,0-9.44,9.43V284.13Z" style="fill: rgb(38, 50, 56); transform-origin: 253.975px 201.35px;" id="ellg16s5p9tqe" class="animable"></path><rect x="148.85" y="132.75" width="210.75" height="136.42" style="fill: rgb(255, 255, 255); transform-origin: 254.225px 200.96px;" id="elz1t9i0dvw0d" class="animable"></rect><polygon points="133.44 284.13 98.16 356.42 410.87 356.42 374.51 284.13 133.44 284.13" style="fill: rgb(255, 255, 255); stroke: rgb(38, 50, 56); stroke-miterlimit: 10; stroke-width: 1.05102px; transform-origin: 254.515px 320.275px;" id="elck5kkl8975f" class="animable"></polygon><rect x="97.31" y="356.94" width="314.37" height="4.42" style="fill: rgb(38, 50, 56); transform-origin: 254.495px 359.15px;" id="elrjb53pp680s" class="animable"></rect><path d="M164.13,288.42,161,295.89H176.9l2.87-7.47Zm-19.39,8.52-3.91,8.84h14.92l3.69-8.84Zm-4.38,9.89-3.91,8.83h15.17l3.69-8.83Zm51.41,0-2.63,8.83H202l1.93-8.83Zm28-9.89-1.17,8.84h12.19l.8-8.84Zm-14.71,9.89-2,8.83h13.14l1.17-8.83Zm13.41,0-1.16,8.83h12.57l.81-8.83Zm14.19-9.89-.81,8.84h11.93l.44-8.84Zm.77-8.52-.68,7.47h11.52l.38-7.47Zm23.66,8.52H245.27l-.44,8.84h12.35Zm-25.35,9.89-.8,8.83h12.35l.43-8.83Zm25.46,0H244.78l-.45,8.83h12.94Zm12.69,0H258.24l.08,8.83h12.05Zm11.44-18.41H270l.4,7.47H282.1Zm.89,8.52h-11.8l.47,8.84h12.27Zm11.39-8.52H282.37l.79,7.47h11.58Zm1.3,8.52H283.27l.93,8.84h12.05Zm-11.65,9.89H271l.47,8.83h12.77Zm13.16,0h-12.1l.93,8.83h12.53Zm61.88-9.89H346.66l3.09,8.84h12ZM326.7,316.71H312.93l1.7,9.12H329ZM349,306.83h-9.76l2.78,8.83H352.1Zm13.11,0h-12l3.08,8.83h12.35Zm-209.8,9.88-3.81,9.12h16.88l3.51-9.12ZM382.7,326.88H371l4.26,10.94h-1.13l-4.25-10.94H131.47l-4.84,10.94H387.37ZM136,316.71l-4,9.12h15.44l3.8-9.12Zm230,0H353.57l3.18,9.12H369.5Zm12.4,0H367.08l3.56,9.12h11.62Zm-4.2-9.88H363.25l3.43,8.83h11.24Zm-21.7,9.88h-10.1l2.87,9.12h10.42Zm-11.21,0H327.77l2.35,9.12h14Zm-29.38,0H299l1.4,9.12h13.16Zm-13.94,0H285.36l.95,9.12h13Zm-13.63,0H271.48l.49,9.12h13.29Zm-13.88,0H258.33l.1,9.12h12.48Zm-13.14,0h-13l-.45,9.12h13.55Zm-26.45,0-.83,9.12h12.77l.46-9.12Zm-13.67,0-1.2,9.12h13l.84-9.12Zm-14.28,0-2,9.12h14l1.19-9.12Zm-14,0-2.71,9.12h13.68l2-9.12Zm-18.81,0-3.51,9.12H185l2.72-9.12Zm168.11-9.88h-12.9l2.26,8.83h13.42Zm31.8-9.89H359.41l3.44,8.84H373.7Zm-3.5-8.2-.13-.32H356.1l2.9,7.47h10.49ZM355,288.42H343.69l2.6,7.47h11.59Zm-12.41,0h-9.12l2.35,7.47h9.38Zm3,8.52h-9.42l2.79,8.84h9.72Zm-10.52,0H322.71l2.27,8.84h12.83Zm-2.68-8.52H320.53l1.92,7.47h12.24Zm-8.18,18.41H311.11l1.63,8.83h13.69Zm-14.13,0H297.47l1.36,8.83h12.84Zm11.6-9.89H309.27l1.64,8.84h13Zm-2.19-8.52H307.69l1.39,7.47h12.28Zm-11.25,8.52H296l1.36,8.84h12.52Zm-1.57-8.52h-12l1.14,7.47H308Zm-37.28,8.52H258.13l.1,8.84h11.6Zm-.45-8.52H258.05l.07,7.47H269.3Zm-11.9,0H245.69l-.37,7.47h11.75Zm-36.11,0-1,7.47h11.79l.68-7.47Zm-11.81,0-1.64,7.47h11.41l1-7.47Zm-1.87,8.52-1.93,8.84h12.26l1.16-8.84Zm-10-8.52L195,295.89h11.35l1.63-7.47Zm-2.54,8.52-2.61,8.84H204.2l1.94-8.84Zm-13.8-8.52L178,295.89h15.89l2.21-7.47Zm-3.27,8.52-3.4,8.84H191l2.63-8.84Zm-3.81,9.89-3.39,8.83h17.62l2.63-8.83Zm-17.37,0-3.69,8.83H169.3l3.4-8.83Zm4.13-9.89-3.69,8.84H173.1l3.4-8.84Zm-12.07-8.52-3.31,7.47h14.68l3.12-7.47Zm197,8.52h-9.42l2.79,8.84h9.72Z" style="fill: rgb(38, 50, 56); transform-origin: 257px 313.12px;" id="eltlt56hqv6l" class="animable"></path><polygon points="166.11 326.88 165.91 327.41 164.93 327.03 164.98 326.88 166.11 326.88" style="fill: rgb(38, 50, 56); transform-origin: 165.52px 327.145px;" id="elr8s5eeg49de" class="animable"></polygon><polygon points="148.07 326.88 147.97 327.13 147.36 326.88 148.07 326.88" style="fill: rgb(38, 50, 56); transform-origin: 147.715px 327.005px;" id="elkt3fh2uzxaa" class="animable"></polygon><rect x="185.84" y="161.57" width="138.28" height="63.97" rx="10.94" style="fill: #03A9F1; stroke: rgb(46, 53, 58); stroke-miterlimit: 10; stroke-width: 1.57762px; transform-origin: 254.98px 193.555px;" id="elzyrf4ill2fa" class="animable"></rect><path d="M202,254.56H308.18a8.84,8.84,0,0,0,7.7-13.16l-53.1-94.72a8.84,8.84,0,0,0-15.41,0l-53.1,94.72A8.84,8.84,0,0,0,202,254.56Z" style="fill: rgb(38, 50, 56); transform-origin: 255.075px 198.367px;" id="elsvnb0am7et" class="animable"></path><path d="M207.26,248.93h95.63c3.66,0,6-4.15,4.18-7.52l-47.81-89.74a4.68,4.68,0,0,0-8.37,0l-47.81,89.74C201.28,244.78,203.6,248.93,207.26,248.93Z" style="fill: none; stroke: rgb(255, 255, 255); stroke-miterlimit: 10; stroke-width: 0.788267px; transform-origin: 255.079px 199.007px;" id="elhpz77k9q59i" class="animable"></path><path d="M253.43,219.63h2.68c2.06,0,3.79-1.94,4-4.5l2.64-29c.27-3-1.61-5.64-4-5.64h-8.39c-2.45,0-4.34,2.69-4,5.73l3.07,29C249.68,217.74,251.4,219.63,253.43,219.63Z" style="fill: rgb(255, 255, 255); transform-origin: 254.548px 200.06px;" id="elui285hgci4" class="animable"></path><path d="M260,229.9a5.44,5.44,0,1,1-5.44-5.44A5.44,5.44,0,0,1,260,229.9Z" style="fill: rgb(255, 255, 255); transform-origin: 254.56px 229.9px;" id="elcyoiygku6y7" class="animable"></path></g><g id="freepik--Hands--inject-31" class="animable" style="transform-origin: 250px 372.35px;"><path d="M393.56,400.4c-8.3-12.72-6.51-14.62-8.08-20s-9.86-17.18-12.62-22.13-4-30.38-4-30.38a12,12,0,0,0-2.08-8.6s.65-5,.91-11.77-2.33-8.91-3.76-11-5.74-14.49-7-15.48-3.69,3.65-3.69,3.65c-1.19,5.39,4.25,15.78,4.25,15.78L355.4,313l-6.54-9.38s-4.2-20-6.86-22.64S329.28,284,329.28,284a24.1,24.1,0,0,0-4.18-4c-2.94-2.3-21.46,6.75-21.46,6.75-2.82-2.63-9.83-6.83-13.68-4.61s-12.78,19.95-9.35,22.14,11.32-3.68,11.32-3.68,10,6.05,11.71,10.58,6,22.62,6.48,26.44-2.56,13.41-2.56,13.41c-4.5-13.5-20.11-25.31-25.65-25.08s-4.57,3.94-3.87,6.26,7.72,8.22,7.72,8.22l4.43,9.11s14.12,30.81,16.1,34.1,4.6,3.44,4.6,3.44l30.37,11.55c8,8,30.7,58.25,30.7,58.25,53.87,12.17,58.23-20.13,58.23-20.13S401.88,413.12,393.56,400.4ZM312.38,295.75l4.55-1.19,1.72.65,6,14Z" style="fill: rgb(255, 255, 255); transform-origin: 353.843px 369.623px;" id="elbd2wj3h41ne" class="animable"></path><path d="M372.86,458.9s-25.7-57.3-31.6-60.24-29.07-9.69-33.7-13.49-19-41.28-22.33-45.49-10.11-7.16-7.16-12.22,20.22,2.53,29.49,23.59c0,0,2.95-9.27,2.53-14.32-.32-3.77-3.67-16.42-5.36-22.63a16.68,16.68,0,0,0-3.66-6.72,26,26,0,0,0-4.64-4.31c-3-1.85-5.68-2.71-7-6.54" style="fill: none; stroke: rgb(38, 50, 56); stroke-linecap: round; stroke-linejoin: round; stroke-width: 1.05102px; transform-origin: 325.102px 377.715px;" id="elnnvt5fsuo4" class="animable"></path><path d="M291.85,300.17s-4.91,4.43-8.09,4.59-4-.32-4-3.34S287.1,283.6,290,282.17s10.18,1.75,13.68,5.09,21.46,22.43,21.46,22.43l-6.67-14.95a4,4,0,0,1-3.34-3.66" style="fill: none; stroke: rgb(38, 50, 56); stroke-linecap: round; stroke-linejoin: round; stroke-width: 1.05102px; transform-origin: 302.45px 295.754px;" id="eluecnvc70arn" class="animable"></path><path d="M329.29,284s9.19-5.92,12.71-3.07,4.49,21.28,8.86,26.31,7.06,8.71,8.06,13.57" style="fill: none; stroke: rgb(38, 50, 56); stroke-linecap: round; stroke-linejoin: round; stroke-width: 1.05102px; transform-origin: 344.105px 300.482px;" id="el4unzkv344vw" class="animable"></path><path d="M355.66,313.32a96.67,96.67,0,0,0,1.85-12.84,27.71,27.71,0,0,1-4.25-15.79s1.6-2.8,3.68-3.64,4.17,12.65,8.42,17.54,1.42,20.68,1.42,20.68,3.12,4.49,2.08,8.6c0,0,2.64,26.5,4,30.38S383.5,373.77,385.69,381s2.7,12.15,9.28,21.43,36.11,35.1,36.11,35.1" style="fill: none; stroke: rgb(38, 50, 56); stroke-linecap: round; stroke-linejoin: round; stroke-width: 1.05102px; transform-origin: 392.161px 359.271px;" id="elioag05lmyz" class="animable"></path><path d="M303.64,287.26s17.07-8.52,21.46-7.23,9.41,14.08,12.65,20.23,3.72,8.58,7.77,12.79,4.69,5.5,5.34,9.06" style="fill: none; stroke: rgb(38, 50, 56); stroke-linecap: round; stroke-linejoin: round; stroke-width: 1.05102px; transform-origin: 327.25px 301.004px;" id="elhy7dy2z81d5" class="animable"></path><path d="M330.16,315.1a11.59,11.59,0,0,1,3.41,8.26" style="fill: none; stroke: rgb(38, 50, 56); stroke-linecap: round; stroke-linejoin: round; stroke-width: 1.05102px; transform-origin: 331.865px 319.23px;" id="el167mw4wo6xe" class="animable"></path><g id="elnhukrjqfwjp"><g style="opacity: 0.5; transform-origin: 362.4px 377.311px;" class="animable" id="el713k4esbbt"><path d="M337.88,394.09c-5.19-2.42-12.61-6.17-18.12-7.71-6.38-1.78-12.94-5.43-14.35-12.35a9,9,0,0,1,4.15-9.66c6.64-3.71,11.91,5.09,18.88-.31a12.82,12.82,0,0,0,4.74-10.79c-.27-6-3.48-11.41-5.85-16.93s-3.64-11.63-.93-17.31a4.69,4.69,0,0,1,1.27-1.76c2.5-1.91,5.58,2.58,7.58,3.54,3.47,1.67,7.25-4.58,11.05-4s5.45,4,6.1,11.51c3.34-5.93,9.33-5.71,10.06-1.19,1.24,7.75,4.75,19.27,5.26,23.82,1.68,15.06,11.56,14.74,15.12,29.47,4.48,18.53,12.7,28.15,23.14,36.45,4.18,3.32,7.28,7.75,11.19,11.38a13.32,13.32,0,0,1,1.26,1.33c3.4,4.1-1.2,9.92-6.1,7.83a36.85,36.85,0,0,0-9.65-2.64c-15.14-2-31.4,6.92-41.21-7.43C352.94,414.84,353.21,401.26,337.88,394.09Z" style="fill: #03A9F1; transform-origin: 362.4px 377.311px;" id="elo57dvxpxw1" class="animable"></path><g id="elnvcbwgmepc"><path d="M337.88,394.09c-5.19-2.42-12.61-6.17-18.12-7.71-6.38-1.78-12.94-5.43-14.35-12.35a9,9,0,0,1,4.15-9.66c6.64-3.71,11.91,5.09,18.88-.31a12.82,12.82,0,0,0,4.74-10.79c-.27-6-3.48-11.41-5.85-16.93s-3.64-11.63-.93-17.31a4.69,4.69,0,0,1,1.27-1.76c2.5-1.91,5.58,2.58,7.58,3.54,3.47,1.67,7.25-4.58,11.05-4s5.45,4,6.1,11.51c3.34-5.93,9.33-5.71,10.06-1.19,1.24,7.75,4.75,19.27,5.26,23.82,1.68,15.06,11.56,14.74,15.12,29.47,4.48,18.53,12.7,28.15,23.14,36.45,4.18,3.32,7.28,7.75,11.19,11.38a13.32,13.32,0,0,1,1.26,1.33c3.4,4.1-1.2,9.92-6.1,7.83a36.85,36.85,0,0,0-9.65-2.64c-15.14-2-31.4,6.92-41.21-7.43C352.94,414.84,353.21,401.26,337.88,394.09Z" style="fill: rgb(255, 255, 255); opacity: 0.2; transform-origin: 362.4px 377.311px;" class="animable" id="el2e05gnrupq9"></path></g></g></g><path d="M70.12,445.59s16,33.18,58.32,20l26.28-56.34s21.85-15.54,31.83-20.9S208.14,377.4,210,374.49s9.59-23.54,10.31-28.65,1.55-8.56,2.4-12.43.72-9.69-4.14-6.48-8.33,5.92-10,14.06S198,353.46,198,353.46s3-24.2,8.07-30.1,17.49-19,17.49-19,7,5.74,11.85,2.93-9.6-18.63-14.46-17a9.18,9.18,0,0,0-4.86,1.62l-8.7-6.74s-5.06-5.28-7.73-3.9-6.91,7.48-6.91,7.48-5.73-7.32-10.52-6.9-11.56,7.07-13.81,10.41-8.21,13.52-9.67,15.52c0,0,2.23-14.33,2.18-17.49s.72-14.22-2.55-14.21-5,10-6.71,17.55-2.64,11.33-4.89,15.84-10.32,33.66-10.32,33.66-9.74,28.34-12.27,33.5-7.63,13.65-10.75,17.45S70.12,445.59,70.12,445.59Z" style="fill: rgb(255, 255, 255); transform-origin: 153.256px 372.383px;" id="eltafpnwjtjja" class="animable"></path><path d="M216.09,291.85s-6.87-5.44-13.07-10-15.8,18.2-23.6,24.6-10.2,7.8-12.2,12.6" style="fill: none; stroke: rgb(38, 50, 56); stroke-linecap: round; stroke-linejoin: round; stroke-width: 1.05102px; transform-origin: 191.655px 300.15px;" id="el2q2lmz9m2dc" class="animable"></path><path d="M186.44,294.14a46.08,46.08,0,0,1-4.28,9.49" style="fill: none; stroke: rgb(38, 50, 56); stroke-linecap: round; stroke-linejoin: round; stroke-width: 1.05102px; transform-origin: 184.3px 298.885px;" id="elnzewk4tsimj" class="animable"></path><path d="M201.77,303.48a31.24,31.24,0,0,0,.91-10.55" style="fill: none; stroke: rgb(38, 50, 56); stroke-linecap: round; stroke-linejoin: round; stroke-width: 1.05102px; transform-origin: 202.28px 298.205px;" id="elrzv1ipvgz7p" class="animable"></path><path d="M158.38,308.23s5.73-31.86,0-32.21-5.73,20.76-9.95,29.38-12.84,43.45-18.83,58.4-9.14,20.93-13.54,26.91S68.92,447,68.92,447" style="fill: none; stroke: rgb(38, 50, 56); stroke-linecap: round; stroke-linejoin: round; stroke-width: 1.05102px; transform-origin: 114.923px 361.508px;" id="elsi3s7u0re4q" class="animable"></path><path d="M192.75,288.69s-7-7.74-12-6.87-11.24,7.43-17.26,18.29S152.23,315.82,147.82,319s-3.61,9.21-5.42,11.82" style="fill: none; stroke: rgb(38, 50, 56); stroke-linecap: round; stroke-linejoin: round; stroke-width: 1.05102px; transform-origin: 167.575px 306.286px;" id="el9onjalmfq3" class="animable"></path><path d="M164.18,324.39a17.15,17.15,0,0,0-.71,5" style="fill: none; stroke: rgb(38, 50, 56); stroke-linecap: round; stroke-linejoin: round; stroke-width: 1.05102px; transform-origin: 163.825px 326.89px;" id="elgq9h50om2di" class="animable"></path><path d="M127.58,467.4s24.21-52.33,27.14-58.19c0,0,13.45-10.52,22.25-15.65s29.34-15.16,33-19.07,8.31-22.25,9.78-26.65.73-8.56,2.93-14.43,0-8.62-4.4-6.63-8.8,10.05-9.78,14.21S198,353.46,198,353.46s2-18.14,8.07-30.1c0,0,13.71-16.11,17.49-19,0,0,7.69,5.13,11.85,2.93s-1.47-7.59-4.89-11.5-9.54-7.82-14.43-3.9-21.76,18.64-29.34,23.25-7.58,5.35-9,9.51" style="fill: none; stroke: rgb(38, 50, 56); stroke-linecap: round; stroke-linejoin: round; stroke-width: 1.05102px; transform-origin: 182.231px 378.832px;" id="elsg9w7enu90f" class="animable"></path><g id="el6svwgthpcis"><g style="opacity: 0.5; transform-origin: 150.036px 372.833px;" class="animable" id="elm6b2gf3c5jn"><path d="M176.67,390.26a180.63,180.63,0,0,0,19.47-10.95c6.08-3.8,14.52-10.66,10-17.8-3.1-5.82-15.24,4.79-20.36-.65a7.08,7.08,0,0,1-1.81-4.09c-.72-6.7,5.68-12.92,6.43-19.62.53-4.62.12-15.45-7.24-17.71-4.52-1.39-6.76,4.95-6.76,11.64-2.5-5.21-4.3-10.59-8.82-9.82-4.11.23-6.14,3.61-6,10.62-5.34-1-5.31-5.48-6-9.8-.65-3.91-6-4.16-8.81-2.55s-6.05,13.71-6.84,16.7c-8.67,32.7-17,51.22-36.09,73.31-3.6,4.18-6.84,7.35-10.28,11.25A3.81,3.81,0,0,0,97.18,427c13.22-2.53,27.43-13.27,39.26-6.37a12.68,12.68,0,0,0,5.13,1.75c9.26.91,7.35-10.1,11.68-15.23C159,400.41,168.69,393.92,176.67,390.26Z" style="fill: #03A9F1; transform-origin: 150.036px 372.833px;" id="el23hcbpcidl" class="animable"></path><g id="ele8w7zgmwqi"><path d="M176.67,390.26a180.63,180.63,0,0,0,19.47-10.95c6.08-3.8,14.52-10.66,10-17.8-3.1-5.82-15.24,4.79-20.36-.65a7.08,7.08,0,0,1-1.81-4.09c-.72-6.7,5.68-12.92,6.43-19.62.53-4.62.12-15.45-7.24-17.71-4.52-1.39-6.76,4.95-6.76,11.64-2.5-5.21-4.3-10.59-8.82-9.82-4.11.23-6.14,3.61-6,10.62-5.34-1-5.31-5.48-6-9.8-.65-3.91-6-4.16-8.81-2.55s-6.05,13.71-6.84,16.7c-8.67,32.7-17,51.22-36.09,73.31-3.6,4.18-6.84,7.35-10.28,11.25A3.81,3.81,0,0,0,97.18,427c13.22-2.53,27.43-13.27,39.26-6.37a12.68,12.68,0,0,0,5.13,1.75c9.26.91,7.35-10.1,11.68-15.23C159,400.41,168.69,393.92,176.67,390.26Z" style="fill: rgb(255, 255, 255); opacity: 0.2; transform-origin: 150.036px 372.833px;" class="animable" id="el32jxio4rorp"></path></g></g></g><path d="M361.87,325.71a11.17,11.17,0,0,1,1.13,5.93" style="fill: none; stroke: rgb(38, 50, 56); stroke-linecap: round; stroke-linejoin: round; stroke-width: 1.05102px; transform-origin: 362.455px 328.675px;" id="elmq9w1x30k19" class="animable"></path><line x1="317.45" y1="294.43" x2="312.38" y2="295.75" style="fill: none; stroke: rgb(38, 50, 56); stroke-linecap: round; stroke-linejoin: round; stroke-width: 1.05102px; transform-origin: 314.915px 295.09px;" id="elv9i1sqdxl1" class="animable"></line><path d="M350.13,326.78a8.09,8.09,0,0,1,.66,5.47" style="fill: none; stroke: rgb(38, 50, 56); stroke-linecap: round; stroke-linejoin: round; stroke-width: 1.05102px; transform-origin: 350.564px 329.515px;" id="elc0nq29v6w1k" class="animable"></path></g><defs>     <filter id="active" height="200%">         <feMorphology in="SourceAlpha" result="DILATED" operator="dilate" radius="2"></feMorphology>                <feFlood flood-color="#32DFEC" flood-opacity="1" result="PINK"></feFlood>        <feComposite in="PINK" in2="DILATED" operator="in" result="OUTLINE"></feComposite>        <feMerge>            <feMergeNode in="OUTLINE"></feMergeNode>            <feMergeNode in="SourceGraphic"></feMergeNode>        </feMerge>    </filter>    <filter id="hover" height="200%">        <feMorphology in="SourceAlpha" result="DILATED" operator="dilate" radius="2"></feMorphology>                <feFlood flood-color="#ff0000" flood-opacity="0.5" result="PINK"></feFlood>        <feComposite in="PINK" in2="DILATED" operator="in" result="OUTLINE"></feComposite>        <feMerge>            <feMergeNode in="OUTLINE"></feMergeNode>            <feMergeNode in="SourceGraphic"></feMergeNode>        </feMerge>            <feColorMatrix type="matrix" values="0   0   0   0   0                0   1   0   0   0                0   0   0   0   0                0   0   0   1   0 "></feColorMatrix>    </filter></defs></svg>