<svg class="animated" id="freepik_stories-photo-sharing" xmlns="http://www.w3.org/2000/svg" viewBox="0 0 500 500" version="1.1" xmlns:xlink="http://www.w3.org/1999/xlink" xmlns:svgjs="http://svgjs.com/svgjs"><style>svg#freepik_stories-photo-sharing:not(.animated) .animable {opacity: 0;}svg#freepik_stories-photo-sharing.animated #freepik--background-complete--inject-43 {animation: 1s 1 forwards cubic-bezier(.36,-0.01,.5,1.38) zoomOut;animation-delay: 0.3s;opacity: 0}svg#freepik_stories-photo-sharing.animated #freepik--Device--inject-43 {animation: 1s 1 forwards cubic-bezier(.36,-0.01,.5,1.38) zoomIn;animation-delay: 0s;}svg#freepik_stories-photo-sharing.animated #freepik--character-2--inject-43 {animation: 1s 1 forwards cubic-bezier(.36,-0.01,.5,1.38) slideRight;animation-delay: 0.7s;opacity: 0}svg#freepik_stories-photo-sharing.animated #freepik--character-1--inject-43 {animation: 1s 1 forwards cubic-bezier(.36,-0.01,.5,1.38) slideLeft;animation-delay: 0.7s;opacity: 0}svg#freepik_stories-photo-sharing.animated #freepik--speech-bubble--inject-43 {animation: 1s 1 forwards cubic-bezier(.36,-0.01,.5,1.38) lightSpeedLeft;animation-delay: 0.8s;opacity: 0}            @keyframes zoomOut {                0% {                    opacity: 0;                    transform: scale(1.5);                }                100% {                    opacity: 1;                    transform: scale(1);                }            }                    @keyframes zoomIn {                0% {                    opacity: 0;                    transform: scale(0.5);                }                100% {                    opacity: 1;                    transform: scale(1);                }            }                    @keyframes slideRight {                0% {                    opacity: 0;                    transform: translateX(30px);                }                100% {                    opacity: 1;                    transform: translateX(0);                }            }                    @keyframes slideLeft {                0% {                    opacity: 0;                    transform: translateX(-30px);                }                100% {                    opacity: 1;                    transform: translateX(0);                }            }                    @keyframes lightSpeedLeft {              from {                transform: translate3d(-50%, 0, 0) skewX(20deg);                opacity: 0;              }              60% {                transform: skewX(-10deg);                opacity: 1;              }              80% {                transform: skewX(2deg);              }              to {                opacity: 1;                transform: translate3d(0, 0, 0);              }            }        .animator-hidden { display: none; }</style><g id="freepik--background-complete--inject-43" class="animable" style="transform-origin: 233.982px 250.589px;"><path d="M367.7,102.12c-3.79-2.3-8.63-.51-10.86,3.14s-2.59,7-1.49,11.52a14.07,14.07,0,0,0-9.51-6.94c-4.18-1-8.9,1.22-9.95,5.54a10.83,10.83,0,0,0,1.43,7.75,14.88,14.88,0,0,0,5.43,5.84c8.15,4.33,11.59,4.27,20.49,6.05,4.94-7.55,6.67-9.64,9.3-18.47a15,15,0,0,0-.35-8A10.93,10.93,0,0,0,367.7,102.12Z" style="fill: rgb(245, 245, 245); transform-origin: 354.309px 118.057px;" id="ell83da2i24u" class="animable"></path><path d="M56.13,275.43a6.05,6.05,0,0,0,1-6.55A5.66,5.66,0,1,0,46.8,273.4a6,6,0,0,0,5.57,3.69c-7.43,4.72-3.25,13.2-3.25,13.2L68,282.06S64.54,273.13,56.13,275.43Z" style="fill: rgb(224, 224, 224); transform-origin: 57.0521px 277.656px;" id="el34uuog2vpns" class="animable"></path><path d="M147.52,87.5A11.83,11.83,0,0,0,157.35,79c1.86-6.27-1.4-12.76-7.28-14.5s-12.14,1.93-14,8.2a11.82,11.82,0,0,0,3.7,12.58C122.66,82.94,118.21,101,118.21,101l38.72,11.47S163.06,94.69,147.52,87.5Z" style="fill: rgb(235, 235, 235); transform-origin: 138.166px 88.2689px;" id="elkyh1nhc3dkc" class="animable"></path><path d="M420.55,123.71a3.46,3.46,0,0,0-4.82.29,5.91,5.91,0,0,0-1.71,4.67,6,6,0,0,0-3.31-3.79,3.5,3.5,0,0,0-4.67,1.37,4.6,4.6,0,0,0-.13,3.37,6.38,6.38,0,0,0,1.71,2.95c3,2.57,4.43,2.86,8,4.44,2.77-2.68,3.69-3.39,5.61-6.82a6.34,6.34,0,0,0,.6-3.36A4.66,4.66,0,0,0,420.55,123.71Z" style="fill: rgb(224, 224, 224); transform-origin: 413.755px 129.939px;" id="elcg5k1uxpriu" class="animable"></path><polygon points="126.01 128.61 127.33 131.28 130.28 131.71 128.15 133.79 128.65 136.72 126.01 135.34 123.38 136.72 123.88 133.79 121.75 131.71 124.69 131.28 126.01 128.61" style="fill: rgb(224, 224, 224); transform-origin: 126.015px 132.665px;" id="elkkdx4a6uj3l" class="animable"></polygon><polygon points="338.47 163.46 340.86 168.29 346.19 169.07 342.33 172.83 343.24 178.14 338.47 175.63 333.7 178.14 334.62 172.83 330.76 169.07 336.09 168.29 338.47 163.46" style="fill: rgb(224, 224, 224); transform-origin: 338.475px 170.8px;" id="eladd8v5d89ob" class="animable"></polygon><polygon points="106.5 188.9 107.15 190.23 108.63 190.45 107.56 191.49 107.81 192.95 106.5 192.26 105.18 192.95 105.43 191.49 104.36 190.45 105.84 190.23 106.5 188.9" style="fill: rgb(224, 224, 224); transform-origin: 106.495px 190.925px;" id="elrfswiojmmj" class="animable"></polygon><path d="M293.79,422.55c-16.81-11.74-20.62-33.53-20-53.12.11-3.27-.25-6.72,1.3-9.59s5.19-4.82,8.11-3.45c2.43,1.15,3.49,4,4.85,6.31a19.15,19.15,0,0,0,7.67,7.32c2.08,1.08,4.66,1.74,6.71.61,2.82-1.56,3.15-5.45,3.13-8.71q0-9.09-.11-18.18c0-3.25,0-6.57,1-9.66s3.25-5.95,6.34-6.82,6.92.92,7.57,4.1a28.76,28.76,0,0,1,.1,4.05c.09,1.35.72,2.85,2,3.22s2.6-.54,3.57-1.49c3.36-3.28,5.63-7.51,7.76-11.72s4.2-8.51,7.24-12.1,7.26-6.41,11.92-6.68,9.62,2.61,10.79,7.18-1.49,9.24-4.4,12.95a72.49,72.49,0,0,1-15.12,14.41,6,6,0,0,0-2.52,2.72c-.71,2.16,1.34,4.32,3.49,5,2.42.81,5,.56,7.58.85s5.29,1.42,6.25,3.82c1.33,3.32-1.45,6.81-4.19,9.09a62,62,0,0,1-18.4,10.62c-2.39.88-4.91,1.64-6.84,3.33s-3.09,4.6-1.93,6.89,4.16,3,6.67,2.56,4.75-1.82,7.13-2.73c4.47-1.68,10.24-1.37,13.11,2.49,1.88,2.54,2,6.07,1.09,9.1a23.83,23.83,0,0,1-4.93,8,62.57,62.57,0,0,1-26.7,18.76c-10.37,3.59-20,4.57-30.27.8" style="fill: rgb(235, 235, 235); transform-origin: 318.875px 365.751px;" id="elbue8nokkfo" class="animable"></path><path d="M293.53,437.07a143,143,0,0,1,5.31-26.8,291.12,291.12,0,0,1,11.57-31.37l3.45-8.07c1.14-2.65,2.27-5.27,3.54-7.77a145.71,145.71,0,0,1,8.08-13.93c2.79-4.31,5.59-8.3,8.24-12s5.19-7.11,7.64-10.11A116.31,116.31,0,0,1,354,313.7c1.61-1.45,2.89-2.54,3.77-3.26l1-.81a2.59,2.59,0,0,1,.36-.27,2.16,2.16,0,0,1-.32.31l-1,.86c-.85.76-2.1,1.87-3.68,3.34a122.11,122.11,0,0,0-12.42,13.41c-2.42,3-4.94,6.43-7.57,10.14s-5.41,7.71-8.18,12a151,151,0,0,0-8,13.9c-1.25,2.49-2.37,5.09-3.51,7.74s-2.29,5.34-3.45,8.06a298.14,298.14,0,0,0-11.59,31.3A145.41,145.41,0,0,0,294,437.11" style="fill: rgb(224, 224, 224); transform-origin: 326.33px 373.235px;" id="el2lyh9kehkxx" class="animable"></path><path d="M317.57,363a6.75,6.75,0,0,1-.32-1.39c-.17-.9-.37-2.2-.6-3.82-.46-3.24-.94-7.73-1.46-12.69s-1.06-9.43-1.56-12.65c-.25-1.62-.47-2.92-.63-3.82a6.88,6.88,0,0,1-.18-1.41,6.94,6.94,0,0,1,.41,1.36c.23.89.51,2.19.81,3.79.62,3.22,1.23,7.7,1.75,12.66s.94,9.32,1.28,12.7c.16,1.53.3,2.82.41,3.85A6.31,6.31,0,0,1,317.57,363Z" style="fill: rgb(224, 224, 224); transform-origin: 315.199px 345.11px;" id="elz08jo8v3tkm" class="animable"></path><path d="M359.38,355.23a9.23,9.23,0,0,1-1.67.2c-1.07.09-2.62.22-4.54.44-3.83.42-9.1,1.17-14.87,2.26s-11,2.32-14.69,3.31c-1.87.48-3.37.91-4.41,1.2a9.63,9.63,0,0,1-1.63.4,9.12,9.12,0,0,1,1.56-.63c1-.36,2.51-.85,4.37-1.39,3.7-1.09,8.89-2.38,14.69-3.48a143.52,143.52,0,0,1,14.94-2.09c1.93-.17,3.49-.24,4.57-.26A7.59,7.59,0,0,1,359.38,355.23Z" style="fill: rgb(224, 224, 224); transform-origin: 338.475px 359.101px;" id="el5789fud4sd" class="animable"></path><path d="M299.36,409.5a2.08,2.08,0,0,1-.29-.51l-.71-1.51c-.62-1.32-1.46-3.25-2.47-5.64-1.56-3.53-3.34-8-7.34-18.93-2.74-7.44-5.26-14.16-7.17-19l-2.28-5.71-.62-1.56a2.1,2.1,0,0,1-.17-.56,2.34,2.34,0,0,1,.28.51l.72,1.51c.61,1.32,1.45,3.25,2.46,5.64,2,4.79,4.6,11.5,7.34,18.94s5.26,14.15,7.17,19c.94,2.34,1.71,4.27,2.29,5.7.24.63.44,1.14.61,1.56A2.49,2.49,0,0,1,299.36,409.5Z" style="fill: rgb(224, 224, 224); transform-origin: 288.835px 382.79px;" id="el6gi8909ba3d" class="animable"></path><path d="M354.92,391.59a2.45,2.45,0,0,1-.56.23l-1.61.54-5.95,1.93c-5,1.63-11.93,4-19.57,6.54s-14.58,4.86-19.63,6.38c-2.53.77-4.59,1.36-6,1.75l-1.65.43a2.35,2.35,0,0,1-.58.11,2,2,0,0,1,.55-.23l1.61-.54,6-1.93c5-1.62,11.94-3.95,19.57-6.54s14.58-4.85,19.64-6.38c2.52-.76,4.58-1.36,6-1.74l1.65-.44A2.3,2.3,0,0,1,354.92,391.59Z" style="fill: rgb(224, 224, 224); transform-origin: 327.145px 400.545px;" id="elr93gniduj6b" class="animable"></path><path d="M262.89,72.79V85.67A5.29,5.29,0,0,1,257.6,91H235.3v7.37l-4-7h0a4.71,4.71,0,0,1-4.36-4.7V72.79a5.3,5.3,0,0,1,5.3-5.3H257.6A5.29,5.29,0,0,1,262.89,72.79Z" style="fill: rgb(235, 235, 235); transform-origin: 244.915px 82.93px;" id="el92kahcz8qkq" class="animable"></path><circle cx="252.92" cy="79.92" r="2.18" style="fill: rgb(224, 224, 224); transform-origin: 252.92px 79.92px;" id="el0dqjs7j6sxsp" class="animable"></circle><circle cx="244.64" cy="79.92" r="2.18" style="fill: rgb(224, 224, 224); transform-origin: 244.64px 79.92px;" id="elpw52xkm4qgh" class="animable"></circle><path d="M234.18,79.92a2.18,2.18,0,1,0,2.18-2.18A2.18,2.18,0,0,0,234.18,79.92Z" style="fill: rgb(224, 224, 224); transform-origin: 236.36px 79.92px;" id="elz12rek3g77" class="animable"></path><polygon points="301.13 77.74 304.54 84.65 312.17 85.76 306.65 91.14 307.95 98.73 301.13 95.15 294.31 98.73 295.61 91.14 290.1 85.76 297.72 84.65 301.13 77.74" style="fill: rgb(224, 224, 224); transform-origin: 301.135px 88.235px;" id="elhff5yr7yt6j" class="animable"></polygon><polygon points="209.9 112.81 211.61 116.26 215.42 116.81 212.66 119.5 213.31 123.3 209.9 121.51 206.49 123.3 207.14 119.5 204.38 116.81 208.2 116.26 209.9 112.81" style="fill: rgb(224, 224, 224); transform-origin: 209.9px 118.055px;" id="elt8tnswepzld" class="animable"></polygon></g><g id="freepik--Floor--inject-43" class="animable animator-hidden" style="transform-origin: 250px 438.67px;"><path d="M475.84,438.67c0,.14-101.12.26-225.83.26s-225.85-.12-225.85-.26,101.1-.26,225.85-.26S475.84,438.52,475.84,438.67Z" style="fill: rgb(38, 50, 56); transform-origin: 250px 438.67px;" id="el1bbpxarc5dy" class="animable"></path></g><g id="freepik--Device--inject-43" class="animable" style="transform-origin: 229.965px 286.08px;"><path d="M282,143.5l-20-.1a5,5,0,0,0-4.88,5v3.63a5,5,0,0,1-4.88,5L213.31,157a5,5,0,0,1-4.84-5.1l0-3.62a5,5,0,0,0-4.83-5.1l-7,0L179.14,143a15.72,15.72,0,0,0-15.79,15.66l-1.07,252.19a15.73,15.73,0,0,0,15.65,15.8l102.86.47a15.72,15.72,0,0,0,15.79-15.66l1.07-252.19A15.72,15.72,0,0,0,282,143.5Z" style="fill: rgb(255, 255, 255); transform-origin: 229.965px 285.06px;" id="el10lc1fgpi99m" class="animable"></path><path d="M184.05,181.52a3.29,3.29,0,0,0,2-3,3.08,3.08,0,1,0-6.15,0,3.27,3.27,0,0,0,2,3.06,4.93,4.93,0,0,0-4.17,3.58,7,7,0,0,0,4.27,2.3h1.89a7,7,0,0,0,4.34-2.31A4.85,4.85,0,0,0,184.05,181.52Z" style="fill: rgb(69, 90, 100); transform-origin: 182.98px 181.362px;" id="el0nwwd3t0l8d" class="animable"></path><path d="M182.9,187.47c0-.06.62,0,1.68-.32a6.9,6.9,0,0,0,3.72-2.56,6.8,6.8,0,0,0,.93-6.41,6.64,6.64,0,0,0-2.36-3.12,6.69,6.69,0,0,0-8,0,6.64,6.64,0,0,0-2.36,3.12,6.8,6.8,0,0,0,.93,6.41,7,7,0,0,0,3.72,2.56c1.06.29,1.69.26,1.69.32a1.34,1.34,0,0,1-.45,0,5,5,0,0,1-1.29-.15,7.1,7.1,0,0,1-5.35-5.54,7.22,7.22,0,0,1,2.8-7.18,7.22,7.22,0,0,1,8.57,0A7.14,7.14,0,0,1,189.7,178a7.23,7.23,0,0,1,.28,3.8,7.1,7.1,0,0,1-5.35,5.54,5,5,0,0,1-1.29.15A1.25,1.25,0,0,1,182.9,187.47Z" style="fill: rgb(69, 90, 100); transform-origin: 182.871px 180.346px;" id="elywneoemvqy" class="animable"></path><rect x="198.35" y="179.9" width="56.2" height="2.8" style="fill: rgb(69, 90, 100); transform-origin: 226.45px 181.3px;" id="el8esa598p7z3" class="animable"></rect><circle cx="285.36" cy="178.01" r="0.69" style="fill: rgb(69, 90, 100); transform-origin: 285.36px 178.01px;" id="eltbjwqw6qxld" class="animable"></circle><path d="M286.05,180.48a.69.69,0,0,1-1.38,0,.69.69,0,0,1,1.38,0Z" style="fill: rgb(69, 90, 100); transform-origin: 285.36px 180.48px;" id="elwk96j0upcbh" class="animable"></path><circle cx="285.36" cy="182.95" r="0.69" style="fill: rgb(69, 90, 100); transform-origin: 285.36px 182.95px;" id="elpbjqc65rypa" class="animable"></circle><rect x="163.23" y="193.96" width="134.42" height="116.69" style="fill: rgb(245, 245, 245); transform-origin: 230.44px 252.305px;" id="el1qz5q9p3e9a" class="animable"></rect><path d="M291.51,301.6a6.31,6.31,0,0,1,2.5-.26l-.26.26h0v-.49l0-.47c0-.3,0-.57.05-.79.05-.46.12-.74.19-.74s.14.28.18.74c0,.22.05.49.06.79v1h0l-.26.27A6,6,0,0,1,291.51,301.6Z" style="fill: rgb(224, 224, 224); transform-origin: 292.87px 300.52px;" id="el7pt7e99enuu" class="animable"></path><path d="M281.8,301.6a11.49,11.49,0,0,1,4.86,0,11.07,11.07,0,0,1-4.86,0Z" style="fill: rgb(224, 224, 224); transform-origin: 284.23px 301.605px;" id="elkrkagthko5f" class="animable"></path><path d="M272.1,301.6a5.91,5.91,0,0,1,2.42-.26,6,6,0,0,1,2.43.26,5.69,5.69,0,0,1-2.43.27A5.63,5.63,0,0,1,272.1,301.6Z" style="fill: rgb(224, 224, 224); transform-origin: 274.525px 301.606px;" id="el4a9ln4ddl4" class="animable"></path><path d="M262.39,301.6a6,6,0,0,1,2.43-.26,5.91,5.91,0,0,1,2.42.26,5.63,5.63,0,0,1-2.42.27A5.69,5.69,0,0,1,262.39,301.6Z" style="fill: rgb(224, 224, 224); transform-origin: 264.815px 301.606px;" id="elnn6xfwmr5m9" class="animable"></path><path d="M252.68,301.6a11.49,11.49,0,0,1,4.86,0,11.07,11.07,0,0,1-4.86,0Z" style="fill: rgb(224, 224, 224); transform-origin: 255.11px 301.605px;" id="el7w18hpv6nw" class="animable"></path><path d="M243,301.6a11.44,11.44,0,0,1,4.85,0,11,11,0,0,1-4.85,0Z" style="fill: rgb(224, 224, 224); transform-origin: 245.425px 301.605px;" id="el3gxeptxozcf" class="animable"></path><path d="M233.27,301.6a11.49,11.49,0,0,1,4.86,0,11.07,11.07,0,0,1-4.86,0Z" style="fill: rgb(224, 224, 224); transform-origin: 235.7px 301.605px;" id="el7dg816t0jyx" class="animable"></path><path d="M223.57,301.6a5.91,5.91,0,0,1,2.42-.26,6,6,0,0,1,2.43.26,5.69,5.69,0,0,1-2.43.27A5.63,5.63,0,0,1,223.57,301.6Z" style="fill: rgb(224, 224, 224); transform-origin: 225.995px 301.606px;" id="elidjfq7famq" class="animable"></path><path d="M213.86,301.6a6,6,0,0,1,2.43-.26,5.91,5.91,0,0,1,2.42.26,5.63,5.63,0,0,1-2.42.27A5.69,5.69,0,0,1,213.86,301.6Z" style="fill: rgb(224, 224, 224); transform-origin: 216.285px 301.606px;" id="elvwrn937aru" class="animable"></path><path d="M204.15,301.6a11.49,11.49,0,0,1,4.86,0,11.07,11.07,0,0,1-4.86,0Z" style="fill: rgb(224, 224, 224); transform-origin: 206.58px 301.605px;" id="elpea7styhiao" class="animable"></path><path d="M194.45,301.6a5.91,5.91,0,0,1,2.42-.26,6,6,0,0,1,2.43.26,5.69,5.69,0,0,1-2.43.27A5.63,5.63,0,0,1,194.45,301.6Z" style="fill: rgb(224, 224, 224); transform-origin: 196.875px 301.606px;" id="el1j47u6va2r1" class="animable"></path><path d="M184.74,301.6a11.49,11.49,0,0,1,4.86,0,11.07,11.07,0,0,1-4.86,0Z" style="fill: rgb(224, 224, 224); transform-origin: 187.17px 301.605px;" id="elp1wx5w3x6xq" class="animable"></path><path d="M177.39,299.1a6.31,6.31,0,0,1,.26,2.5l-.26-.26h1l.8.06c.45.05.73.11.73.18s-.28.14-.73.19l-.8,0-.47,0h-.5c-.12-.12.26.26-.26-.27A6.31,6.31,0,0,1,177.39,299.1Z" style="fill: rgb(224, 224, 224); transform-origin: 178.525px 300.446px;" id="elnquhd6rx12a" class="animable"></path><path d="M177.39,289.25a11.82,11.82,0,0,1,0,4.93,11.82,11.82,0,0,1,0-4.93Z" style="fill: rgb(224, 224, 224); transform-origin: 177.39px 291.715px;" id="elne24lxeeo0e" class="animable"></path><path d="M177.39,279.4a6.11,6.11,0,0,1,.26,2.46,6.18,6.18,0,0,1-.26,2.47,6.18,6.18,0,0,1-.26-2.47A6.11,6.11,0,0,1,177.39,279.4Z" style="fill: rgb(224, 224, 224); transform-origin: 177.39px 281.865px;" id="el4b94ju71lzj" class="animable"></path><path d="M177.39,269.55a11.77,11.77,0,0,1,0,4.92,11.77,11.77,0,0,1,0-4.92Z" style="fill: rgb(224, 224, 224); transform-origin: 177.39px 272.01px;" id="elj2gbgharwm" class="animable"></path><path d="M177.39,259.69a6.18,6.18,0,0,1,.26,2.47,6.11,6.11,0,0,1-.26,2.46,6.11,6.11,0,0,1-.26-2.46A6.18,6.18,0,0,1,177.39,259.69Z" style="fill: rgb(224, 224, 224); transform-origin: 177.39px 262.155px;" id="elin3ml8w3gic" class="animable"></path><path d="M177.39,249.84a6.11,6.11,0,0,1,.26,2.46,6.18,6.18,0,0,1-.26,2.47,6.18,6.18,0,0,1-.26-2.47A6.11,6.11,0,0,1,177.39,249.84Z" style="fill: rgb(224, 224, 224); transform-origin: 177.39px 252.305px;" id="elol6ctn9mu7i" class="animable"></path><path d="M177.39,240a11.77,11.77,0,0,1,0,4.92,11.77,11.77,0,0,1,0-4.92Z" style="fill: rgb(224, 224, 224); transform-origin: 177.39px 242.46px;" id="eljh5mtqh2rsm" class="animable"></path><path d="M177.39,230.13a6.18,6.18,0,0,1,.26,2.47,6.11,6.11,0,0,1-.26,2.46,6.11,6.11,0,0,1-.26-2.46A6.18,6.18,0,0,1,177.39,230.13Z" style="fill: rgb(224, 224, 224); transform-origin: 177.39px 232.595px;" id="elcw1z0skejlq" class="animable"></path><path d="M177.39,220.28a6.11,6.11,0,0,1,.26,2.46,6.18,6.18,0,0,1-.26,2.47,6.18,6.18,0,0,1-.26-2.47A6.11,6.11,0,0,1,177.39,220.28Z" style="fill: rgb(224, 224, 224); transform-origin: 177.39px 222.745px;" id="elgai4u41mz9h" class="animable"></path><path d="M177.39,210.43a11.77,11.77,0,0,1,0,4.92,11.77,11.77,0,0,1,0-4.92Z" style="fill: rgb(224, 224, 224); transform-origin: 177.39px 212.89px;" id="el9sebe8nx8v" class="animable"></path><path d="M179.89,203a6.11,6.11,0,0,1-2.5.26l.26-.26h0V204c0,.3,0,.57-.06.8,0,.45-.11.73-.18.73s-.14-.28-.19-.73c0-.23,0-.5,0-.8l0-.46V203h0l.26-.26A6.31,6.31,0,0,1,179.89,203Z" style="fill: rgb(224, 224, 224); transform-origin: 178.555px 204.123px;" id="eld3ty69ln6f7" class="animable"></path><path d="M189.6,203a11.49,11.49,0,0,1-4.86,0,11.49,11.49,0,0,1,4.86,0Z" style="fill: rgb(224, 224, 224); transform-origin: 187.17px 203px;" id="elusx7wa5wh2e" class="animable"></path><path d="M199.3,203a5.79,5.79,0,0,1-2.43.26,5.72,5.72,0,0,1-2.42-.26,5.91,5.91,0,0,1,2.42-.26A6,6,0,0,1,199.3,203Z" style="fill: rgb(224, 224, 224); transform-origin: 196.875px 203.002px;" id="elc00gg7pue" class="animable"></path><path d="M209,203a11.49,11.49,0,0,1-4.86,0,11.49,11.49,0,0,1,4.86,0Z" style="fill: rgb(224, 224, 224); transform-origin: 206.57px 203px;" id="elxmfytd4cobc" class="animable"></path><path d="M218.71,203a5.72,5.72,0,0,1-2.42.26,5.79,5.79,0,0,1-2.43-.26,6,6,0,0,1,2.43-.26A5.91,5.91,0,0,1,218.71,203Z" style="fill: rgb(224, 224, 224); transform-origin: 216.285px 203.002px;" id="elulw153ir16j" class="animable"></path><path d="M228.42,203a5.79,5.79,0,0,1-2.43.26,5.72,5.72,0,0,1-2.42-.26,5.91,5.91,0,0,1,2.42-.26A6,6,0,0,1,228.42,203Z" style="fill: rgb(224, 224, 224); transform-origin: 225.995px 203.002px;" id="el9t411kwi59" class="animable"></path><path d="M238.13,203a11.49,11.49,0,0,1-4.86,0,11.49,11.49,0,0,1,4.86,0Z" style="fill: rgb(224, 224, 224); transform-origin: 235.7px 203px;" id="eli0dul1msj4q" class="animable"></path><path d="M247.83,203a11.44,11.44,0,0,1-4.85,0,11.44,11.44,0,0,1,4.85,0Z" style="fill: rgb(224, 224, 224); transform-origin: 245.405px 203px;" id="eln2ea39poseo" class="animable"></path><path d="M257.54,203a11.49,11.49,0,0,1-4.86,0,11.49,11.49,0,0,1,4.86,0Z" style="fill: rgb(224, 224, 224); transform-origin: 255.11px 203px;" id="ellv3498b3q9d" class="animable"></path><path d="M267.24,203a5.72,5.72,0,0,1-2.42.26,5.79,5.79,0,0,1-2.43-.26,6,6,0,0,1,2.43-.26A5.91,5.91,0,0,1,267.24,203Z" style="fill: rgb(224, 224, 224); transform-origin: 264.815px 203.002px;" id="el2ux69z0j48" class="animable"></path><path d="M277,203a5.79,5.79,0,0,1-2.43.26,5.72,5.72,0,0,1-2.42-.26,5.91,5.91,0,0,1,2.42-.26A6,6,0,0,1,277,203Z" style="fill: rgb(224, 224, 224); transform-origin: 274.575px 203.002px;" id="el7t30m1q6nu7" class="animable"></path><path d="M286.66,203a11.49,11.49,0,0,1-4.86,0,11.49,11.49,0,0,1,4.86,0Z" style="fill: rgb(224, 224, 224); transform-origin: 284.23px 203px;" id="elr75b83h00n8" class="animable"></path><path d="M294,205.5a6.11,6.11,0,0,1-.26-2.5c.52.52.14.15.26.26h-.5l-.47,0-.8-.05c-.45-.05-.73-.12-.73-.19s.28-.14.73-.18c.23,0,.5,0,.8-.06h1l.26.26A6.31,6.31,0,0,1,294,205.5Z" style="fill: rgb(224, 224, 224); transform-origin: 292.905px 204.14px;" id="elu42rg8zq96e" class="animable"></path><path d="M294,215.35a11.77,11.77,0,0,1,0-4.92,11.77,11.77,0,0,1,0,4.92Z" style="fill: rgb(224, 224, 224); transform-origin: 294px 212.89px;" id="el205ow821r5b" class="animable"></path><path d="M294,225.21a6,6,0,0,1-.26-2.47,5.91,5.91,0,0,1,.26-2.46,6.11,6.11,0,0,1,.26,2.46A6.18,6.18,0,0,1,294,225.21Z" style="fill: rgb(224, 224, 224); transform-origin: 293.998px 222.745px;" id="el6d04xl92wld" class="animable"></path><path d="M294,235.06a5.91,5.91,0,0,1-.26-2.46,6,6,0,0,1,.26-2.47,6.18,6.18,0,0,1,.26,2.47A6.11,6.11,0,0,1,294,235.06Z" style="fill: rgb(224, 224, 224); transform-origin: 293.998px 232.595px;" id="elqovh9esqa8" class="animable"></path><path d="M294,244.91a11.77,11.77,0,0,1,0-4.92,11.77,11.77,0,0,1,0,4.92Z" style="fill: rgb(224, 224, 224); transform-origin: 294px 242.45px;" id="eluol09cc3fir" class="animable"></path><path d="M294,254.77a6,6,0,0,1-.26-2.47,5.91,5.91,0,0,1,.26-2.46,6.11,6.11,0,0,1,.26,2.46A6.18,6.18,0,0,1,294,254.77Z" style="fill: rgb(224, 224, 224); transform-origin: 293.998px 252.305px;" id="eldxhrg8ifq67" class="animable"></path><path d="M294,264.62a5.91,5.91,0,0,1-.26-2.46,6,6,0,0,1,.26-2.47,6.18,6.18,0,0,1,.26,2.47A6.11,6.11,0,0,1,294,264.62Z" style="fill: rgb(224, 224, 224); transform-origin: 293.998px 262.155px;" id="elf1xoiytc82l" class="animable"></path><path d="M294,274.47a11.77,11.77,0,0,1,0-4.92,11.77,11.77,0,0,1,0,4.92Z" style="fill: rgb(224, 224, 224); transform-origin: 294px 272.01px;" id="elc066zohirw" class="animable"></path><path d="M294,284.33a6,6,0,0,1-.26-2.47,5.91,5.91,0,0,1,.26-2.46,6.11,6.11,0,0,1,.26,2.46A6.18,6.18,0,0,1,294,284.33Z" style="fill: rgb(224, 224, 224); transform-origin: 293.998px 281.865px;" id="elna9uneiz8kr" class="animable"></path><path d="M294,294.18a11.82,11.82,0,0,1,0-4.93,11.82,11.82,0,0,1,0,4.93Z" style="fill: rgb(224, 224, 224); transform-origin: 294px 291.715px;" id="elbczsn8zzghe" class="animable"></path><polygon points="215.37 249.17 215.37 266.03 244.56 266.03 244.56 249.17 238.31 249.17 238.31 259.87 221.56 259.87 221.56 249.17 215.37 249.17" style="fill: rgb(224, 224, 224); transform-origin: 229.965px 257.6px;" id="elbgxo9zpcapw" class="animable"></polygon><polygon points="226.64 255.47 233.41 255.47 233.41 244.08 239.84 244.08 230.37 228.89 220.2 243.75 226.8 243.75 226.64 255.47" style="fill: rgb(224, 224, 224); transform-origin: 230.02px 242.18px;" id="elaoxhiuu0lod" class="animable"></polygon><path d="M193.55,329.39l-1.31-.6a3.33,3.33,0,1,1,1-.72Zm-3-7.14a3.4,3.4,0,0,0,0,6.8,3.49,3.49,0,0,0,1.64-.51l0,0,1,.44L193,328l0-.05a3.36,3.36,0,0,0,.91-2.3A3.4,3.4,0,0,0,190.54,322.25Z" style="fill: rgb(38, 50, 56); transform-origin: 190.654px 325.82px;" id="el4oqri5xzkok" class="animable"></path><path d="M202,328.89l-1.48-3.68-2.8-2.6h6.85Zm-3.65-6,2.39,2.23,1.26,3.14,2.2-5.37Z" style="fill: rgb(38, 50, 56); transform-origin: 201.145px 325.75px;" id="elvo5vio5osu" class="animable"></path><g id="el8nqr2yi4zye"><rect x="200.29" y="323.81" width="4.46" height="0.25" style="fill: rgb(38, 50, 56); transform-origin: 202.52px 323.935px; transform: rotate(-32.59deg);" class="animable"></rect></g><path d="M228.43,323.92a1.4,1.4,0,1,1-1.39-1.36A1.38,1.38,0,0,1,228.43,323.92Z" style="fill: rgb(38, 50, 56); transform-origin: 227.031px 323.96px;" id="elt0auwejpju" class="animable"></path><path d="M232.76,323.94a1.4,1.4,0,1,1-1.39-1.36A1.37,1.37,0,0,1,232.76,323.94Z" style="fill: rgb(38, 50, 56); transform-origin: 231.361px 323.98px;" id="elrwraiwwehqc" class="animable"></path><path d="M237.1,324a1.4,1.4,0,1,1-1.4-1.36A1.38,1.38,0,0,1,237.1,324Z" style="fill: rgb(38, 50, 56); transform-origin: 235.701px 324.04px;" id="elk5l9bldf7gq" class="animable"></path><path d="M284.19,329.74l-2.83-2.83-2.69,2.69v-8.13h5.52Zm-2.83-3.18.09.08,2.49,2.5v-7.42h-5V329Z" style="fill: rgb(38, 50, 56); transform-origin: 281.43px 325.605px;" id="el5ra1v1mdmh7" class="animable"></path><path d="M278.56,343.53c0,.14-23.6.26-52.7.26s-52.7-.12-52.7-.26,23.59-.26,52.7-.26S278.56,343.38,278.56,343.53Z" style="fill: rgb(38, 50, 56); transform-origin: 225.86px 343.53px;" id="elkp6np5ztbk" class="animable"></path><path d="M225.63,349.76c0,.14-11.75.26-26.23.26s-26.24-.12-26.24-.26,11.74-.26,26.24-.26S225.63,349.61,225.63,349.76Z" style="fill: rgb(38, 50, 56); transform-origin: 199.395px 349.76px;" id="elaztjkogchho" class="animable"></path><path d="M251.28,368.45c0,.14-11.74.26-26.23.26s-26.24-.12-26.24-.26,11.75-.27,26.24-.27S251.28,368.3,251.28,368.45Z" style="fill: rgb(38, 50, 56); transform-origin: 225.045px 368.445px;" id="elrhlrk1qen4" class="animable"></path><path d="M194.06,368.45c0,.14-4.68.26-10.45.26s-10.45-.12-10.45-.26a101.07,101.07,0,0,1,10.45-.27A101.07,101.07,0,0,1,194.06,368.45Z" style="fill: rgb(38, 50, 56); transform-origin: 183.61px 368.428px;" id="elyxvbyfd4d6" class="animable"></path><path d="M251.28,390.23c0,.14-11.74.26-26.23.26s-26.24-.12-26.24-.26,11.75-.26,26.24-.26S251.28,390.08,251.28,390.23Z" style="fill: rgb(38, 50, 56); transform-origin: 225.045px 390.23px;" id="elsynxoot4hgd" class="animable"></path><path d="M194.06,390.23c0,.14-4.68.26-10.45.26s-10.45-.12-10.45-.26a103,103,0,0,1,10.45-.26A103,103,0,0,1,194.06,390.23Z" style="fill: rgb(38, 50, 56); transform-origin: 183.61px 390.213px;" id="el2qplbhe6d73" class="animable"></path><path d="M231.34,376.3c0,.15-7.13.27-15.92.27s-15.91-.12-15.91-.27,7.12-.26,15.91-.26S231.34,376.16,231.34,376.3Z" style="fill: rgb(38, 50, 56); transform-origin: 215.425px 376.305px;" id="elnj9srz0w2sc" class="animable"></path><path d="M231.34,398.77c0,.15-7.13.26-15.92.26s-15.91-.11-15.91-.26,7.12-.26,15.91-.26S231.34,398.63,231.34,398.77Z" style="fill: rgb(38, 50, 56); transform-origin: 215.425px 398.77px;" id="eljvsucns7s9" class="animable"></path><path d="M182.82,323.26a2.12,2.12,0,0,0-4.18.1,2.12,2.12,0,0,0-4.18-.1,2.83,2.83,0,0,0,.51,2.06,8.25,8.25,0,0,0,1.48,1.59l2.22,2c.76-.68,1.4-1.32,2.16-2a8.63,8.63,0,0,0,1.49-1.59A2.82,2.82,0,0,0,182.82,323.26Z" style="fill: rgb(3, 169, 241); transform-origin: 178.641px 325.226px;" id="elaeveu4s9snr" class="animable"></path><path d="M282.15,134.68l-103.07-.48a22.46,22.46,0,0,0-22.55,22.36l-1.09,258.38a22.44,22.44,0,0,0,22.34,22.54l103.07.48A22.44,22.44,0,0,0,303.4,415.6l1.09-258.38A22.44,22.44,0,0,0,282.15,134.68Zm14.43,276.9a15.72,15.72,0,0,1-15.79,15.66l-102.86-.48A15.72,15.72,0,0,1,162.28,411l1.07-252.19a15.72,15.72,0,0,1,15.79-15.66l17.49.08,7,0a5,5,0,0,1,4.83,5.1V152a5,5,0,0,0,4.83,5.1l38.95.18a5,5,0,0,0,4.87-5v-3.63A5,5,0,0,1,262,143.5l20,.1a15.71,15.71,0,0,1,15.65,15.78Z" style="fill: rgb(38, 50, 56); transform-origin: 229.965px 286.08px;" id="elb8ctrkllt5n" class="animable"></path></g><g id="freepik--character-2--inject-43" class="animable" style="transform-origin: 361.23px 297.349px;"><path d="M402.83,224.21l-18.05-6s-8,23-10.42,23.2c-13.55,1.24-28-3.25-33.12-5-.51-.57-1.1-1.27-1.76-2.12a8.06,8.06,0,0,1-1.27-2.43,12.46,12.46,0,0,1-.73-3.35,1.06,1.06,0,0,0-1.82-.84c-.59.76-.74,3.66.6,6.79s-3.4.63-5.14-.24-7.25-3.33-7.94-3c-1,.47-.7,1.64,1.06,2.48s6.86,3.7,6.35,4.59-9.3-3.68-9.3-3.68-1.72-1.29-2.34-.27c-1.12,1.84,8.6,6,9.53,6.38.65.26.13,1.25-.55.94s-8.67-4.77-9.82-2.91c-.89,1.43,7.95,3.51,9.09,5.34s-6.54-2.25-7.33-.86c-.3.52-.44,1,4.31,2.67a103,103,0,0,0,10.6,2.7l0,.05s47.5,21.24,57.74.76C403.37,227.62,402.83,224.21,402.83,224.21Z" style="fill: rgb(235, 153, 110); transform-origin: 360.441px 238.265px;" id="elhnu1pm5yscb" class="animable"></path><g id="el7g74myrcj36"><rect x="239.95" y="191.86" width="134.15" height="107.25" style="fill: rgb(235, 235, 235); transform-origin: 307.025px 245.485px; transform: rotate(-0.11deg);" class="animable"></rect></g><path d="M374,191.73l-.65,0-1.87,0-7.28,0-27.45.11-96.9.29.23-.23c.07,31.92.15,68.51.23,107.23v0l-.26-.26,134.14-.21L374,299c0-32.31,0-59.1,0-77.82,0-9.36,0-16.71,0-21.72,0-2.51,0-4.42,0-5.73s0-2,0-2,0,.65,0,1.94,0,3.2,0,5.68c0,5,.05,12.33.09,21.68.07,18.75.15,45.58.26,78v.22h-.22l-134.14.29h-.26v-.28c-.06-38.72-.12-75.31-.17-107.23v-.23h.23l97-.06H374Z" style="fill: rgb(38, 50, 56); transform-origin: 306.955px 245.635px;" id="elq9gfl9tuw4f" class="animable"></path><g id="eljifw6kma7yg"><rect x="244.57" y="198.61" width="124.72" height="93.74" style="fill: rgb(3, 169, 241); transform-origin: 306.93px 245.48px; transform: rotate(-0.11deg);" class="animable"></rect></g><polygon points="244.66 292.47 288.11 234.12 315.17 270.52 333.43 251 369.38 292.24 244.66 292.47" style="fill: rgb(3, 169, 241); transform-origin: 307.02px 263.295px;" id="el3fsqshjqdsu" class="animable"></polygon><path d="M326.54,226.91a9.82,9.82,0,1,1-9.84-9.8A9.82,9.82,0,0,1,326.54,226.91Z" style="fill: rgb(3, 169, 241); transform-origin: 316.72px 226.93px;" id="elqdkkuiz8dc" class="animable"></path><g id="elhxvo9tyv2hq"><g style="opacity: 0.2; transform-origin: 307.02px 263.295px;" class="animable"><polygon points="244.66 292.47 288.11 234.12 315.17 270.52 333.43 251 369.38 292.24 244.66 292.47" id="elrbx30zeuea" class="animable" style="transform-origin: 307.02px 263.295px;"></polygon></g></g><g id="el85laurkp549"><g style="opacity: 0.2; transform-origin: 316.72px 226.93px;" class="animable"><path d="M326.54,226.91a9.82,9.82,0,1,1-9.84-9.8A9.82,9.82,0,0,1,326.54,226.91Z" id="elblmgl2pka7f" class="animable" style="transform-origin: 316.72px 226.93px;"></path></g></g><path d="M479.56,397.76l-35-21.23-6.83,17.11,36.17,18.29s-2.59,10.05-2,12.25L481.57,399Z" style="fill: rgb(255, 190, 157); transform-origin: 459.65px 400.355px;" id="ele0h7m6rg9n" class="animable"></path><polygon points="471.86 424.19 472.87 424.58 482.9 398.67 481.82 398.24 471.86 424.19" style="fill: rgb(38, 50, 56); transform-origin: 477.38px 411.41px;" id="eldopko6iujbd" class="animable"></polygon><path d="M476.09,415.29c0,.15-.93.25-1.87.84s-1.45,1.36-1.59,1.29.23-1.07,1.32-1.73S476.11,415.15,476.09,415.29Z" style="fill: rgb(38, 50, 56); transform-origin: 474.346px 416.302px;" id="ell9spi69pkmj" class="animable"></path><path d="M478.94,397.14c.15,0-.21,1.91-.06,4.24s.69,4.16.55,4.21a8.62,8.62,0,0,1-1.07-4.18A8.53,8.53,0,0,1,478.94,397.14Z" style="fill: rgb(38, 50, 56); transform-origin: 478.876px 401.365px;" id="eljnwa91fh6oh" class="animable"></path><path d="M478.1,397.47a55.06,55.06,0,0,1-2.9,6.93,52.37,52.37,0,0,1-3.37,6.71,108.7,108.7,0,0,1,6.27-13.64Z" style="fill: rgb(38, 50, 56); transform-origin: 474.965px 404.29px;" id="elhtjh8h7de8o" class="animable"></path><path d="M378.59,394.3H360.17l-3.57,40.37s-10.29,1.33-12.13,2.66l27-.33.42-2.33h0Z" style="fill: rgb(255, 190, 157); transform-origin: 361.53px 415.815px;" id="elticxpji6ac" class="animable"></path><polygon points="344.47 437.33 344.47 438.41 372.26 438.11 372.26 436.95 344.47 437.33" style="fill: rgb(38, 50, 56); transform-origin: 358.365px 437.68px;" id="elbiyrd64qdwv" class="animable"></polygon><path d="M354.3,438c-.14.06-.58-.77-1.48-1.42s-1.8-.85-1.78-1a2.35,2.35,0,0,1,2.09.59C354.16,436.87,354.43,437.92,354.3,438Z" style="fill: rgb(38, 50, 56); transform-origin: 352.685px 436.767px;" id="elcgaouvi5cc" class="animable"></path><path d="M372.21,433.87c0,.15-1.85.52-4,1.52s-3.61,2.19-3.71,2.07a11.22,11.22,0,0,1,7.67-3.59Z" style="fill: rgb(38, 50, 56); transform-origin: 368.355px 435.669px;" id="el3mzxao263nw" class="animable"></path><path d="M371.59,433.21a55,55,0,0,1-7.51-.12,53,53,0,0,1-7.48-.64,55,55,0,0,1,7.51.12A54.9,54.9,0,0,1,371.59,433.21Z" style="fill: rgb(38, 50, 56); transform-origin: 364.095px 432.83px;" id="el0asw1jm09c9s" class="animable"></path><path d="M397.23,288.74s3.84,83,6.46,86.43,50.38,34,50.38,34l11.27-26.44s-34.66-24.07-34.63-25.63.26-82.38.26-82.38Z" style="fill: rgb(69, 90, 100); transform-origin: 431.285px 341.945px;" id="elw4zhec2z8u" class="animable"></path><path d="M407.1,338.41a4.92,4.92,0,0,1,.11.63l.24,1.82.83,6.82c.67,5.87,1.6,14,2.67,23.48l-.07-.15,8.59,8.6.47.47,0,0a166.4,166.4,0,0,0,14,10.22L445.7,398c3.36,2.22,6,4.07,7.85,5.38.91.66,1.61,1.19,2.08,1.54l.53.41c.12.1.18.15.17.16l-.2-.12-.56-.37-2.14-1.45c-1.85-1.26-4.55-3.07-7.93-5.24s-7.43-4.73-11.88-7.66a156.16,156.16,0,0,1-14-10.21h0l-.47-.47-8.57-8.61-.07-.07v-.08c-1-9.45-1.87-17.63-2.49-23.51-.28-2.88-.51-5.19-.68-6.83l-.15-1.83A2.58,2.58,0,0,1,407.1,338.41Z" style="fill: rgb(38, 50, 56); transform-origin: 431.716px 371.95px;" id="elmefo31jvfhd" class="animable"></path><path d="M418.39,318.84a.79.79,0,0,1,0,.25l0,.74c0,.69,0,1.64.05,2.84,0,2.52.05,6.08.09,10.47s0,9.68.05,15.51c0,2.92,0,6,0,9.17a18.65,18.65,0,0,0,.39,4.76,15.51,15.51,0,0,0,5,8.25c1.25,1,2.58,2,3.85,2.91,2.55,1.89,5,3.69,7.41,5.39l12.61,9c3.58,2.59,6.46,4.71,8.43,6.2l2.25,1.74.58.46q.19.17.18.18l-.21-.13-.61-.43-2.31-1.65-8.52-6.07c-3.62-2.55-7.92-5.58-12.68-9-2.38-1.69-4.87-3.48-7.43-5.37-1.28-.95-2.58-1.88-3.89-2.93a16,16,0,0,1-3.27-3.85,15.79,15.79,0,0,1-1.9-4.68,19.73,19.73,0,0,1-.39-4.87c0-3.18,0-6.25,0-9.17,0-5.83,0-11.08.06-15.51l.08-10.47c0-1.2,0-2.15,0-2.84l0-.74A.67.67,0,0,1,418.39,318.84Z" style="fill: rgb(38, 50, 56); transform-origin: 438.666px 357.775px;" id="elp6g95511cnf" class="animable"></path><path d="M426.07,305.53a1.1,1.1,0,0,1,0,.24v.71c0,.66,0,1.56,0,2.71,0,2.39-.06,5.8-.11,10-.15,8.51-.35,20.26-.58,33.4v.05a8.53,8.53,0,0,0,0,3.38,12.59,12.59,0,0,0,2,4.6,23,23,0,0,0,3.24,3.76c2.42,2.19,4.9,4.21,7.22,6.13,4.67,3.84,9,7.16,12.69,9.84s6.79,4.73,8.94,6.11L462,388l.65.42.21.16s-.09,0-.24-.11l-.67-.38c-.59-.33-1.45-.83-2.54-1.5-2.18-1.33-5.3-3.34-9-6s-8.09-5.94-12.79-9.76c-2.34-1.93-4.8-3.92-7.26-6.14a24,24,0,0,1-3.32-3.83,13.12,13.12,0,0,1-2.1-4.8,8.84,8.84,0,0,1,0-3.59v.05c.29-13.14.54-24.89.73-33.39.12-4.21.21-7.61.28-10,0-1.14.07-2.05.1-2.71l0-.7A.75.75,0,0,1,426.07,305.53Z" style="fill: rgb(38, 50, 56); transform-origin: 443.808px 347.055px;" id="eldqma24xati" class="animable"></path><path d="M433.31,269l.74,3a35.47,35.47,0,0,1-3.73,26.18l-33.16,57.48a46.17,46.17,0,0,0-5.08,13.07l-9.27,45.34-28.51-.62s5.69-33,8.68-51.65c2.26-14,21.06-57.64,30.16-78.23L397.3,275h0Z" style="fill: rgb(69, 90, 100); transform-origin: 394.685px 341.535px;" id="elegot1ou9dl" class="animable"></path><path d="M400.34,279.39a2.25,2.25,0,0,1-.13.34l-.4,1-1.61,3.71c-.71,1.6-1.58,3.56-2.53,5.87s-2.09,4.89-3.24,7.81-2.46,6.09-3.75,9.54-2.66,7.14-4.08,11c-2.75,7.81-5.61,16.47-8.33,25.63s-5,18-6.9,26.07c-.92,4-1.82,7.87-2.55,11.49s-1.43,7-2,10-1.07,5.87-1.51,8.32-.79,4.57-1.06,6.3-.5,3-.65,4c-.08.44-.14.78-.19,1a1.5,1.5,0,0,1-.08.35,1.64,1.64,0,0,1,0-.36c0-.26.08-.6.13-1,.13-.95.32-2.29.56-4s.55-3.86,1-6.32.84-5.26,1.44-8.34,1.19-6.46,1.95-10.07,1.61-7.46,2.52-11.51c1.89-8.08,4.17-16.91,6.86-26.1s5.6-17.84,8.38-25.65c1.43-3.9,2.76-7.61,4.13-11s2.61-6.63,3.81-9.53,2.33-5.5,3.31-7.79,1.87-4.24,2.61-5.83l1.7-3.67.46-.95A1.17,1.17,0,0,1,400.34,279.39Z" style="fill: rgb(38, 50, 56); transform-origin: 380.83px 345.605px;" id="elz8dh0m0u6co" class="animable"></path><path d="M416.44,276.84a1.64,1.64,0,0,1-.15.34c-.13.25-.29.58-.49,1l-1.94,3.77c-.85,1.63-1.89,3.63-3,6s-2.51,5-3.89,8c-.7,1.48-1.44,3-2.2,4.66s-1.51,3.34-2.31,5.1c-1.61,3.52-3.2,7.33-4.9,11.33-3.31,8-6.75,17-10,26.44s-6,18.65-8.33,27c-1.12,4.2-2.21,8.19-3.1,12-.45,1.88-.92,3.69-1.32,5.44s-.77,3.43-1.13,5c-.74,3.21-1.3,6.13-1.83,8.69s-1,4.76-1.28,6.57-.61,3.19-.79,4.17c-.09.45-.16.81-.22,1.08a1.8,1.8,0,0,1-.09.36,1.47,1.47,0,0,1,0-.37c0-.27.1-.63.17-1.09.16-1,.39-2.39.69-4.18s.68-4,1.19-6.6,1-5.49,1.76-8.7l1.1-5.05c.39-1.76.85-3.57,1.29-5.45.87-3.77,2-7.77,3.05-12,2.31-8.39,5.06-17.56,8.31-27.07s6.74-18.42,10.08-26.45c1.72-4,3.32-7.82,5-11.33.81-1.75,1.56-3.47,2.33-5.09l2.24-4.65c1.4-3,2.78-5.62,4-7.95s2.23-4.33,3.11-5.94,1.55-2.85,2-3.73l.54-1A1.56,1.56,0,0,1,416.44,276.84Z" style="fill: rgb(38, 50, 56); transform-origin: 392.949px 345.315px;" id="eldujyqzyqtxa" class="animable"></path><path d="M435.18,273.72s-.07.12-.22.33l-.66.95c-.62.84-1.49,2.05-2.61,3.6l-1.89,2.6-2.16,3.15c-1.53,2.28-3.35,4.82-5.16,7.76l-2.9,4.57c-1,1.59-2,3.3-3,5-2.12,3.46-4.16,7.29-6.35,11.29-4.25,8.08-8.59,17.13-12.59,26.87s-7.17,19.28-9.78,28c-1.23,4.39-2.45,8.56-3.36,12.51-.47,2-1,3.87-1.37,5.71s-.76,3.61-1.12,5.3c-.76,3.37-1.23,6.46-1.73,9.15-.24,1.35-.46,2.61-.66,3.77s-.33,2.22-.46,3.18c-.29,1.88-.51,3.36-.66,4.39-.08.49-.14.86-.19,1.15a1.74,1.74,0,0,1-.08.38,3.83,3.83,0,0,1,0-.39c0-.28.08-.66.13-1.15.14-1,.32-2.52.56-4.41.13-1,.27-2,.42-3.19s.4-2.42.62-3.78c.47-2.7.92-5.79,1.66-9.17l1.09-5.32c.38-1.84.88-3.74,1.34-5.72.9-4,2.1-8.14,3.32-12.55,2.59-8.76,5.8-18.29,9.75-28.08s8.38-18.82,12.65-26.89c2.21-4,4.27-7.83,6.41-11.29,1.05-1.74,2-3.44,3-5l2.94-4.56c1.84-2.93,3.68-5.46,5.23-7.72.79-1.13,1.51-2.19,2.2-3.14l1.93-2.57,2.68-3.55.71-.91C435.08,273.81,435.17,273.71,435.18,273.72Z" style="fill: rgb(38, 50, 56); transform-origin: 406.703px 343.55px;" id="elia8mzlveyue" class="animable"></path><path d="M397.16,355.64c-.12-.07,7.2-13,16.35-28.87s16.69-28.68,16.81-28.61-7.2,13-16.35,28.87S397.29,355.71,397.16,355.64Z" style="fill: rgb(38, 50, 56); transform-origin: 413.74px 326.9px;" id="elaxlrh8cvogg" class="animable"></path><path d="M420.67,205.19h0l7.88.14,6.27,17.94-6.65,22.89c-1.49,6,9.62,17.13,9.62,26.5l-47.08,6.74,3-19.9-4.07-13.39,0-1-15.3-7.63,5.05-12.37c7.77-18.2,21.34-19.31,21.34-19.31Z" style="fill: rgb(38, 50, 56); transform-origin: 406.065px 242.295px;" id="elvss2sjojsfk" class="animable"></path><path d="M389.91,244.91a2.76,2.76,0,0,1-1-.51,7.57,7.57,0,0,1-2-2.1,6.78,6.78,0,0,1-1-4.23,9.41,9.41,0,0,1,4.85-7.84l-.13.18c.37-2.71.7-5,1-6.69a16.7,16.7,0,0,1,.49-2.61,16.5,16.5,0,0,1-.19,2.65c-.17,1.66-.44,4-.77,6.72v.12l-.12.06a9.15,9.15,0,0,0-4.6,7.44,6.58,6.58,0,0,0,.88,4,8.31,8.31,0,0,0,1.86,2.14A9.11,9.11,0,0,1,389.91,244.91Z" style="fill: rgb(69, 90, 100); transform-origin: 389px 233.01px;" id="elwbw8yh7jns" class="animable"></path><path d="M428.55,205.33s14.84,1.75,13.27,19.39c-1.6,18-4.33,20.19-4.33,20.19l-20.93-8.16c4.37-8.85,4.49-8.94,6.58-18.46l5.41-13Z" style="fill: rgb(38, 50, 56); transform-origin: 429.248px 225.1px;" id="el718y80mjps4" class="animable"></path><path d="M423.93,218.17a15.55,15.55,0,0,1-.78,2.74c-.55,1.66-1.32,4-2.29,6.46s-2,4.7-2.76,6.28a15.23,15.23,0,0,1-1.35,2.49,16.43,16.43,0,0,1,1-2.65c.68-1.61,1.63-3.83,2.6-6.31l2.43-6.4A16.1,16.1,0,0,1,423.93,218.17Z" style="fill: rgb(69, 90, 100); transform-origin: 420.34px 227.155px;" id="elqsfat5fidp" class="animable"></path><path d="M427.41,170.31c1.86,3.73,2.85,7,6.55,8.88,1.67.87,3.7,1.36,4.71,2.95s.58,4.23,2,5.74c2,2.19,6.13.41,8.39,2.35,2,1.72,1.37,5.43,3.54,7,1.22.86,2.89.67,4.28,1.21,2.29.88,3.37,3.51,3.67,5.94a10.44,10.44,0,0,1-.71,5.75,5.89,5.89,0,0,1-4.47,3.42c-2.59.27-5.52-1.51-7.62,0a10.06,10.06,0,0,0-1.74,2.13,6.54,6.54,0,0,1-10.74-.67c-1.45-2.41-1.36-5.73-3.47-7.58a12.39,12.39,0,0,0-4-1.82c-1.37-.51-2.8-1.37-3.21-2.77a12.2,12.2,0,0,0-2-3.43c-1.06-1.58-2.47.35-3.87-.43s-.87-2.3-1-3.9" style="fill: rgb(3, 169, 241); transform-origin: 439.2px 194.242px;" id="el6oleesrshe6" class="animable"></path><path d="M420.34,204.49a3,3,0,0,1,.11,1,8.15,8.15,0,0,1-.56,2.76,8.46,8.46,0,0,1-2.45,3.41,8.45,8.45,0,0,1-9.76.59,8.52,8.52,0,0,1-2.84-3.09,7.69,7.69,0,0,1-.88-2.68,2.57,2.57,0,0,1,0-1,11.15,11.15,0,0,0,1.22,3.53,8.35,8.35,0,0,0,2.78,2.86,8,8,0,0,0,4.68,1.15,8.05,8.05,0,0,0,4.52-1.7,8.45,8.45,0,0,0,2.41-3.18A11.35,11.35,0,0,0,420.34,204.49Z" style="fill: rgb(69, 90, 100); transform-origin: 412.183px 209.008px;" id="el00xwhn01vtjtb" class="animable"></path><path d="M420.15,205.41l1.34-31.07L409.14,165l-11.21,5.49s-.37,14.08,0,20.19,6.54,6.76,6.54,6.76-.14,3.57-.28,7.34a8,8,0,0,0,8.06,8.27h0A8,8,0,0,0,420.15,205.41Z" style="fill: rgb(255, 190, 157); transform-origin: 409.628px 189.025px;" id="elrq6h91l7rg9" class="animable"></path><path d="M399.16,180.79a.78.78,0,1,0,.78-.78A.78.78,0,0,0,399.16,180.79Z" style="fill: rgb(38, 50, 56); transform-origin: 399.94px 180.79px;" id="ell3nt303noxk" class="animable"></path><path d="M398.4,179.94c.1.1.68-.39,1.52-.44s1.47.36,1.56.25-.06-.24-.34-.43a2,2,0,0,0-1.25-.32,2,2,0,0,0-1.21.48C398.43,179.7,398.35,179.9,398.4,179.94Z" style="fill: rgb(38, 50, 56); transform-origin: 399.946px 179.474px;" id="elbk4q9se9qkq" class="animable"></path><path d="M408.22,180.79A.78.78,0,1,0,409,180,.78.78,0,0,0,408.22,180.79Z" style="fill: rgb(38, 50, 56); transform-origin: 409px 180.78px;" id="el3fale7um1e6" class="animable"></path><path d="M407.73,179.93c.1.1.68-.39,1.52-.43s1.47.36,1.56.24-.06-.23-.34-.42a2.08,2.08,0,0,0-2.46.15C407.76,179.69,407.68,179.89,407.73,179.93Z" style="fill: rgb(38, 50, 56); transform-origin: 409.276px 179.465px;" id="el9mymkq0rjym" class="animable"></path><path d="M439.27,191.92a4.4,4.4,0,0,1-2.21-.5,6.1,6.1,0,0,1-2.42-2.34,25.41,25.41,0,0,1-1.81-3.87c-1.14-2.83-2-5.47-2.59-7.39L430,177a8.23,8.23,0,0,0-.16-.83c-3.34-12.73-14.54-15.1-16.75-15.1-2.38,0-6.53-1.3-12.59,5a13.7,13.7,0,0,0-2.29,3.17,13.81,13.81,0,0,0-2.7,5.75,7.15,7.15,0,0,0-.14,3c.12,0,.14-1.16.61-2.93a14.47,14.47,0,0,1,1.17-3,11.58,11.58,0,0,0,.63,7l2.17-.6,7.77-2.65c-.7-2.41.33-5.4.92-6.8l.06-.05A12.16,12.16,0,0,0,419,179l1.45,20c10.34-2.22,10.09-16,10-18.86.47,1.58,1.08,3.4,1.84,5.31a23.62,23.62,0,0,0,1.9,3.94,6.41,6.41,0,0,0,2.68,2.42,4.26,4.26,0,0,0,2.42.35c.57-.11.84-.29.83-.32A6.75,6.75,0,0,0,439.27,191.92Z" style="fill: rgb(3, 169, 241); transform-origin: 417.697px 179.98px;" id="elx9atnzbcwq" class="animable"></path><path d="M404.7,187a6.9,6.9,0,0,0-1.38-.17c-.21,0-.42,0-.47-.2A1.23,1.23,0,0,1,403,186c.18-.55.37-1.13.58-1.74.4-1.24.74-2.37,1-3.19a5.54,5.54,0,0,0,.31-1.36,6.06,6.06,0,0,0-.54,1.28c-.29.81-.67,1.92-1.07,3.16-.19.62-.37,1.2-.55,1.76a1.37,1.37,0,0,0-.08.88.51.51,0,0,0,.36.3,1.19,1.19,0,0,0,.36,0A5.48,5.48,0,0,0,404.7,187Z" style="fill: rgb(38, 50, 56); transform-origin: 403.751px 183.407px;" id="elzbtkit2n4yf" class="animable"></path><path d="M422.15,186.78a7.66,7.66,0,0,1,.32-3,2.87,2.87,0,0,1,2.2-1.9,2.42,2.42,0,0,1,2.48,2,3,3,0,0,1-1.51,2.93,3.88,3.88,0,0,1-3.39.1" style="fill: rgb(255, 190, 157); transform-origin: 424.642px 184.565px;" id="elce9gks1qwcn" class="animable"></path><path d="M423.93,185.89c0-.07.33.08.76,0a1.37,1.37,0,0,0,.91-1.3,1,1,0,0,0-.22-.81.88.88,0,0,0-.66-.2c-.46,0-.78.16-.81.08s.21-.28.75-.44a1.2,1.2,0,0,1,1,.2,1.39,1.39,0,0,1,.42,1.2,1.91,1.91,0,0,1-.45,1.14,1.44,1.44,0,0,1-.9.48C424.15,186.25,423.88,185.92,423.93,185.89Z" style="fill: rgb(235, 153, 110); transform-origin: 425px 184.713px;" id="elwfy6h95zzo" class="animable"></path><path d="M418.8,164.31a4.69,4.69,0,0,1-2.85-3.17,4.13,4.13,0,0,1,1.25-4,3.68,3.68,0,0,1,4.14-.39,5.21,5.21,0,0,1,2.06,2.89,4.09,4.09,0,0,1,.25,2.36,3.46,3.46,0,0,1-2.56,2.31,10.06,10.06,0,0,1-3.59.1" style="fill: rgb(3, 169, 241); transform-origin: 419.782px 160.407px;" id="elosbh9qu4by" class="animable"></path><path d="M443.32,181.24a3,3,0,0,0,.06-1.24,2.81,2.81,0,0,0-.67-1.27,3.27,3.27,0,0,0-1.63-.94,7.11,7.11,0,0,0-2.35-.17c-.86.06-1.78.21-2.79.24a5.51,5.51,0,0,1-3.1-.74,4.93,4.93,0,0,1-1.85-2.86,15.38,15.38,0,0,0-3.05-5.46,16,16,0,0,0-3.94-3.28,21.65,21.65,0,0,0-4.4-1.84,4.55,4.55,0,0,1,1.29.21,13.54,13.54,0,0,1,3.29,1.31,15.6,15.6,0,0,1,4.12,3.29,15.21,15.21,0,0,1,3.18,5.61,4.54,4.54,0,0,0,1.64,2.6,5.16,5.16,0,0,0,2.81.68c1,0,1.89-.15,2.77-.19a7.35,7.35,0,0,1,2.48.24,3.58,3.58,0,0,1,1.75,1.11,2.94,2.94,0,0,1,.65,1.42,2.28,2.28,0,0,1-.09,1C443.41,181.15,443.33,181.25,443.32,181.24Z" style="fill: rgb(3, 169, 241); transform-origin: 431.6px 172.46px;" id="elqjnjtm8ftca" class="animable"></path><path d="M423.28,165.5a14.62,14.62,0,0,0-7.46-3.94,8.34,8.34,0,0,1,7.46,3.94Z" style="fill: rgb(38, 50, 56); transform-origin: 419.55px 163.526px;" id="elkl2xl0tebr" class="animable"></path><path d="M404.47,197.46a15.28,15.28,0,0,0,8.09-2.74s-2,4.51-8.15,4.26Z" style="fill: rgb(235, 153, 110); transform-origin: 408.485px 196.855px;" id="elgz9erjyjcx6" class="animable"></path><path d="M407.48,187.82a15.6,15.6,0,0,1-4.07,1.41,2.37,2.37,0,0,0,2.79.79A1.75,1.75,0,0,0,407.48,187.82Z" style="fill: rgb(255, 255, 255); transform-origin: 405.481px 189.006px;" id="eljye8zacyv9" class="animable"></path><path d="M418.67,237.53c-2.3,5.77-4.9,11.57-6.13,11.68-13.54,1.24-28-3.25-33.11-5-.52-.58-1.11-1.27-1.76-2.13a8.2,8.2,0,0,1-1.28-2.43,12.66,12.66,0,0,1-.72-3.34,1.06,1.06,0,0,0-1.83-.84c-.58.76-.73,3.66.6,6.78s-3.39.64-5.13-.23-7.25-3.33-7.95-3c-1,.47-.69,1.65,1.07,2.48s6.85,3.7,6.34,4.6-9.29-3.69-9.29-3.69-1.73-1.28-2.34-.26c-1.12,1.83,8.59,6,9.53,6.38.64.26.13,1.25-.55.93s-8.67-4.76-9.83-2.9c-.89,1.42,8,3.5,9.1,5.34s-6.55-2.26-7.34-.86c-.29.52-.44.95,4.32,2.66A101.71,101.71,0,0,0,373,256.37v.05s48.55,21.73,57.74.76c2.2-5,4.36-9.87,5.59-12.74" style="fill: rgb(255, 190, 157); transform-origin: 396.279px 250.719px;" id="eli2moxq9vxnc" class="animable"></path><path d="M304.15,299.4l.67-107.7-6.84-.14-.51,107.84Z" style="fill: rgb(38, 50, 56); transform-origin: 301.145px 245.48px;" id="elzivskh9dvr" class="animable"></path></g><g id="freepik--character-1--inject-43" class="animable" style="transform-origin: 111.315px 303.212px;"><path d="M119.87,279.83,69.66,325.42a18.87,18.87,0,0,0-5.93,13.75h0c0,10.46,8.87,17.3,19.33,17.26,25.51-.1,66.93-1.62,66.63-1.32s.41-15.69.41-15.69l-58.65-2.56,46.18-39.39-17.76-17.64" style="fill: rgb(204, 143, 113); transform-origin: 106.915px 318.13px;" id="elxh7r7mebk1m" class="animable"></path><path d="M122.5,291.15s-6.63,59.27-6.08,63.69,2.21,78.22,2.21,78.22l15.55-.61,4.2-77.81,13-59.12Z" style="fill: rgb(204, 143, 113); transform-origin: 133.884px 362.105px;" id="eldrclyh59sia" class="animable"></path><path d="M116,339.41a19.94,19.94,0,0,1,0,3c0,1.87,0,4.45.11,7.31s.37,5.42.57,7.28a24.12,24.12,0,0,1,.26,3,14.23,14.23,0,0,1-.63-3,71.74,71.74,0,0,1-.72-7.31,69.48,69.48,0,0,1,.05-7.35A14.38,14.38,0,0,1,116,339.41Z" style="fill: rgb(168, 103, 74); transform-origin: 116.228px 349.705px;" id="elv2evoj705tj" class="animable"></path><path d="M85.75,340.26a11.42,11.42,0,0,1,2.84-2,11.34,11.34,0,0,1,3.1-1.51,11.87,11.87,0,0,1-2.84,2A12,12,0,0,1,85.75,340.26Z" style="fill: rgb(168, 103, 74); transform-origin: 88.72px 338.505px;" id="elxcfss0krt7" class="animable"></path><polygon points="74.87 223.16 53.58 208.38 52.59 210.04 73.74 225.01 74.87 223.16" style="fill: rgb(38, 50, 56); transform-origin: 63.73px 216.695px;" id="el49zy533kz1" class="animable"></polygon><path d="M67.64,222.89S65,215.53,64.36,214s-1.62-4.3-2-4.36-1.87.14,0,4.82S60,216.19,60,216.19l-4.08-2.88s-3.26,9.38-1.5,12.28a46.38,46.38,0,0,0,4.67,6.14Z" style="fill: rgb(204, 143, 113); transform-origin: 60.7693px 220.681px;" id="ela5qnyk145as" class="animable"></path><path d="M113.7,178c-4.34,3-1.18,8.87-3.67,11.36-.93.92-2.25,1.38-3.16,2.32-3.13,3.23.48,9.33-2.26,12.89-.93,1.22-2.42,1.84-3.64,2.78a8.75,8.75,0,0,0-2,11.17l24.14-5.31-3.76-32.91Z" style="fill: rgb(38, 50, 56); transform-origin: 110.443px 198.26px;" id="elycyp8ch4wea" class="animable"></path><path d="M142.88,174.27c1.52,3.6,7.06,3.23,9.65,6.15,1.68,1.9,1.79,4.82,3.47,6.71s4.52,2.25,6.76,3.48c4.51,2.47,6.1,8,7.28,13.06a126.73,126.73,0,0,1-26.41,7.55c-1.06.19-4.85.26-10.83,1.41l-2-33.95,12.08-4.41" style="fill: rgb(38, 50, 56); transform-origin: 150.42px 193.45px;" id="eltf09gshds4" class="animable"></path><path d="M123.08,216.7c0-2-1-11-1-11s-6.43-.36-7.13-6.69-1-21-1-21l11.37-6.28,10.59,9.46,2.35,31.45Z" style="fill: rgb(204, 143, 113); transform-origin: 126.105px 194.215px;" id="elu5kee60jgj" class="animable"></path><path d="M137.65,185.75s-10.52-.47-12.84-9.87L114,186.93a12.27,12.27,0,0,1,2.17-13.72c6-6.85,10.36-5.7,12.82-5.83,2.31-.11,14.06,1.78,18.18,14.84.3.95.62,3.32.84,4.38Z" style="fill: rgb(38, 50, 56); transform-origin: 130.408px 177.153px;" id="elbprw6oyremo" class="animable"></path><path d="M115.5,188.61a.82.82,0,0,0,.86.77.81.81,0,1,0-.86-.77Z" style="fill: rgb(38, 50, 56); transform-origin: 116.309px 188.571px;" id="elw1pnht8ho9" class="animable"></path><path d="M114.67,187.77c.11.1.69-.44,1.56-.53s1.55.29,1.64.17-.08-.24-.38-.42a2.06,2.06,0,0,0-1.32-.28,2.17,2.17,0,0,0-1.23.56C114.69,187.51,114.62,187.72,114.67,187.77Z" style="fill: rgb(38, 50, 56); transform-origin: 116.274px 187.238px;" id="elz6mmq3yn46" class="animable"></path><path d="M124.92,188.15a.81.81,0,1,0,.77-.86A.81.81,0,0,0,124.92,188.15Z" style="fill: rgb(38, 50, 56); transform-origin: 125.728px 188.099px;" id="el8hrwzn6l3lo" class="animable"></path><path d="M124.37,187.28c.11.1.68-.44,1.55-.53s1.55.3,1.64.18-.08-.24-.37-.42a2.16,2.16,0,0,0-2.55.28C124.39,187,124.32,187.24,124.37,187.28Z" style="fill: rgb(38, 50, 56); transform-origin: 125.97px 186.755px;" id="elpqwhd8ryxgm" class="animable"></path><path d="M121.58,194.83a5.64,5.64,0,0,0-1.44-.11c-.22,0-.44,0-.5-.19a1.28,1.28,0,0,1,.09-.71l.51-1.84a31.9,31.9,0,0,0,1.1-4.79,36.06,36.06,0,0,0-1.45,4.7c-.16.65-.32,1.26-.48,1.85a1.43,1.43,0,0,0,0,.92.6.6,0,0,0,.39.3,1.24,1.24,0,0,0,.38,0A5.76,5.76,0,0,0,121.58,194.83Z" style="fill: rgb(38, 50, 56); transform-origin: 120.457px 191.082px;" id="elexd522tv906" class="animable"></path><path d="M124.51,195.51c.86-.63-2.37,1.58-4.16,1.67a2.44,2.44,0,0,0,2.94.68C125.12,197,124.51,195.51,124.51,195.51Z" style="fill: rgb(255, 255, 255); transform-origin: 122.501px 196.744px;" id="el8y1k47jov27" class="animable"></path><path d="M121.88,205.68a15.94,15.94,0,0,0,8.27-3.26s-1.68,4.75-8.06,4.81Z" style="fill: rgb(168, 103, 74); transform-origin: 126.015px 204.825px;" id="el5tucmpvsns2" class="animable"></path><path d="M125.08,175.1s-2.1,4.61-.94,7.94l-10,3.13S111.14,173.39,125.08,175.1Z" style="fill: rgb(38, 50, 56); transform-origin: 119.474px 180.556px;" id="el1o3hgujzick" class="animable"></path><path d="M138.2,358,74.75,316.11c13.42-14.36,28-27,44.37-37.2l38.5-2.57C161.68,307.39,138.38,333.07,138.2,358Z" style="fill: rgb(38, 50, 56); transform-origin: 116.422px 317.17px;" id="elq80fep9k08b" class="animable"></path><path d="M118.68,431.76l-.09,2.76s-13.56,2.66-10.32,3.74c2.89,1,20.8.79,25.18.67l1,0,0-6.57Z" style="fill: rgb(3, 169, 241); transform-origin: 121.11px 435.397px;" id="elv1z92fgag" class="animable"></path><g id="elg0d9wv4ldls"><g style="opacity: 0.5; transform-origin: 131.62px 436.441px;" class="animable"><path d="M128.69,438.61a5.44,5.44,0,0,1,2.12-3.32,5.29,5.29,0,0,1,3.74-1.05l-.13,4.43Z" style="fill: rgb(255, 255, 255); transform-origin: 131.62px 436.441px;" id="elpqswjynhnmk" class="animable"></path></g></g><g id="elx8f3o925n1"><g style="opacity: 0.5; transform-origin: 121.112px 437.549px;" class="animable"><path d="M112,436.05s-4.76,1.23-4.2,2,18.67,1.29,26.67.82v-.36l-21.12-.41S112.88,436.12,112,436.05Z" style="fill: rgb(255, 255, 255); transform-origin: 121.112px 437.549px;" id="elxd06hhftseg" class="animable"></path></g></g><path d="M134.67,438.54l-.28,0-.78,0-2.88,0c-2.44,0-5.81,0-9.52-.1s-7.08-.26-9.51-.41l-2.88-.2-.78-.07-.27,0H108l.78,0,2.89.14c2.43.12,5.79.26,9.5.36s7.08.14,9.52.15l2.88,0h.78A1.58,1.58,0,0,1,134.67,438.54Z" style="fill: rgb(38, 50, 56); transform-origin: 121.22px 438.15px;" id="el3aum56zd4ty" class="animable"></path><path d="M113.3,438.38a7.13,7.13,0,0,0-.5-1.39,7,7,0,0,0-1-1.13,2.15,2.15,0,0,1,1.12,1A2.1,2.1,0,0,1,113.3,438.38Z" style="fill: rgb(38, 50, 56); transform-origin: 112.56px 437.12px;" id="elt29l75di3s" class="animable"></path><path d="M118,436.14s-.26-.25-.48-.62a1.84,1.84,0,0,1-.32-.72c.05,0,.26.25.48.62S118.09,436.11,118,436.14Z" style="fill: rgb(38, 50, 56); transform-origin: 117.611px 435.47px;" id="eldpe1cgtw234" class="animable"></path><path d="M119.34,435.49s-.28-.13-.54-.38-.46-.49-.42-.53.28.13.55.39S119.38,435.46,119.34,435.49Z" style="fill: rgb(38, 50, 56); transform-origin: 118.86px 435.032px;" id="elt6gbjwok1vi" class="animable"></path><path d="M120.2,434a1.89,1.89,0,0,1-.83.08c-.46,0-.83-.05-.83-.11a1.89,1.89,0,0,1,.83-.08A2,2,0,0,1,120.2,434Z" style="fill: rgb(38, 50, 56); transform-origin: 119.37px 433.985px;" id="elc70kwzzbyv" class="animable"></path><path d="M120.51,433a1.67,1.67,0,0,1-.93.25,1.61,1.61,0,0,1-1-.16,5.93,5.93,0,0,1,.94,0A5.7,5.7,0,0,1,120.51,433Z" style="fill: rgb(38, 50, 56); transform-origin: 119.545px 433.135px;" id="elxldz38t3ly" class="animable"></path><path d="M117.54,434.74a3,3,0,0,1-1,0,7,7,0,0,1-1.07-.27,3.06,3.06,0,0,1-.62-.28.5.5,0,0,1-.24-.32.39.39,0,0,1,.17-.4,1.85,1.85,0,0,1,2.29.61,1.68,1.68,0,0,1,.31.69.52.52,0,0,1,0,.27,2.76,2.76,0,0,0-.44-.88,1.83,1.83,0,0,0-.85-.59,1.57,1.57,0,0,0-1.22,0c-.16.12-.11.31.07.42a3.68,3.68,0,0,0,.57.26,7.12,7.12,0,0,0,1,.3C117.16,434.7,117.54,434.71,117.54,434.74Z" style="fill: rgb(38, 50, 56); transform-origin: 116.072px 434.169px;" id="els8jj73gb6zl" class="animable"></path><path d="M117.28,434.78a1,1,0,0,1-.1-.71,1.6,1.6,0,0,1,.3-.73,1,1,0,0,1,.86-.5.41.41,0,0,1,.3.48,1.15,1.15,0,0,1-.18.45,3.17,3.17,0,0,1-.5.6,1.42,1.42,0,0,1-.6.4s.21-.18.5-.49a3.33,3.33,0,0,0,.44-.6c.15-.21.26-.6,0-.65s-.52.21-.68.41a1.71,1.71,0,0,0-.31.66A2.94,2.94,0,0,0,117.28,434.78Z" style="fill: rgb(38, 50, 56); transform-origin: 117.901px 433.81px;" id="el79z3cpcalu" class="animable"></path><path d="M134.46,434.19s-.45-.05-1.17,0a5,5,0,0,0-4.24,3.19c-.26.68-.3,1.13-.33,1.13s0-.12,0-.32a4.5,4.5,0,0,1,.2-.85,4.83,4.83,0,0,1,4.36-3.29,5,5,0,0,1,.87.05A1,1,0,0,1,134.46,434.19Z" style="fill: rgb(38, 50, 56); transform-origin: 131.583px 436.279px;" id="ellczfxj0d9hn" class="animable"></path><path d="M126.74,437a8.91,8.91,0,0,1-2.32.16,9,9,0,0,1-2.32-.25c0-.05,1,0,2.32.06S126.73,437,126.74,437Z" style="fill: rgb(38, 50, 56); transform-origin: 124.42px 437.033px;" id="el87f45ako0ao" class="animable"></path><path d="M129.84,437.09s-.09.22-.2.45-.17.44-.23.44-.07-.25.06-.52S129.81,437.05,129.84,437.09Z" style="fill: rgb(38, 50, 56); transform-origin: 129.604px 437.532px;" id="elpf8r9901zef" class="animable"></path><path d="M131.06,435.66s-.07.2-.24.37-.34.26-.37.22.07-.2.23-.36S131,435.63,131.06,435.66Z" style="fill: rgb(38, 50, 56); transform-origin: 130.752px 435.957px;" id="elglaxhpr6s1c" class="animable"></path><path d="M132.75,435c0,.06-.22,0-.46.13s-.4.19-.45.15.1-.25.39-.34S132.77,435,132.75,435Z" style="fill: rgb(38, 50, 56); transform-origin: 132.291px 435.102px;" id="elec9crdiv1sr" class="animable"></path><path d="M134,434.76c0,.05-.07.13-.21.18s-.25.05-.27,0,.08-.13.21-.18S133.93,434.71,134,434.76Z" style="fill: rgb(38, 50, 56); transform-origin: 133.759px 434.85px;" id="elzu017u064jh" class="animable"></path><path d="M147.64,355.29l2.76.09s2.65,13.56,3.73,10.32c1-2.89.8-20.8.68-25.18l0-1-6.56-.05Z" style="fill: rgb(3, 169, 241); transform-origin: 151.276px 352.835px;" id="elcytm4fzgoc9" class="animable"></path><g id="elz5tiydea5eg"><g style="opacity: 0.5; transform-origin: 152.359px 342.35px;" class="animable"><path d="M154.49,345.28a5.49,5.49,0,0,1-3.33-2.12,5.33,5.33,0,0,1-1-3.74l4.43.13Z" style="fill: rgb(255, 255, 255); transform-origin: 152.359px 342.35px;" id="el22i216euj5n" class="animable"></path></g></g><g id="elzcgazqxdzls"><g style="opacity: 0.5; transform-origin: 153.432px 352.884px;" class="animable"><path d="M151.93,362s1.23,4.76,2,4.19,1.3-18.66.82-26.66h-.35L154,360.67S152,361.09,151.93,362Z" style="fill: rgb(255, 255, 255); transform-origin: 153.432px 352.884px;" id="elrr0uc7a0uo" class="animable"></path></g></g><path d="M154.42,339.3s0,.1,0,.28,0,.49,0,.78c0,.78,0,1.75,0,2.88,0,2.44,0,5.81-.1,9.52s-.27,7.08-.42,9.51c-.08,1.14-.14,2.1-.2,2.88q0,.44-.06.78a1.14,1.14,0,0,1,0,.27.92.92,0,0,1,0-.27c0-.24,0-.49,0-.79,0-.78.08-1.74.14-2.88.11-2.43.26-5.79.36-9.5s.14-7.08.15-9.52c0-1.13,0-2.1,0-2.88,0-.29,0-.55,0-.78A.9.9,0,0,1,154.42,339.3Z" style="fill: rgb(38, 50, 56); transform-origin: 154.025px 352.75px;" id="elzrruxc1pugf" class="animable"></path><path d="M154.26,360.67a6.89,6.89,0,0,0-1.39.5,6.46,6.46,0,0,0-1.13.95,2.15,2.15,0,0,1,1-1.12A2.13,2.13,0,0,1,154.26,360.67Z" style="fill: rgb(38, 50, 56); transform-origin: 153px 361.381px;" id="elh4gw5v5le46" class="animable"></path><path d="M152,355.93a1.91,1.91,0,0,1-.63.48,1.78,1.78,0,0,1-.72.32c0-.05.25-.26.62-.49S152,355.88,152,355.93Z" style="fill: rgb(38, 50, 56); transform-origin: 151.325px 356.325px;" id="el88qmp8586ib" class="animable"></path><path d="M151.37,354.62s-.13.29-.39.55-.49.46-.52.42.13-.28.38-.55S151.33,354.59,151.37,354.62Z" style="fill: rgb(38, 50, 56); transform-origin: 150.913px 355.106px;" id="elehssk33zl05" class="animable"></path><path d="M149.9,353.77a1.89,1.89,0,0,1,.08.83,2,2,0,0,1-.11.83,1.89,1.89,0,0,1-.08-.83A2,2,0,0,1,149.9,353.77Z" style="fill: rgb(38, 50, 56); transform-origin: 149.885px 354.6px;" id="els2lgjcfg6j" class="animable"></path><path d="M148.85,353.46a1.61,1.61,0,0,1,.24.93,1.57,1.57,0,0,1-.15.95,6,6,0,0,1,0-.94A5.7,5.7,0,0,1,148.85,353.46Z" style="fill: rgb(38, 50, 56); transform-origin: 148.979px 354.4px;" id="elmp8crtjomia" class="animable"></path><path d="M150.62,356.43a2.83,2.83,0,0,1,0,1,5.16,5.16,0,0,1-.27,1.08,2.54,2.54,0,0,1-.27.62.57.57,0,0,1-.32.24.4.4,0,0,1-.41-.17,1.88,1.88,0,0,1,.61-2.29,1.79,1.79,0,0,1,.69-.31.55.55,0,0,1,.28,0,2.51,2.51,0,0,0-.88.44,1.76,1.76,0,0,0-.59.85,1.57,1.57,0,0,0,.05,1.22c.11.16.3.1.42-.07a3.68,3.68,0,0,0,.26-.57,7.12,7.12,0,0,0,.3-1C150.57,356.81,150.59,356.43,150.62,356.43Z" style="fill: rgb(38, 50, 56); transform-origin: 150.058px 357.904px;" id="el1c1baxaquve" class="animable"></path><path d="M150.66,356.69a1,1,0,0,1-.71.1,1.68,1.68,0,0,1-.74-.3,1,1,0,0,1-.49-.86.4.4,0,0,1,.48-.3,1.15,1.15,0,0,1,.45.18,3.17,3.17,0,0,1,.6.5,1.56,1.56,0,0,1,.4.6s-.18-.21-.5-.5a3.36,3.36,0,0,0-.59-.45c-.22-.14-.6-.25-.65,0s.21.52.41.68a1.74,1.74,0,0,0,.65.31A3,3,0,0,0,150.66,356.69Z" style="fill: rgb(38, 50, 56); transform-origin: 149.69px 356.068px;" id="elevk2la3zc6" class="animable"></path><path d="M150.07,339.51a10.62,10.62,0,0,0,0,1.17,5.12,5.12,0,0,0,1,2.58,5,5,0,0,0,2.21,1.66,11.18,11.18,0,0,0,1.13.33.81.81,0,0,1-.32,0,3.71,3.71,0,0,1-.85-.19,4.83,4.83,0,0,1-3.29-4.36,4.17,4.17,0,0,1,.05-.87C150,339.61,150.06,339.5,150.07,339.51Z" style="fill: rgb(38, 50, 56); transform-origin: 152.178px 342.388px;" id="elwu7fkl8aag9" class="animable"></path><path d="M152.88,347.23a8.64,8.64,0,0,1,.17,2.32,9,9,0,0,1-.25,2.32c-.06,0,0-1,.06-2.32S152.83,347.24,152.88,347.23Z" style="fill: rgb(38, 50, 56); transform-origin: 152.921px 349.55px;" id="eltotpsptzjv8" class="animable"></path><path d="M153,344.12s.21.1.45.21.44.17.44.23-.26.07-.53-.06S152.93,344.16,153,344.12Z" style="fill: rgb(38, 50, 56); transform-origin: 153.437px 344.361px;" id="el8eszf49wk5l" class="animable"></path><path d="M151.54,342.91s.2.07.36.24.27.34.23.37-.2-.07-.37-.23S151.5,343,151.54,342.91Z" style="fill: rgb(38, 50, 56); transform-origin: 151.834px 343.218px;" id="el53aghb8neri" class="animable"></path><path d="M150.92,341.22c.06,0,.05.22.12.46s.2.4.16.44-.25-.09-.34-.39S150.87,341.2,150.92,341.22Z" style="fill: rgb(38, 50, 56); transform-origin: 151.016px 341.673px;" id="el8iyyxpjdzqj" class="animable"></path><path d="M150.64,340c.05,0,.13.07.18.21s0,.25,0,.27-.13-.08-.17-.21S150.59,340,150.64,340Z" style="fill: rgb(38, 50, 56); transform-origin: 150.726px 340.241px;" id="ele8wsfn80w7q" class="animable"></path><path d="M67.41,222.18c.43-1,25.85,21.58,31,19.81,2.41-.83,9.13-7.75,15.61-14.91v-.16a60.81,60.81,0,0,1,13.78-16,10.81,10.81,0,0,1,16.76,4.24c5,11.93,4.37,26.83,9.79,49.26l.38,1.37-.08-.14c.82,3.3,1.78,6.75,2.89,10.38l-2.81-10.24a23.39,23.39,0,0,0,2.34,3.35,10,10,0,0,1,2.38,3.66c.36,1.43-.39,3.26-1.85,3.42l0,.12-37.92,2.54V279a3.45,3.45,0,0,1-3.45-2,6.12,6.12,0,0,1-.26-4.16,28.43,28.43,0,0,1,1.51-4c.18-.45.35-.91.5-1.37l-1.11-11.27c-7.9,5.72-15.62,10.27-19.49,9.6-9.75-1.69-40.28-32.55-40.28-32.55S67,223.13,67.41,222.18Z" style="fill: rgb(69, 90, 100); transform-origin: 108.32px 243.769px;" id="eljp4u779qh" class="animable"></path><path d="M142.33,223.64a8.94,8.94,0,0,1-.57,1.58c-.39,1-1,2.44-1.88,4.17s-2,3.76-3.31,5.94a81.54,81.54,0,0,1-4.81,6.79,79.26,79.26,0,0,1-5.57,6.18c-1.83,1.8-3.55,3.33-5.06,4.54s-2.75,2.16-3.65,2.76a9.7,9.7,0,0,1-1.42.9,11,11,0,0,1,1.3-1.07c.86-.65,2.07-1.62,3.54-2.87s3.15-2.8,4.95-4.59,3.66-3.89,5.5-6.18,3.43-4.59,4.81-6.72,2.51-4.13,3.39-5.84,1.58-3.11,2-4.09A10.78,10.78,0,0,1,142.33,223.64Z" style="fill: rgb(38, 50, 56); transform-origin: 129.195px 240.07px;" id="elriegop35g37" class="animable"></path><path d="M98.18,250.32a16.37,16.37,0,0,1-.63-4,16.14,16.14,0,0,1-.12-4.06,16.08,16.08,0,0,1,.64,4A15.84,15.84,0,0,1,98.18,250.32Z" style="fill: rgb(38, 50, 56); transform-origin: 97.8081px 246.29px;" id="el81ufyv8jqo6" class="animable"></path><path d="M100.21,249.89a26.33,26.33,0,0,1-1.83-7.18,26.33,26.33,0,0,1,1.83,7.18Z" style="fill: rgb(38, 50, 56); transform-origin: 99.295px 246.3px;" id="elptyrtg3jwe" class="animable"></path></g><g id="freepik--speech-bubble--inject-43" class="animable" style="transform-origin: 66.7594px 159.361px;"><path d="M79.4,156.39a6,6,0,0,0-11.74.3,6,6,0,0,0-11.74-.3,8.09,8.09,0,0,0,1.42,5.81,23.79,23.79,0,0,0,4.18,4.45c2.13,1.91,4.09,3.71,6.22,5.62,2.13-1.91,3.94-3.71,6.07-5.62A23.79,23.79,0,0,0,78,162.2,8,8,0,0,0,79.4,156.39Z" style="fill: rgb(3, 169, 241); transform-origin: 67.6638px 162.021px;" id="ellmdhzo9slu8" class="animable"></path><path d="M90.39,171.93s.09.25.23.72l.63,2.1c.54,1.87,1.32,4.58,2.33,8.05l.06.21-.21-.06-10-2.45.15,0a27,27,0,1,1-32.5-43.11A26.78,26.78,0,0,1,67,132.44a28.7,28.7,0,0,1,7.77,1.25,29.13,29.13,0,0,1,6.69,3.21,27.81,27.81,0,0,1,8.92,9.75,27.41,27.41,0,0,1,3.08,10.48,26.42,26.42,0,0,1-.58,8.24,25.39,25.39,0,0,1-1.69,4.94c-.25.55-.45.95-.6,1.22s-.23.4-.23.4,0-.14.18-.42.32-.69.56-1.24a27.5,27.5,0,0,0,1.58-4.94,26.32,26.32,0,0,0,.49-8.17,26.58,26.58,0,0,0-12-19.9A26.34,26.34,0,0,0,67,132.92a28.38,28.38,0,0,0-8,1.13,27.73,27.73,0,0,0-7.59,3.72,26.58,26.58,0,1,0,32,42.43l.06,0,.08,0,10,2.54-.15.16c-1-3.5-1.71-6.24-2.22-8.12l-.56-2.1C90.43,172.17,90.39,171.93,90.39,171.93Z" style="fill: rgb(38, 50, 56); transform-origin: 66.7594px 159.361px;" id="elu3sfstmffw" class="animable"></path></g><defs>     <filter id="active" height="200%">         <feMorphology in="SourceAlpha" result="DILATED" operator="dilate" radius="2"></feMorphology>                <feFlood flood-color="#32DFEC" flood-opacity="1" result="PINK"></feFlood>        <feComposite in="PINK" in2="DILATED" operator="in" result="OUTLINE"></feComposite>        <feMerge>            <feMergeNode in="OUTLINE"></feMergeNode>            <feMergeNode in="SourceGraphic"></feMergeNode>        </feMerge>    </filter>    <filter id="hover" height="200%">        <feMorphology in="SourceAlpha" result="DILATED" operator="dilate" radius="2"></feMorphology>                <feFlood flood-color="#ff0000" flood-opacity="0.5" result="PINK"></feFlood>        <feComposite in="PINK" in2="DILATED" operator="in" result="OUTLINE"></feComposite>        <feMerge>            <feMergeNode in="OUTLINE"></feMergeNode>            <feMergeNode in="SourceGraphic"></feMergeNode>        </feMerge>            <feColorMatrix type="matrix" values="0   0   0   0   0                0   1   0   0   0                0   0   0   0   0                0   0   0   1   0 "></feColorMatrix>    </filter></defs></svg>